<svg id="Layer_1" data-name="Layer 1" xmlns="http://www.w3.org/2000/svg" viewBox="0 0 1920 2326.22"><title>bubble</title><path d="M576,93.26c0,176.1-142.76,318.86-318.86,318.86A318.36,318.36,0,0,1,0,281.83V0H562.14A318.76,318.76,0,0,1,576,93.26Z" transform="translate(0 0)"/><path d="M1286.89,0A274.55,274.55,0,0,1,1044,146.38,274.55,274.55,0,0,1,801.11,0Z" transform="translate(0 0)"/><ellipse cx="1469.49" cy="437.83" rx="222.72" ry="225.34"/><circle cx="852" cy="878.95" r="177.89"/><circle cx="496.23" cy="1496.09" r="241.99"/><circle cx="1537.3" cy="1943.52" r="382.7"/><path d="M1920,0V144a232.13,232.13,0,0,1-149.65,54.39c-116.91,0-213.72-86.1-230.48-198.35Z" transform="translate(0 0)"/></svg>