<?xml version="1.0" encoding="utf-8"?>
<!-- Generator: Adobe Illustrator 23.0.5, SVG Export Plug-In . SVG Version: 6.00 Build 0)  -->
<svg version="1.1" id="Layer_1" xmlns="http://www.w3.org/2000/svg" xmlns:xlink="http://www.w3.org/1999/xlink" x="0px" y="0px"
	 viewBox="0 0 1796.8 1357.1" style="enable-background:new 0 0 1796.8 1357.1;" xml:space="preserve">
<style type="text/css">
	.st0{display:none;}
</style>
<title>drop-line</title>
<path class="st0" d="M51.4,443.6L51.4,443.6C23,443.6,0,420.6,0,392.1V129.2c0-28.4,23-51.4,51.4-51.4h0l0,0
	c28.4,0,51.4,23,51.4,51.4v262.9C102.9,420.6,79.8,443.6,51.4,443.6z M102.9,964.9V624.2c0-28.4-23-51.4-51.4-51.4l0,0
	C23,572.8,0,595.8,0,624.2v340.7c0,28.4,23,51.4,51.4,51.4l0,0C79.8,1016.4,102.9,993.3,102.9,964.9z M316.3,730.9V390.2
	c0-28.4-23-51.4-51.4-51.4l0,0c-28.4,0-51.4,23-51.4,51.4c0,0,0,0,0,0v340.7c0,28.4,23,51.4,51.4,51.4c0,0,0,0,0,0l0,0
	C293.3,782.4,316.3,759.3,316.3,730.9L316.3,730.9z M519.4,392.1V51.4C519.4,23,496.4,0,468,0l0,0c-28.4,0-51.4,23-51.4,51.4v340.7
	c0,28.4,23,51.4,51.4,51.4l0,0C496.4,443.6,519.4,420.6,519.4,392.1z M936.6,770.1v-458c0-28.4-23-51.5-51.4-51.5c0,0,0,0,0,0l0,0
	c-28.4,0-51.4,23-51.4,51.4v458c0,28.4,23,51.5,51.4,51.5c0,0,0,0,0,0l0,0C913.6,821.6,936.6,798.6,936.6,770.1L936.6,770.1z
	 M1171.9,613.9V273.2c0-28.4-23-51.4-51.4-51.4c0,0,0,0,0,0l0,0c-28.4,0-51.4,23-51.4,51.4c0,0,0,0,0,0v340.7
	c0,28.4,23,51.4,51.4,51.4c0,0,0,0,0,0l0,0C1148.9,665.4,1171.9,642.3,1171.9,613.9C1171.9,613.9,1171.9,613.9,1171.9,613.9z
	 M1384.1,671.8V331.1c0-28.4-23-51.4-51.4-51.4l0,0l0,0c-28.4,0-51.4,23-51.4,51.4v340.7c0,28.4,23,51.4,51.4,51.4l0,0
	C1361,723.2,1384.1,700.2,1384.1,671.8L1384.1,671.8z M1796.8,1045.9V273.2c0-28.4-23-51.4-51.4-51.4c0,0,0,0,0,0l0,0
	c-28.4,0-51.4,23-51.4,51.4c0,0,0,0,0,0v772.7c0,28.4,23,51.4,51.4,51.4l0,0l0,0C1773.7,1097.4,1796.8,1074.3,1796.8,1045.9
	C1796.8,1045.9,1796.8,1045.9,1796.8,1045.9L1796.8,1045.9z M1384.1,1252.3V911.6c0-28.4-23-51.4-51.4-51.4l0,0l0,0
	c-28.4,0-51.4,23-51.4,51.4v340.7c0,28.4,23,51.4,51.4,51.4l0,0C1361,1303.7,1384.1,1280.7,1384.1,1252.3z M1590.4,430V288
	c0-28.4-23-51.4-51.4-51.4l0,0c-28.4,0-51.4,23-51.4,51.4v142c0,28.4,23,51.4,51.4,51.4l0,0C1567.4,481.4,1590.4,458.4,1590.4,430z
	 M1796.8,1305.6v-58.4c0-28.4-23-51.4-51.4-51.4c0,0,0,0,0,0l0,0c-28.4,0-51.4,23-51.4,51.4v0v58.5c0,28.4,23,51.4,51.4,51.4l0,0
	C1773.7,1357,1796.8,1334,1796.8,1305.6L1796.8,1305.6z M1171.9,860.1v-58.4c0-28.4-23-51.4-51.4-51.4c0,0,0,0,0,0l0,0
	c-28.4,0-51.4,23-51.4,51.4c0,0,0,0,0,0v58.5c0,28.4,23,51.4,51.4,51.4c0,0,0,0,0,0l0,0C1148.9,911.6,1171.9,888.5,1171.9,860.1
	L1171.9,860.1z M936.6,1030.5V972c0-28.4-23-51.4-51.4-51.4l0,0c-28.4,0-51.4,23-51.4,51.4v58.5c0,28.4,23,51.4,51.4,51.4l0,0
	C913.6,1081.9,936.6,1058.9,936.6,1030.5z M535.5,654.4v-58.5c0-28.4-23-51.4-51.4-51.4l0,0c-28.4,0-51.4,23-51.4,51.4v58.5
	c0,28.4,23,51.4,51.4,51.4c0,0,0,0,0,0l0,0C512.5,705.9,535.5,682.8,535.5,654.4z"/>
<path d="M1819.7,0v517.5c0,0-95,18.3-109.6-25.6c-14.6-43.8-62.1-54.8-171.8-87.7c0,0-190,7.3-226.6-40.2
	c-60.9-66.4,18-23.6-67.4-51.7c-46.9-15.4-58-20.3-84.9-25.1c-32.2-5.7-143.8,69.4-158.4,55.2c-14.6-14.2-204.6,3.2-204.6,3.2
	s-215.6-7.3-233.9,0c-18.3,7.3-149.8,47.5-171.8,58.5c-21.9,11-62.1,29.2-95,53s-51.2,5.5-65.8,0c-14.6-5.5-80.4,34.7-80.4,34.7
	L-11,422.5V0H1819.7z"/>
</svg>
