<svg id="Layer_1" data-name="Layer 1" xmlns="http://www.w3.org/2000/svg" viewBox="0 0 874.67 883.04"><defs><style>.cls-1{fill:#1a1d19;}</style></defs><title>icon</title><path class="cls-1" d="M1002.12,344.05c-1.51,1.79-2.09,3.87-3,5.79a51.59,51.59,0,0,1-3,5c2.77-7.14,7-13.62,4.56-22.37-3.61,1.22-6.77,2.3-9.94,3.27a3.85,3.85,0,0,1-2.08-.28c-9.17-2.62-18.52-3.05-27.62-.37-4.35,1.29-9.34,3.38-8.5,9.81-4.07-.28-4.28-.79-1.59-5.78-3.45.25-6.46.58-9.49.64-12,.15-24,.13-35.92.43a9.36,9.36,0,0,0-5.85,2c-3.06,2.88-6.26,3.59-9,.54s-5.72-3.2-9.06-2.5c.28,3,.54,6,.82,8.85l-1,0c-.41-3-.8-6-1.25-9.38-13.16,0-25.79-.11-38.43.13-1.92.06-3.81,1.83-6,2.92l-4.61-5,6.67-1.48c-.09.25-.19.47-.28.71l6.46,1.24a44.9,44.9,0,0,1,4.25-5.09c.61-.54,1.94-.28,2.74-.35.66-.51,1.54-1.18,2.41-1.87l4.6-3.94c.66-3.35,1.31-6.71,2-10.11-6-.4-6.56-5.09-7.86-9.46-2.38,5.21-2,6.22,3.83,9.46-1.74,1.94-3,4.52-5.09,5.42-2.31,1-3.08,1.83-2.29,4.13.09.28-.21.69-.4,1.27l-3.68-1.39c-.24,1.89-.45,3.52-.75,6-1.27-1.75-2-2.78-3.15-4.39v4.3l-.75.11L837,325.51l-.73.26c-.14,1.85-.31,3.7-.46,5.55l-.69,0c-.28-1.49-.56-3-.94-4.93-3.49,2.41-6.74,4.69-10,6.95,1.68.84,3.38,1.68,5.08,2.5-.21.32-.39.64-.6,1-9.19-3.81-12.09-5.48-23.73-2.39-5.42,1.43-10.8,3.06-16,5-.91.36-1.7,2.92-1.44,4.23.75,3.58,2.08,7,3.16,10.55l17.89,24.65a17.49,17.49,0,0,1,1.51,2.66c1.27,3.45,2.11,7.14,3.76,10.41,1.34,2.65,3.58,4.84,5.4,7.19.15-.73.31-1.55.61-3.06.77,1.85,1.27,3.08,2,4.71.76-1.29,1.21-2.06,1.55-2.58.75,2.65,1.49,5.29,2.24,7.92l.86-.22c.15-1,.3-1.93.47-3,1.44,2.88,2.76,5.54,4.54,9.12.48-2,.65-2.71.9-3.68,1.21,1.87,2.24,3.42,3.6,5.52.45-1.44.69-2.23,1-3.11,3.47,3.46,6.69,2.58,9.88-.43-.43.81-.86,1.63-1.51,2.88a52,52,0,0,1,5.44.49c.31.07.44,1.06.65,1.72l-5.59-.56c.06.78.11,1.62.19,2.69-5.29-2.9-12.88-3.18-15.42-.25,3.5,1.89,6.75,3.93,10.24,5.39,1.4.58,3.74-.83,5-.12a17.16,17.16,0,0,0,14.84,1.13c7.42-2.6,14.54-6.06,21.72-9.12l-4-.21-3.68-.22c8.08-2.27,18.24.84,20.73-11.68.46.28.91.58,1.38.86-.77,2.72-1.53,5.45-2.28,8.12l3.89,2.36c-3.24.45-5.53.47-7.63,1.14-4.61,1.48-9.12,3.29-13.69,4.95-1.52.54-3.35.62-4.56,1.53-13.5,10.19-27.53,4.19-41.49,1.85,0,.43-.11,1.18-.19,1.91l-1.12.32c-1.63-3.38-3.23-6.79-4.84-10.17l-1.1.56c.5,1.22,1,2.45,1.55,3.67l-.64.33c-1-1.83-2-3.66-3-5.47-.37.09-.76.2-1.14.31.41,1.63.81,3.27,1.2,4.9-.24.15-.47.3-.71.43l-3.36-5.57c-.45.19-.9.37-1.35.58q3.36,9.06,6.67,18.07c-5.4-2-2.75-9-6.73-12.37-1.19,6.65.88,15.42,4.9,20.61.41-.82.79-1.57,1.18-2.31.26.13.52.24.76.37.4,3.9.81,7.81,1.2,11.73-.49,0-1,.06-1.48.1,0-2.28.79-5-.15-6.77-1.9-3.68-4.71-6.89-6.69-9.66,0,.84-.48,2.92.06,4.67,4.63,15,5.68,31.08,13.36,45.15,1.76,3.2,4,6.15,6,9.23l1.85-.28c-1.44,3.82-3.18,7.54-4.24,11.46-1.94,7.14-3.79,14.35-5.12,21.64C826.33,535,826.05,543.43,834,549c3.14,2.22,7.16,3.17,10.89,4.76-5,1.42-9.34-1.06-14.42-3.29,1.42,1.89,2.31,3,3.19,4.23-.22.22-.47.43-.69.65-1.83-1.61-3.66-3.2-5.89-5.14-1.12,1.91-2.37,3.44-3,5.2-1.7,5.06-3.7,10.11-4.52,15.34-2,12.46-6.94,24.46-5.89,37.37.62,7.76,1.46,15.51,2.13,22.63H872c-1.76-2.74-3-4.65-4.19-6.54.17-.11.36-.2.54-.3l3.33,3.67.39-.32-2.39-4.8c3.4,5.75,10.52,4.84,15.72,8.2l-3.91-6.39c2.49,1.76,4.37,3.08,6.28,4.41l.56-.84c-.56-1.78-1.12-3.57-1.76-5.59l7.7,8.5c2.11.38,6.17-2,6.79,2.83h-12c-.53,6.33,3.21,12.7-1.54,18.61v-4.54l-1.49-.45c-1.05,3-2.47,6-3.1,9.08-2.38,11.42,1.38,11.91,10.33,11.78,2.38,0,3.16-1.14,2.52-3.84-.87-3.64-.89-7.47-1.36-11.23a23.19,23.19,0,0,0-1.1-3.19c-.39,3.72-.66,6.16-.92,8.61l-.89-.13q.88-11.91,1.79-23.79l1.33.88,2.93.13c-2.13,4.32-2.32,8.5,0,12.84.61,1.16-.41,3.18-.53,4.8-.22,3.1-1.3,6.66-.18,9.2,1.25,2.87,4.43,5,7.08,7.08.52.41,3-.73,3.72-1.76,1.29-1.88,1.91-4.22,2.84-6.35,1.06-2.51,2-4.65-.41-7.33-1.37-1.55-1.8-4.48-1.63-6.69.3-3.73,1.42-7.38,2.21-11.12,1,5.24,1.34,10.73,3,15.83,1.86,5.7.14,10-3.11,14.34-.58.78-.54,2-.78,3.08a15.14,15.14,0,0,0,5.36-3.81c2.75-3,3.65-10.82,1.72-14-3.55-5.92-3.7-8-1-13.51.13,2.82-.67,6.2.56,8.48a22.62,22.62,0,0,1,1.31,20.09,4.62,4.62,0,0,0-.3,2.84c2.47,7.14,4.43,14.54,7.78,21.27a246.9,246.9,0,0,0,16.8,29.47c5,7.29,11.62,13.44,17.53,20.07,1.62,1.83,3.28,3.63,5.66,6.22.82-4.84,1.83-8.57,2.05-12.35.9-14.89,2-29.79,2.17-44.68.13-15.75-.56-31.53-1.36-47.26-.4-7.79-2.9-9.74-10.67-9.68-12.79.11-25.57.39-38.35.76-1.08,0-2.13,1.26-3.2,1.91.06-.41.12-.84.17-1.27-3.38-.41-6.78-.82-10.16-1.25.84-1.83,5.38-3.8,7.68-3.25,3,.71,6.33-1.85,6.69-5.07a4.14,4.14,0,0,1,1-2c4.17-5,2.77-10.7-3.32-13.43.73-.3,1.59-.94,2.15-.73,5.68,2.09,7.45,9.1,4,15a56.78,56.78,0,0,0-2.5,5.63c9.36-2.32,6.13-11,10.33-15.4.45.35,1.18.91,2.19,1.72.52-2,.92-3.46,1.33-5,.45.18.89.39,1.34.57-.89,1.78-1.87,3.52-2.71,5.31-1.45,3-2.91,6-4.2,9.12-.3.73.48,2.06.09,2.58a22,22,0,0,1-3.21,2.9h37.78c1-27.64,5.91-54.79-1.51-82.56L959,553.46l-1.24-.73a34,34,0,0,1,2.47-4.18c1.44-1.85,3.53-3.29,4.62-5.29,3.73-6.8,3.73-13.74.46-20.89-1.23-2.71-2.14-6.11-1.66-8.94,1.63-9.25-3.21-16-7.49-23.17l1-1.12c1.27,2.17,2.52,4.34,3.78,6.5l2-.61q6.42-25.87,12.84-51.71c-.62.39-1.53,1-2.47,1.61,3.67-5.82,7.25-11.38,5.59-18.52-2.67,8-6.52,13.19-8.82,11.38,7.51-7.2,10.52-21.33,5-25.12-.94,2.39-1.7,4.77-2.81,7a57.4,57.4,0,0,1-3.49,5.42c-.22-.15-.43-.28-.63-.43,1.7-3.46,3.38-6.93,5.08-10.39q-.74-.78-1.5-1.53c-2.43,1.25-5.15,2.13-7.25,3.81-10,8-30.18,8.95-43.89,2.39a21.82,21.82,0,0,0-4.45-2c-5.55-1.16-11.14-2.11-16.71-3.14,0-.31,0-.63-.07-.95,2.33-.37,4.65-.75,7.17-1.18-5.14-8.76-5.51-11.81-2.58-14.76,1.25,3.48,2.62,7.21,4,11l1.37-1.18c1.4,2.75,2.67,5.21,4.35,8.47h1.66c0-.29,0-.58,0-.88,0-.08,0-.17,0-.26,1-1.52,2-3,3-4.54,0,.44-.05.89-.09,1.34,2.8.23,5.68.13,8.37.79,2,.46,3.76,1.9,5.61,2.91-.51.47-1,.94-1.5,1.4-.15,1.07-.3,2.11-.44,3.18,4.55,2.24,3.27-2.06,4.31-3.91.52.88,1,1.7,1.55,2.53-.48-1.7-1-3.4-1.51-5.27l7.49-3.8c-.46,1-.84,1.76-1.32,2.79L944,412.8l-4.3.9c3.52,2,3.42,1.9,5.68-1.25.45-.62,1.93-.51,3.25-.79-1.88,5.25-4.76,6.34-10.85,4.86,1.06.71,2.11,1.4,3.3,2.21-1.19.07-2.2.15-3.23.2,2.24,3.61,5.76,1.05,8.3,1,4,0,8-2.22,12-3.5.06-.43.1-.84.14-1.25-2.9-.54-5.8-1.08-8.69-1.6,4.07-1.18,8.07-1.2,12-1.85a8.41,8.41,0,0,0,5.13-3,52.58,52.58,0,0,0,5.91-11c1.23-3.23,3.89-6.49,1.79-10.39-.09-.15.19-.49.43-1,.58,1.12,1.09,2.05,1.59,3,5.14-3.62,9.91-7.23,14.93-10.48,5.61-3.64,11.78-6.71,10.34-15.12-.13-.84.37-1.77.37-2.65C1002.14,355.45,1002.12,349.75,1002.12,344.05ZM830.18,370.72h-6.73l12.89-7Zm10.33-3.1c-.58-.94-1.12-1.93-1.76-2.85s-1.51-2.09-1.68-2.33c.3-4.49.56-8.26.8-12l.73-.16c.13,2.54,1,5.34.23,7.6-1.14,3.42-.4,5.7,2.15,7.83.31.28.37.9.54,1.35C841.18,367.22,840.85,367.43,840.51,367.62Zm7.61-2.73-7.48-12.24.73-.43c2.69,3.88,5.38,7.79,8,11.68C849,364.23,848.55,364.55,848.12,364.89Zm14.25,49.74c-3.14.28-6.24,1.16-9.36,1.65-.41.07-1-.49-1.42-.79,4.08-1.77.79-3.57-.37-5.27.28-.15.5-.3.54-.3,5.61,6,12.67,2.75,19.15,3,.4,0,.77.39,1.14,1.61C868.82,414.56,865.57,414.33,862.37,414.63ZM827.65,434.2c.66,3.42,1.33,6.82,2.15,11.06l2.06-2.73c.69,2.56,1.29,4.81,1.94,7.31C828.89,446.36,827.41,442.76,827.65,434.2Zm25.92,145q-2.69-11.62-5.4-23.24l.81-.19q2.74,11.61,5.47,23.23C854.17,579.08,853.87,579.16,853.57,579.23Zm13-62.92c-.62-.93-2-2.84-3.16-4.87s-2.07-4.25-3.31-6.81c1.72,1.27,3.31,2.47,5,3.74,1-2,2.06-4.13,2.73-5.49C867.44,507,867,512.09,866.56,516.31Zm2.92,93c.31,2.36.57,4.19.82,6-2.92-3.93-2.82-5.44,1-11.29-.6,4,.43,7,4.3,8.52a.64.64,0,0,0,0-.07c1.4.61,2.82,1.19,4.09,1.73C876.63,615.54,875.29,615,869.48,609.28Zm7.12-4.93c-2.1,3.1-2,3.64,1.56,8.26-1-.09-1.85-.19-2.65-.26v0l-.07,0,0,0h.07c-.13-.26-.24-.51-.35-.75-.26-.56-.49-1.08-.68-1.59-1.62-4.26-.61-6.35,3.87-8.35-1.36,5.83,1.27,9.16,6.66,10.63C878.58,611.81,877.16,610.33,876.6,604.35ZM928.23,655c1.76,9.08,4.56,17.51,11.64,24C934.45,678.11,926.68,661.39,928.23,655Zm-2.93-3.87c-2.19-4-4.36-8-6.9-12.58C924,641.2,924.87,646,925.3,651.11Zm23.24-97.89,1,.28c-1.7,7.08-3.42,14.19-5.12,21.27l-1.08-.28C945.09,567.4,946.8,560.3,948.54,553.22Zm-7,26.48-8.69,10.48-1-.78L940.66,579Zm-8.79-80.6c-1.94,5.27,7.61,8.95,1.87,14.39-1.7-3.29-3.75-6.43-4.86-9.88C929.33,502.41,931.33,500.45,932.71,499.1Zm-1,39.25v15.92l-.75-.06V538.29Zm-4.58,58.56c1.57,1.29,3.25,2.69,5.18,4.3.24-.13,1-.52,2.19-1.1-.55,4-1,7.72-1.54,11.42-.37,0-.74-.1-1.14-.13.21-1.95.41-3.89.66-6.4-1.67,2.27-3,4-4.34,5.83l-1.06-.5c3.06-3.59,4.82-7.29,1.64-11.36-.54,2.75-1.08,5.59-1.64,8.41-.19-.06-.4-.1-.6-.15C926.73,604.05,926.94,600.86,927.18,596.91Zm-10.46,12.88a9.25,9.25,0,0,1,1.17-.81c.55.64,1.31,1.2,1.48,1.93.64,2.69,2,5.76,1.24,8.09-.55,1.76-3.89,2.64-6.23,3.46C920.14,617.1,920.14,617.1,916.72,609.79ZM889,442.35c2,.58,4.61.56,5.81,1.87,1.74,1.88,2.43,4.72,3.57,7.15l-1.63.49c-.76-5.66-.76-5.66-8.09-8.34C888.74,443.13,888.85,442.74,889,442.35Zm12,103.58a40.52,40.52,0,0,1,1.46,5.42l-2.54-2.05a7.1,7.1,0,0,1-1.25,2.11,6,6,0,0,1-2.26.67c-.17-.65-.71-1.53-.47-1.94,2-3.55.78-6.08-2-8.56-1.53-1.37-1.57-3,1-4,2.9-1.16,5.65-2.54,7.8-1.14v8.2c-1-.91-2-1.77-3-2.65l-.9.67A19.72,19.72,0,0,1,901,545.93Zm-6.09-27.54c1.14,1,2,1.79,3.22,2.91v-7.42l1-.09c.39,4.07.79,8.15,1,10.75l-9.1,5.77-.79-.73c1.16-2.26,2.32-4.5,3.63-7l2.19,1.36C895.64,521.79,895.3,520.31,894.87,518.39Zm2.38-6.06c-1.14-3.08-2.12-5.66-3-8,1.53.57,3.75,1.42,6.54,2.48Zm-8.17,101.1c3-.63,4.5,1.61,5.42,4.13.61,1.68.39,3.68.61,6.58Zm15.27,10.88c.89,1.4.52,3.59.8,5.4.17,1,.45,2,.71,3a.16.16,0,0,0-.09,0c-.71.43-1.42.84-2.15,1.25-.49-1-1.68-2.54-1.37-3,4.32-6.09-3.06-8.9-3.7-13.55-.07-.6-1.4-.95-1.6-1.61-1.37-4.28-4.3-6.55-8.62-7.73l5.07.46v-7h.43c.39,2.3.48,4.71,1.25,6.88.8,2.33,2.26,4.46,3.66,7.1,1.87-4.58,2.82-9.36,8.9-10.11C901.32,610.5,900.31,617.88,904.35,624.31Zm-4.94-129.82,1.11,2.61c.35-1.16.59-1.94.67-2.15,1.51,2.28,3.19,4.82,5.64,8.54l-10.65-6.37C896.74,496.65,898,495.63,899.41,494.49Zm6-143.64a2.29,2.29,0,0,1-.91,1.46c-3.74,2.95-7.5,5.87-11.53,9l-3.37-6.24.42-.45,4,3.47,9.12-7.12c.48-2.76,1.06-6.2,1.66-9.62l.69.17C905.41,344.63,905.45,347.73,905.37,350.85Zm33.51,2.94,4.41,3.32c-2.52-9.15-2.52-9.15,5.16-11.51-1.4,2.73-7.53.39-5.78,6.3,1.24,4.2,4.43,3.87,7.52,5.06-.15-1.1-.28-2.11-.47-3.55l6.62,8.94c.91-1.05,1.49-1.74,2.09-2.42,1.25,2.55,2.5,5.05,3.74,7.59C956.63,359.13,944.88,361.43,938.88,353.79Zm33.36,12L961,360.92c-.88-.39-1.72-.78-2.6-1.15v0c-2.49-2.84-5.07-5.65-7.5-8.56a4.86,4.86,0,0,1-1-3.35l2.64,3.78c.29-.08.59-.15.91-.21-.28-2.15-.56-4.28-.82-6.41.86,2.25,1.74,4.43,2.52,6.69,1.76,5.12,6.09,7.46,10.45,9.72,2.3,1.2,4.78,2,7.19,3C972.58,364.89,972.41,365.32,972.24,365.77Zm8,10.76c-1.76,2.33-2.9,5.14-4.24,7.62-.53-7.45,6.29-10.14,9.79-15.06l.84.75C984.48,372,982.07,374.06,980.24,376.53Z" transform="translate(-457.56 -192.87)"/><path class="cls-1" d="M1182.75,980.05c-.45-1.92-.56-4.82-1.5-5.12-2.87-.91-6.39-1.53-9.17-.67-4.21,1.29-8,3.92-12,6-.11-.22-.21-.45-.32-.67l8.5-5.38c-5.43.71-9.4,1.36-13.38,1.71-2.78.27-5.64-.22-8.37.17a27.83,27.83,0,0,1-15.71-1.92c-1.56-.69-2.66-2.45-4-3.72,2.28-.86.71-1.7,0-2.67-4.61-6.54-10.13-12.65-13.56-19.77-5-10.26-8.43-21.23-12.43-32-3.09-8.27-6-16.64-9-24.95-2.57-7.08-5.25-14.11-8.28-21-4.51-10.27-10.86-19.82-17-29.28-6-9.23-12.87-17.92-19.24-26.68-.12.11-.53.56-1.05,1.12-.73-5.33-1.38-10.11-2.08-15.14-.85,1-1.58,1.89-1.79,2.13-.67-3.51-1.44-7.1-2-10.73-.17-1,.32-2,.45-3,.21-1.46.88-3.12.39-4.32-2-4.91-4.18-9.75-6.54-14.52-1.38-2.75-3.74-5.1-4.71-7.94-1.68-4.92-2.43-10.13-3.94-15.1-.8-2.64-2.45-5-3.7-7.5h-.28c-1.91-4.05-4.28-7.62-4.11-12.72.26-7.72-.88-15.53-1.68-23.27-.38-3.53-1.71-7-2-10.5a87.31,87.31,0,0,0-13.2-38.44c-2.69-4.28-5.73-8.37-8.14-12.8-5.22-9.61-10.13-19.4-15.18-29.14-.65.62-1.25,1.14-2,1.82v-11.8c.23,0,.43,0,.66-.07.39,2.71.8,5.42,1.36,9.31,3.89-9.33-2.28-36.59-8.32-42.07,0,7.46.21,15.31,0,23.14-.51,16.52-3.5,32.87.28,49.54,2.35,10.41,2.39,21.32,6.35,31.5-1.06-2.72-2.13-5.47-3.46-8.91,0,6,.21,11.19,0,16.35-.51,10.41-1.14,20.84-1.93,31.23-.9,12-2,24-3,35.94a8.74,8.74,0,0,0,.84,4.44c2.43,4.77,5.35,9.31,7.63,14.13,5.08,10.73,9.86,21.59,14.8,32.37,3.19,6.93,8.95,12.63,9.88,20.67a37.08,37.08,0,0,0,1.69,6.93c3.23,9.89,7,19.62,9.71,29.64,2.84,10.28,4.51,20.82,12,29.26,3.93,4.43,6.84,9.74,10.58,14.37,3.18,4,7.55,6,13.29,6.88-.57,1.93-1.46,3.27-1.14,4.24.12.39.25.78.38,1.16,1.73,5.24,4,10.33,5.3,15.68,2.16,9.21,12,12.58,15.25,21,.82,2.13,3.45,3.62,5.42,5.19A80.4,80.4,0,0,1,1094,978.5c4,7.38,8.52,14.41,9.06,23.47.34,5.67,3.13,11.31,5.5,16.65.91,2.06,3.51,3.72,5.74,4.71,3.64,1.65,18.72-7.43,19.51-11.4,1.14-5.64,3.23-7.25,9.45-7.15,3.27.05,6.64.63,9.83.15,2.82-.43,5.48-2,8.19-3.07-.13-.5-.26-1-.4-1.47-1.86-.68-3.75-1.35-5.62-2,.09-.38.2-.73.32-1.11,3.19.51,6.41,1,10.11,1.57-1-1.7-1.68-2.87-2.66-4.54,6.75,1.63,14.54-1.34,17.16-6.78a9.19,9.19,0,0,0-.32-7.12c-.62-1.27-3.81-2.26-5.36-1.79-1.29.39-2.45,3.06-2.64,4.82-.45,4.24-2.35,5.4-6.58,4,.25-1.8.47-3.59.7-5.38l-.64-.28c-1.27,2.43-2.54,4.84-3.81,7.25-.26-.12-.51-.23-.77-.32.28-1.51.56-3,.94-4.93l-13.31,2.91c-.09-.39-.17-.78-.26-1.19l2-.42a82.82,82.82,0,0,0,21.08-7.62c.43-.24.88-.43,1.31-.62.2-.07.41-.17.63-.24a11.42,11.42,0,0,1,1.23-.36,6.91,6.91,0,0,1,5.55,1c.15.11.32.22.47.35a3.57,3.57,0,0,1,.56.49,5.44,5.44,0,0,1,.79.8,14.28,14.28,0,0,1,1,1.37S1182.75,980.09,1182.75,980.05ZM1008,721l8.24,13.68c.17-.69.32-1.4.49-2.09l1.27-.21q1.76,10.35,3.51,20.71h-.39l-5-18.52c.26,1.72.52,3.48.8,5.21l.51,3.31q-5-10.9-10-21.82A5.77,5.77,0,0,1,1008,721Zm10.15,23.64c-.14.12-.27.25-.42.36-.09-.64-.18-1.25-.29-1.89C1017.72,743.64,1017.94,744.16,1018.19,744.66Zm-33.32,15.68c-1.85-3.12-1.85-3.12,0-18.14Zm6.27,13.29a14.64,14.64,0,0,1-1.34-2c5.4,5.14,12.61,8.51,15.15,16.34.51,1.57,3.31,3.25,5.12,3.3,2.42.1,3.26-2.18,3.44-4.78.15-2,1.5-3.87,2.3-5.79.39.16.77.33,1.14.5-1.51,3.59-2.3,7.87-4.76,10.63-2.84,3.16-7,2.4-8.19-1.57C1001.76,782.82,995.89,778.77,991.14,773.63ZM1015.66,828l-13.51-10c.24-.33.49-.67.75-1l13.55,9.91Zm-1.55-34.1c2.71,6.22,5.74,7.49,12.48,6.35,1.82-.31,4,1.24,6,2.17,1.1.52,2,2.28,3,2.22,5.23-.33,3.12,1.78,1.47,3.87-.33.43-.56,1-1.29,2.23-1.21-1.46-2.33-2.41-2.91-3.61-1.57-3.29-3.23-5.48-7.7-4.9C1018.86,803,1014,798.84,1014.11,793.85Zm26.13,28.27a5.14,5.14,0,0,1-.75.38c-3.89-5.24-11.16-4.88-15.44-9.29a99.9,99.9,0,0,1-6.69-8.41l1.14-.86c1,1.63,2,3.23,2.94,4.86,2.3,3.85,5.94,5.46,10.07,6.8,3.38,1.1,6.41,3.33,9.59,5C1040.82,821.13,1040.52,821.62,1040.24,822.12Zm6,33.17q7,11.67,14,23.35c-.35.18-.71.37-1.08.54q-6.91-11.67-13.88-23.36Zm-1.85,34.05c.23,0,.43-.09.64-.13,1.92,6.95,3.83,13.92,5.85,21.21-.83-1-1.48-1.85-2.83-3.53a.72.72,0,0,0,.19,0C1046.91,900.56,1045.67,895,1044.44,889.34Zm30.69,56.33c-7.05-9.25-13.68-18-20.34-26.73.21-.13.42-.26.62-.41,6.73,8.08,13.49,16.11,20.15,24.24C1075.89,943.18,1075.35,944.32,1075.13,945.67Zm.73-34.35-4.44-9.63-9.49-20.55,1-.49,9.48,20.54,4.44,9.64C1076.57,911,1076.21,911.15,1075.86,911.32Zm1.27,3.42c.35-.21.73-.39,1.08-.6L1095,967.87l-1.06.34Q1085.51,941.46,1077.13,914.74Zm25.5,78q-4.47-11-9-21.92l1.36-.57q4.52,11,9,21.91Zm15.4.37c-1.32-3.92-2.67-7.83-4-11.74l1.2-.46q2.36,5.71,4.69,11.47Zm6-9.46c-2.67-3.34-5.36-6.71-8-10.05,3.83,2.39,7.86,4.62,9.28,9Zm58.7-3.45a1.74,1.74,0,0,1,0,.22.49.49,0,0,1,0-.09S1182.81,980.18,1182.77,980.15Z" transform="translate(-457.56 -192.87)"/><path class="cls-1" d="M631.56,993.21l.09.07,0,0S631.59,993.23,631.56,993.21ZM814.94,716.69l-18.15,15.58c-.37-.39-.73-.76-1.08-1.16.82-.84,1.59-1.73,2.47-2.5,5-4.35,10.2-8.61,15.15-13.08a5.34,5.34,0,0,0,1.61-3.76c-.3-4.89-1.18-9.75-1.42-14.65-.56-11.58-1.33-23.17-1.18-34.74.24-17.47,3.93-35-2.86-52.59-3.31,5-6.41,10.17-9.94,15-11.21,15.34-19.34,32-22.61,50.89a9.44,9.44,0,0,1-.92,3.38c-11,17-13.79,36.14-14.5,55.82a18.57,18.57,0,0,1-1.38,7.33c-2.53,5.23-5.57,10.22-8.34,15.17v-5.18c-7.43,7.81-14.44,15.07-16.65,25.51a4,4,0,0,1-.95,1.95c-5.29,5.13-11,9.92-15.89,15.43-5.62,6.32-10.48,13.33-15.75,20-11.66,14.71-21.81,30.22-26.46,48.7-.55,2.2-1,4.41-1.52,6.62-.81,3.73-1.61,7.46-2.69,11.11-2.93,10-6.57,19.74-9.25,29.76-1.79,6.72-2.44,13.77-3.58,20.66l1.36.3c.8-2.67,1.59-5.34,2.39-8l1.07.31a27.75,27.75,0,0,1-1.33,5c-5.23,11.1-5.68,24.13-13.64,34.14a3.16,3.16,0,0,0-.64,2.11,24.84,24.84,0,0,0,1,3.67c.84-.86,1.7-1.72,2.52-2.6,1-1.05,1.94-2.09,2.93-3.12-1.21,5-2.91,6.13-7.08,7.74a26.46,26.46,0,0,0-8.67,5.15c-2.64,2.51-5.18,3.83-8.75,3.14-.32-.07-.73.26-1.34.51.61,1,1.12,1.79,1.64,2.61-5.42,1.85-7.4,6.75-4.71,12.41l8.37-11.47a26.12,26.12,0,0,1,4.26,1.38,7.94,7.94,0,0,1,2.14,1.72,44.66,44.66,0,0,0-5.67,2.92,21.56,21.56,0,0,0-3.19,3.4c3.68,1.06,6.87-.17,10.07-2a62.46,62.46,0,0,1,7-3c.06.24.13.5.21.76L640,995.58c2.3.69,5.61.69,6.36,2.08,2.41,4.5,3.77,3.14,5.57-.15a27,27,0,0,1,2.2-3.12c.17-.23.52-.34,1.2-.75v5.23c2-2.26,3.45-3.79,5.64-6.18-.71,2.48-1.08,3.83-1.51,5.36l3,1.83c.9-1.46,1.66-2.73,2.78-4.58.17,2.64.17,4.32.41,6s.75,3.24,1.13,4.86c-.3.08-.62.13-.94.19-.69-1.2-1.4-2.41-2.26-3.89-1.78,5.44-2.92,5.64-6.95,1.91-2.15-2-5.08-4-7.12-.92-1,1.5.07,5.16,1.31,7.16,1.66,2.63,7.56,3.61,9.21,2.24,3.76-3.14,3.76-3.14,5.08,2.79,2.51-3.35,5-5.91,6.43-9,.62-1.27-1-3.55-1.49-5.4a5.52,5.52,0,0,1-.23-2.2c1.18-7.57,2.43-15.12,3.66-22.69l1.22.24c.37.86.75,1.71,1.53,3.54.84-4.1,1.91-7.12,2-10.21.54-13.43,4.86-25.43,12.26-36.66,5.79-8.79,10.8-18.13,16-27.29,2.27-4,4.38-8,6.52-12.1.48-.92,1-1.84,1.46-2.75.21.07.41.17.62.24-.34,1-.67,2.06-1,3.08-.25.8-.51,1.6-.76,2.4l1,.58c.47-.69.94-1.39,1.4-2.09,3.6-5.38,7.13-10.82,11-16,5.83-7.94,8.95-17,12.15-26.18a366.07,366.07,0,0,1,14.91-35.77c2.15-4.56,6-8.47,9.68-12.11,4.3-4.3,9.37-7.81,13.78-12,3-2.78,5.34-6.13,8.31-9.62-2.15-1.09-3.51-1.78-4.91-2.47-2.54,6.62-10.19,11.62-15.72,11a8.15,8.15,0,0,0-5,1.18c-2.77,1.7-5.25,2.63-7.94.11,3.19,1.14,5.64.24,7.86-2.3a5,5,0,0,1,3.69-1.12c9.25.88,15.45-4.65,15.17-13.66a6.63,6.63,0,0,1,.47-1.85c.32,0,.61-.07.93-.09l1.68,5.17c3.7,2,6,.23,7.89-3a21.39,21.39,0,0,1,4.2-5.12c11.29-10,16.88-23.38,20.79-37.36C816.17,728.78,814.94,722.76,814.94,716.69ZM686.89,847.46q-4.42,12.67-8.84,25.3c-.37,1.07-.74,2.15-1.12,3.22.19-1.19.4-2.38.62-3.56C679.21,863.59,681.9,855.12,686.89,847.46Zm-20.2,128.67a37.29,37.29,0,0,1,.28-4.37,30.39,30.39,0,0,1,1.1-3.72C670.78,970.58,670.78,970.58,666.69,976.13Zm.3-64.23c-.75-2.64,7.47-23.51,13.23-30.85ZM701.32,906c-.21.38-.39.77-.6,1.14a2,2,0,0,1-.21.3c-1.73,5.72-3.55,11.4-7.79,15.77,1.76-3.92,3.46-7.88,5.31-11.75a33.93,33.93,0,0,1,2.48-4,2,2,0,0,0,.13-.39l.68-1c2.5-4.81,5-9.61,7.54-14.4l.72-1.37,1.36.79-.82,1.28C707.18,896.87,704.26,901.45,701.32,906Zm39.82-125.77c-1,5.93-1.77,10.92-2.67,16.38C735.4,790.6,739.05,786,741.14,780.24Zm-10.09,74.49-1-.44q5.77-12.51,11.53-25c.33.17.67.32,1,.47Q736.85,842.22,731.05,854.73Zm14.26-28.92-.94-.64q3.87-5.46,7.72-10.93l.94.63Q749.19,820.35,745.31,825.81Zm18.57-29.06c-2.41,5.86-6.13,7.81-11.86,7.4-1.48-.1-3.16,1-4.51,1.88s-2.46,2.3-4.18,2.94c1.23-1.52,2.39-3.1,3.73-4.49.9-.91,2.21-2.35,3.09-2.2C755.92,803.31,760.22,801.06,763.88,796.75Zm11.7-56.16c-6.2,1.33-8.28,6.95-10.76,11.44-2.88,5.15-4.67,10.44-9.89,14.35-3.7,2.76-6.54,7.47-4.28,13.42.79,2.07-.88,5.06-1.64,8.67-1.14-1.33-2-1.93-2-2.36.85-5,1.18-10.28,3-15,1.26-3.17,4.73-5.45,7.07-8.24a38.68,38.68,0,0,0,3.72-5.38c3.85-6.6,7.6-13.27,11.55-20.18,1.79,1.4,2.57,2,3.42,2.65C775.77,740.12,775.73,740.57,775.58,740.59Zm10.9-3.64c3-4.9,5.57-9.11,8.33-13.61C794.7,729.45,791.26,733.17,786.48,737Z" transform="translate(-457.56 -192.87)"/><path class="cls-1" d="M782.58,328.26l.11.09a75.2,75.2,0,0,0-22-18.41c-7.59-4.14-14.92-9.3-23-11.75-12.71-3.83-25.68-7.57-39.34-6.93-1.5.07-3.4-1.16-4.54-2.34-6.13-6.26-11.66-13.17-20.09-16.63-5.65-2.32-12-3.61-16.88-7a68.44,68.44,0,0,0-27-11.13,74.93,74.93,0,0,0-12-1.13c-15.72-.22-28.8-7.36-42.63-12.8-2.75-1.07-5.36-2.58-8.21-3.22-7.1-1.58-10.29-4.5-11.75-11.86-1.18-5.91-4.52-9.74-10.07-12a17.19,17.19,0,0,1-5.38-3.77c-2.55-2.47-4.6-5.5-7.26-7.81a11.38,11.38,0,0,0-6.11-2.88,92,92,0,0,0-12.85.26,34.48,34.48,0,0,0-4.94,1,31,31,0,0,0,4.21,3.53,9.92,9.92,0,0,0,3.9.82c3.59.43,7.2.79,9.53,1,1.72,2.84,2.45,5,3.93,6.23s3.61,1.42,4.76,1.81l-5,3.32c4.2,5.72,8.74-.5,12.61,1.74-.78.26-1.57.53-1.7.56l9.62,5.89c-.28.52-.56,1-.84,1.55-4.22-3.9-9.17-5.1-14.72-4.86a9.58,9.58,0,0,1-5.76-2.05c-6-4.68-13.14-3.12-19.92-4.51.5,6.38,3.66,8.38,14.18,9.68,0,.68.1,1.37.13,2.06-4.29-1.22-9-1.72-12.76-3.83-6.52-3.63-12.48-8.28-18.78-12.58-1.79,3.87-1,6.47,2.69,9.16,4.6,3.34,9.21,6.69,14.09,9.58,3,1.82,6.54,2.75,9.79,4.21.66.28,1.57,1.53,1.46,1.7-.58.82-1.46,2-2.24,2a13.26,13.26,0,0,1-5.18-1c-4.76-2-9.42-4.26-14.2-6.26-.82-.33-2,.13-3,.23a10.3,10.3,0,0,0,.64,3.1c.37.69,1.36,1.08,2.13,1.53,11.19,6.58,22.4,13.12,33.6,19.72,1.38.82,2.5,2.16,4,2.82,4.06,1.87,8.2,3.57,12.37,5.21,1.74.68,3.78.77,5.42,1.63,4.43,2.33,8.54,5.31,13.08,7.36,5.63,2.54,11.55,4.39,17.34,6.54l1-1.62-14.34-10.77c4.71,2.28,9.39,4.71,13.2,8.08,5,4.39,10,8.77,15.25,12.83a119.19,119.19,0,0,0,14.87,10c10.9,6.13,21.7,12.54,34.37,14.52a49.29,49.29,0,0,1,8.28,1.72c6.67,2.26,11.9,8,20.55,5.49,3.89-1.14,9.25,2.54,13.87,4.26,9.46,3.54,18.61,8.26,28.37,10.45a44.48,44.48,0,0,1,18.52,8.93,14.88,14.88,0,0,0,1.83,1.27c8.24,4.92,10,4.64,16.82-1.87-3.27-1.94-6.58-3.92-10.15-6.07.62-.22.79-.35.9-.32a4.3,4.3,0,0,1,1.25.43c6.69,4.73,13.4,4.49,20.78,1.2,4.49-2,9.64-2.49,14.76-3.72C783.42,331,783,329.64,782.58,328.26Zm-248-94.19c-.37.49-.75,1-1.12,1.5L523.83,227C528.35,228.06,531.55,231,534.63,234.07Zm.24,12.13c-6-4.24-8-8.54-5.44-11.68,0,6.79,13.24,16.19,20.39,13C547.94,250.84,540.55,250.18,534.87,246.2Zm36.33,16.56L560.49,255c.21-.39.41-.8.6-1.19,3.16,1.12,6.3,2.24,9.46,3.34-.06.23-.11.45-.17.67-.86-.11-1.72-.24-3.35-.44,1.87,2,3.22,3.45,4.58,4.91Zm48.4,13.68c.06-.24.11-.49.17-.73l5.4,1.51.67-.84-10.13-8.47-4.07-3.41c.09-.17.21-.34.32-.51l4.34,3.31c7.47,5.72,14.88,11.39,21.92,16.76Zm106.75,51.05h0c-1.5-.67-3-1.32-4.47-2-9.7-4.39-19-9.3-25.41-18.65,7.75,9.27,18.35,14.21,28.94,19.18a10.45,10.45,0,0,1,2.66,2.22Zm3.4,1.52-1.29-.4c-.11-.11-.24-.2-.36-.31a0,0,0,0,0,0,0v0l.52.23,1.23.54Zm13.79,5.88L729.88,329c4.76,1.42,9.49,2.84,14.26,4.25C743.93,333.83,743.74,334.35,743.54,334.89Z" transform="translate(-457.56 -192.87)"/><path class="cls-1" d="M1292.45,194.41a11.47,11.47,0,0,0-3.11,0c-10.46,3.31-22.22,3.5-30.35,12.5a8.52,8.52,0,0,1-2.72,1.5c-8.9,4.24-17.59,8.56-22.28,18.2-1.06,2.21-4.24,3.7-6.76,4.84-8.6,3.94-17.29,7.74-26.06,11.31-7,2.84-14,5.85-21.22,7.72-3.7.94-7.44,1.72-11.2,2.44-6.74,1.31-13.52,2.45-20.2,4.06-4.37,1.05-8.39,3.59-12.52,5.57-3.85,1.83-7.64,3.85-11.49,5.72-3.18,1.55-6.77,2.52-9.55,4.57-6.79,5-13.18,10.49-19.74,15.8.23.59.41,1.19.62,1.79q-5.58.56-11.14,1.21c-3.83.43-7.77.71-11.4,1.87-8.18,2.62-16.42,5.25-24.22,8.81-9.28,4.24-18,9.62-27.21,14.2-6.48,3.23-11.38,8.15-16.12,13.58,2.93.53,5.81,0,8.37.62,8.48,2.19,16.84,4.82,25.26,7.21,1.8.51,3.72.64,5.52,1.14,2.24.64,5.57.86,6.43,2.38,2.35,4.15,6.09,5.32,10,2.58a129.89,129.89,0,0,1,15.31-9.65c8.56-4.37,17.34-8.31,26.18-12.11,5.4-2.33,10.76-4.52,17.1-4,4.11.36,8.61-.75,12.56-2.22,8.5-3.16,16.5-7.83,25.15-10.32,10.69-3.1,19.64-8.87,28.74-14.74q6-3.85,12-7.61,9.48-5.86,19.16-11.36c5.46-3.1,11.64-4.95,17.27-7.79,4.76-2.41,8.67-7.07,15-4.24.93.41,2.63-.45,3.79-1.07,2.26-1.23,4.34-2.84,6.62-4.06,6.61-3.58,10.78-10,7.34-16.74a7,7,0,0,1-.2-2.78l1-.17,2.73,13.17c1.29-1.45,2.36-2.54,3.27-3.75,3.76-4.88,1.4-9.83.26-14.86-1.43-6.24-1.32-6.26-7.68-4.47,2.77,11.2-7.53,13.85-12.91,19.57-2.88,3-11.34,4.88-13.88,3.59.91-.49,1.68-.88,2.44-1.27,0-.28-.11-.56-.16-.84-2,.07-4.08.16-6.26.28.07-1.14.15-2.19.22-3.22l3.12,1.61v-1.72l13.36-3.74c-1.49,2.1-2.43,3.4-3.34,4.71,5,.45,14.56-10.45,14.63-18.16l-7.44,10.74c-.37-.26-.76-.5-1.14-.75l3.35-5.26c-1.5-.3-2.58-.55-3.25-.68,1.38-1.64,2.65-2.95,3.7-4.45.71-1,.82-3.08,1.62-3.32a54.22,54.22,0,0,1,11-2.36c3.55-.3,8.26-3.3,9.68-7.1l-4.67,1.57c-.1-.24-.19-.5-.28-.75l3.79-2.93-8.11.67c.9,1.42,1.36,2.17,1.85,2.94-.3.24-.6.5-.9.76l-3.77-4.29c-6.64,3-13.85,6.29-21.05,9.56-.18-.43-.35-.87-.54-1.3l3.76-1.93c-.11-.24-.23-.5-.34-.77-1.9.49-3.81,1-5.94,1.56,3.57-5.67,13.08,1.38,14.31-6.62,3.14-.58,5.91-1.07,8.68-1.61,4.89-.95.85-6.3,4.2-8.29.64,3.47,2.6,3.77,5.48,2.48,3.08-1.38,6.41-2.19,9.41-3.68C1289.92,199.21,1293.36,198.59,1292.45,194.41ZM1048.2,334.84c-.15-.41-.32-.82-.49-1.23q11.91-4.51,23.79-9C1064.27,329.33,1056.76,333.39,1048.2,334.84Zm31.08-14.52,18-16.31C1092.45,310.72,1087.27,317.31,1079.28,320.32Zm31.33-30.93a10.18,10.18,0,0,0-2-.22l-11.75,1.18,13.77-2.34C1110.63,288.48,1110.63,288.93,1110.61,289.39Zm59.13-21.11c-2.58,2.54-5.14,5.1-7.72,7.68l-.78-.81c2.84-2.29,5.66-4.59,8.5-6.87,1-1.07,2.11-2.11,3.16-3.16l.34.32C1172.08,266.37,1170.9,267.32,1169.74,268.28Zm5.55-5.5a14.22,14.22,0,0,1,1.79-1.93c4.57-4.1,13.28-8,14.64-6.4l-14,7.07Z" transform="translate(-457.56 -192.87)"/><path class="cls-1" d="M891.52,710.17c3.4-12.47,3.78-25.44,4-38.18-4.26-.81-8.77-.49-11.55-2.51s-3.48-6.33-5.14-9.68a1.62,1.62,0,0,0-.62.53,79.18,79.18,0,0,0-4.09,6.93,113.33,113.33,0,0,1-34.25,41.67c-7.59,5.7-14.51,11.91-19.31,20.15-1.1,1.87-2.05,4.37-1.77,6.41,1.34,9.72,2.78,19.45,4.91,29,2,8.84,3.57,18.18,7.81,26,4.49,8.28,1.12,16.22,2.26,24.12-1.12-7.25.84-15.06-4.26-21.47q-3.64,29.8-7.27,59.43c7.46,3,4-4.45,6.88-6v7.06l17.62-.89c-4.69-7.22-5.31-11-3-16.45-1.08,12.24,3.08,16,10,16.71,9.81,1,13.38-3.87,14.67-14-1.12,1.33-2,2.36-2.82,3.38-.39-.24-.79-.46-1.18-.69,1-1.85,2-3.72,3.14-5.55.79-1.32,1.85-2.5,2.54-3.88,2.71-5.42,1.12-10.81-.59-16,1.85,1,3.55,2,5.23,3,.52-2.36,1.14-4.69,1.55-7.05.28-1.59-.09-3.36.48-4.78a48.36,48.36,0,0,0,3-26.39c-2.77-16.5-2-32.89-1.37-49.39a58,58,0,0,1,.83-5.81l.42.11v20.8C883.71,734.37,888.19,722.43,891.52,710.17ZM831.89,828.76c1,4.22,2.22,9.83,3.34,14.82C832.17,842.74,830.26,835.37,831.89,828.76Zm12.63-10.24a42.18,42.18,0,0,0,1.74-5,27.2,27.2,0,0,0,.07-4.95c2.86,7.79-5.6,15.58.77,23.34C843.49,829.39,842.65,824.16,844.52,818.52Zm7.64,21.79c-.16-1.69-.87-3.33-1.77-6.45,1.62,2,2.88,3.16,3.64,4.56s.94,3,1.55,5.12C853.25,843.93,852.43,842.79,852.16,840.31Zm11.7-67c2.47-6.06,4.94-12.11,6.73-16.54C869.32,761.41,869.15,768.34,863.86,773.35Z" transform="translate(-457.56 -192.87)"/><path class="cls-1" d="M959.69,745.28a105.74,105.74,0,0,1-9-9.42q-1.39-1.67-2.68-3.4c-5-6.78-10.12-13.51-14.73-20.52-.71-1.08-1.41-2.16-2.09-3.25a121.89,121.89,0,0,1-7.41-13.56c-.81-1.76-1.57-3.54-2.28-5.36-.47-1.21-.91-2.44-1.33-3.68s-.81-2.5-1.17-3.77-.69-2.56-1-3.87c-.07-.32-.16-.63-.26-.94a30.59,30.59,0,0,0-1.51-3.7c-.43-.93-.87-1.86-1.27-2.83-4.88,2.65-9.08,2.11-13.35-.43-1.35-.8-2.42-.87-3.11-.22a2,2,0,0,0-.42.55c0,.08-.07.15-.11.24a3.66,3.66,0,0,0-.18.53,7.3,7.3,0,0,0-.19,1.37c-.66,13.79-1.39,27.54-4.28,41.18-3,14.26-1.14,28.69,1.29,43,.08.49.17,1,.25,1.48.2,1.19.4,2.38.59,3.58.35,2.14.68,4.27.93,6.41l.15,1.28A68.5,68.5,0,0,1,897,778c0,1.3,0,2.59-.09,3.89s-.11,2.59-.19,3.89c-.31,5.18-.81,10.36-1.18,15.54-.09,1.3-.18,2.6-.25,3.89s-.14,2.59-.18,3.89a68,68,0,0,0,1.27,16.8,204.2,204.2,0,0,0,6.82,22.54c.53,1.55,2.53,3.49,4,3.66,4.56.47,9.21.17,14.13.17v-5.72c.17,5.38,3.31,6.3,7.79,5.77a30.62,30.62,0,0,1,7.16,0c1.31.15,2.49,1.13,3.75,1.76h0l.35.22c2.22-6.45,4.78-12.8,6.54-19.36a58.43,58.43,0,0,0,1.46-13.17c0-.65,0-1.3,0-1.95s-.09-1.46-.14-2.19c0-.07,0-.13,0-.18-.09-1.07-.2-2.15-.27-3.22,0,0,0-.1,0-.15a22.06,22.06,0,0,1,.07-4.74c0-.36.1-.72.14-1.08.08-.73.15-1.46.2-2.19s.11-1.46.16-2.19a33.39,33.39,0,0,1,1.35-8.12q.18-.52.39-1l.22-.52c.15-.34.32-.69.51-1s.38-.68.59-1,.41-.68.6-1,.36-.71.53-1.08c.25-.55.48-1.11.69-1.69.64-1.73,1.13-3.54,1.65-5.29,2.47-8.25,4.71-16.56,7.18-24.8C963.64,753.47,963.9,749.2,959.69,745.28Zm-33.24,96.56c-.34.06-.69.12-1,.16a2.17,2.17,0,0,1-1.23-.07.69.69,0,0,1-.13-.11h0c-.47-.53-.92-1.07-1.33-1.62,0,0,0,0,0,0-.28-.37-.54-.74-.79-1.12a13,13,0,0,1-2.22-8A14.54,14.54,0,0,1,920,829v0c.22.88.43,1.69.63,2.44,0,0,0,0,0,0,.21.75.41,1.43.6,2.07a16.82,16.82,0,0,0,2.64,5.66,8.29,8.29,0,0,0,.69.75,9.88,9.88,0,0,0,2.89,1.78A9.84,9.84,0,0,0,926.45,841.84ZM931,817.23c0,.12-.06.25-.1.37a3.86,3.86,0,0,1-.19.54c-.07.19-.16.38-.25.57a13.38,13.38,0,0,1-1.8,2.75,13.84,13.84,0,0,1-1,1.07,14.51,14.51,0,0,1-2.44,2c-.23.15-.46.29-.69.41l-.34.17a5.45,5.45,0,0,1-1,.36,3.25,3.25,0,0,1-.59.09,12.66,12.66,0,0,1-4.29-.41c-3-.88-4.9-3.1-5.51-6.79q-.54-3.24-1.07-6.49c-.44-2.71-.86-5.43-1.22-8.14-.14-1.08-.28-2.17-.41-3.26s-.25-2.18-.35-3.27c-.16-1.63-.29-3.26-.39-4.9a42.54,42.54,0,0,1,.44-9.27,39,39,0,0,1,1.08-4.79c.16-.53.32-1,.49-1.56a42.43,42.43,0,0,1,6.29-11.93c.17-.22.33-.45.49-.68.46-.7.89-1.42,1.29-2.17,0,0,0,0,0,0,.78-1.5,1.45-3.09,2.1-4.7l.65-1.61c.43-1.08.87-2.14,1.34-3.18h0l.1,0,.75.29h0c-.24.55-.48,1.1-.7,1.66-.46,1.11-.89,2.23-1.33,3.35a41.45,41.45,0,0,1-3.88,8c-8.81,13.2-10.6,26.78-3.7,41.3a3.18,3.18,0,0,1,.27.89,7.44,7.44,0,0,1,0,2v0c-.45,4.21-2,8.43,1.56,12.26,1.66,1.79,3.67,2.63,5.53,2a4.6,4.6,0,0,0,1.55-.88,3.81,3.81,0,0,0,.37-.34l.88-.89c1.44-1.49,2.82-3,4.3-4.51.58-.58,1.18-1.14,1.81-1.68a4.74,4.74,0,0,1-.13,1.16Z" transform="translate(-457.56 -192.87)"/><path class="cls-1" d="M907.09,1066.09c-1.5-6.95-6.58-9.77-13.07-11.6.4,1.7.66,3,.94,4.18-.23.1-.45.17-.67.26l-4.62-9.38c1.53.64,2.15.88,3.61,1.48-3.7-7.08-7.07-13.55-10.43-20,.32-.17.62-.31.93-.46.79.91,1.55,1.85,2.32,2.76-3.89-12-9.79-23.12-13.14-35-3.38-12-4.22-24.8-6.18-37.24l1.34-.21c.9,7,1.78,13.9,2.68,20.87l1.58-.2c-.65-5.7-1-11.46-2.07-17.08-.64-3.46-3.23-6.64-3.49-10.06-.4-5.07-.67-10.15-.89-15.23-.3-6.73-.51-13.47-.8-20.2l1-.07q.69,10.19,1.34,20.39l0,.41.26-.39a9.25,9.25,0,0,0,1.63-4.14A81.73,81.73,0,0,0,866.12,899c-3.83-11.61-7.49-23-4.2-35.57l-2.69-.5V855.2h-6.92c-.2,1.53-.39,2.84-.56,4.09-1.94-1.58-3.51-4-5.29-4.13-5.4-.52-10.89-.18-16.8-.18.43,2,.68,3,1.07,4.82-2.47-1.81-2.69-6.56-6.5-3.89.56,2.84,1.08,5.51,1.62,8.17l-1.38.28c-.26-1.27-.45-2.58-.82-3.83s-.94-2.54-1.74-4.66c-7.44,25.91-11.46,51.16-5.44,76a99.72,99.72,0,0,0,8.8,23.17c-.63-6.11-1.29-12.22-1.92-18.31a18.49,18.49,0,0,1,2,7.06c1.15,8.41,2.22,16.82,3.49,25.21a29.58,29.58,0,0,0,2.09,7.76c4.13,8.87,8.17,17.83,12.9,26.37,3.83,6.87,9.27,13.19,9.3,21.37.06,7-1.85,14.1,0,21.2.17.61-1.06,1.49-1.49,2.33-1,2-3.31,5.2-2.71,5.89,2.67,3.1.71,6.35,1.21,9.44a9.34,9.34,0,0,0,1.18,2.39c1.38-1.61,2.56-3,4.52-5.33-.8,5.52-.43,9.07,4.17,11-1.31-7.36-1-10,1.05-11.85.33,7.1,2.11,10.9,6.28,13.16-.66-4.94-1.31-9.66-2-14.41l2.06-.56a29.42,29.42,0,0,1,2,4.93c.39,2,0,4.23.49,6.23.41,1.75,1.53,3.34,2.46,5.28,1.42-1.1,2.42-1.85,3.42-2.61l-1.19-.51c.47-2,.88-3.94,1.46-5.86.61-2.08-2-5.8,3.27-5.82,0,4.15-.34,8.32.16,12.37.21,1.54,2.32,3.84,3.7,3.93a7.62,7.62,0,0,0,5.65-2.52c.8-1-.1-3.57-.53-5.37-.48-2.11-1.32-4.13-1.77-6.24a8.28,8.28,0,0,1,2.62-1c1.6,2.77,5.4,4.53,4.29,8.62.88-1.08,1.76-2.15,3.41-4.19v4.36C900.3,1068.18,903.7,1067.14,907.09,1066.09ZM862.82,893.21c.86,7,1.7,14.09,2.54,21.16h-1.27c-.64-7-1.25-14.06-1.89-21.08C862.41,893.25,862.61,893.23,862.82,893.21Zm-32-29.75q2.25,13.2,4.49,26.39l-1,.15q-2.22-13.18-4.47-26.35C830.17,863.57,830.51,863.52,830.82,863.46Zm-9.06,39.66q1.17,11.4,2.35,22.81l-1.14.28q-1.2-11.46-2.41-22.94Zm16.74,81c.9-18.13-8.91-33.25-12.14-50.3-.13-.68-.25-1.37-.36-2.06l.72,2.12c2,5.9,4,11.82,6,17.72l1.1-.19c-.7-5.52-1.27-11-1.67-16.56a230.83,230.83,0,0,1,.4-40.62c.43,13.84.31,27.43,1.23,40.9.09,1.41.2,2.82.32,4.23,1.29,14.9,4,29.64,6.13,44.46C839.64,983.9,839.06,984,838.5,984.11Zm13.38,31.09q-3.52-9.72-7.06-19.43.39-.16.78-.3l7.52,19.34Zm4,37.36c-3.49-1.83-3-5.23,3.87-15.47C858.44,1042.32,857.15,1047.55,855.88,1052.56Zm10-12.73v-9.92l.56-.11q.62,4.93,1.24,9.87Z" transform="translate(-457.56 -192.87)"/><path class="cls-1" d="M1244.51,365.72l-19.21,1.56c0-.22,0-.44-.06-.69,6.34-.76,12.68-1.55,19-2.31,0-.56,0-1.13,0-1.69l-2.13-1.23c3.07-1.63,4.07-6.83,2.67-12.73-.11-.45-.23-.92-.37-1.38l-.4,0c-12.53.6-25,1.31-37.4,1.66-3.78.12-7.59-.8-11.37-1.36-3.51-.52-7-1.65-10.54-1.72-9.92-.24-19.92.39-29.82-.22a81.25,81.25,0,0,0-38.2,6.39c-.54.22-.67,2.16-.41,3.16.13.52,1.51.72,1.68.78-1.21,1.44-3.06,2.62-3.08,3.83-.19,7.1.32,14.24.09,21.36-.17,4.67,2.75,5.46,6.11,5.83,6.51.71,13,1.33,19.55,1.76,7.23.47,14.59,1.68,21.68.75,11.28-1.48,22.4-4.38,33.56-6.86,3-.68,5.81-2.71,8.8-3,11.51-.89,23.08-1.34,34.63-1.9,5-.24,5.53-.84,4.32-6.43l-15.83,2.19c5-2.08,10.07-3.2,15.06-4.6C1243.54,368.71,1243.84,367,1244.51,365.72Zm-95.62.59c10.72-6.11,22.33-3.7,33.71-3.87C1171.31,363,1159.8,361.21,1148.89,366.31Z" transform="translate(-457.56 -192.87)"/><path class="cls-1" d="M675.05,376.94c-.6-8.9-1.37-17.77-2.22-26.63a4.15,4.15,0,0,0-2.08-2.91,44.3,44.3,0,0,0-20.09-3,195.89,195.89,0,0,1-19.83,1c-2.69,0-5.36-1.82-8.07-1.85-12.18-.15-24.41-.69-36.27,3.29-2.67.87-5.83.24-8.73.54s-6-1.5-7.47,1c-4.71-2.19-9.39-2.24-14-1.81-1.86.17-3.7.42-5.55.63,0,2.39.06,4.45,0,6.51,0,1-.09,2.08-.14,3.12-.23,4.43-.53,8.88-.46,13.32,0,1.61,1.4,4.37,2.54,4.58,5.57,1.05,11.29,1.42,17.37,2.07v-7.14c.41-.33.8-.67,1.19-1-.45,10.24,6.37,9,12.37,9.23a13.83,13.83,0,0,1,5.18,1.16,94.81,94.81,0,0,0,36.65,8.67c14.27.46,28.64-1.44,42.94-2.68C675.11,384.42,675.48,383.67,675.05,376.94Zm-121.68-7.66c.55-2.79,7.29-4,11.7-1.44Z" transform="translate(-457.56 -192.87)"/><path class="cls-1" d="M886,637.84a222.88,222.88,0,0,1-28.26,50c-6.61,8.92-14.87,16-23.54,22.86-5.89,4.63-10.67,10.63-16,16.09,1.48-3.16,2.94-6.3,4.39-9.46A4.54,4.54,0,0,0,822,717c-1.12,1.71-2.24,3.45-3.55,5.47-2-4.82-2.67-9,1.24-13l-2.17,1.27c-.3-.38-.77-.69-.79-1-.48-7.57-1.3-15.14-1.29-22.71,0-16.76.62-33.5.66-50.25,0-3.17,1.06-4,3.77-3.9,10.94.2,21.87.5,32.8.52,10.09,0,20.18-.37,30.27-.26C885.28,633.14,888.1,632.56,886,637.84Z" transform="translate(-457.56 -192.87)"/><path class="cls-1" d="M1104.67,350.35c-7.83-2-16.09-3.57-24.11-3.42-11.9.23-23.86-.07-35.39,5.29-7.75,3.59-16.74,4.39-25,7.66-10.87,4.36-19.69,16-16.29,27.89,8.93-.92,17.6-1.09,26-2.84s16.54-5.12,24.8-7.78c.08.13.13.28.21.41-2.43,1.11-4.88,2.19-8.28,3.7,4.39.49,7.66.6,10.84,1.22,12.2,2.33,24.46,2.17,36.76,1.08,6-.52,12-.86,18.46-1.31.22-5.23.32-11.32.82-17.38C1114.15,357.23,1112,352.24,1104.67,350.35Zm-46.53,26.2c-.06-.43-.13-.86-.19-1.29l32.37-2.41c0,.32.06.66.07,1Z" transform="translate(-457.56 -192.87)"/><path class="cls-1" d="M779.91,385.65c0-4.41.13-9.4,0-14.39-.38-13.12.63-11.36-12.15-13.25-6.9-1-13.9-1.89-19-7.7-.65-.77-2.09-.92-3.21-1.23-10.39-3-21.06-2.54-31.57-1.61-9.12.8-18.12,2.88-26.07,8.24-3.23,2.17-7.21,3.27-10.85,4.86-.1-.24-.19-.49-.28-.73,3.57-1.77,7.15-3.57,11.6-5.77-5.06-1.26-9-2.23-14.09-3.48.9,10.76,1.78,21.14,2.58,30.72,24,.77,46.7,1.48,69.39,2.19,0,.47,0,.93,0,1.42h-9.53c13.68,4.2,27.47,6.17,41.71,2.93-13.72.15-26.39-3.62-38.39-10.12C753,381.91,765.78,386.9,779.91,385.65Zm-85.26-15.29c-3.53-2.46-7-4.93-10.57-7.4.18-.35.35-.71.52-1.06l11,7Zm42.61,8.3L697.81,373c0-.3.06-.6.09-.88l39.58,5.14C737.41,377.71,737.34,378.17,737.26,378.66Z" transform="translate(-457.56 -192.87)"/><path class="cls-1" d="M936.17,204.5A12.06,12.06,0,0,1,933,201c-2.18-5.16-7.79-6.38-11.6-7.22-7.1-1.59-14.82-.52-22.26-.39-1.36,0-2.71,1-4,1.5l.5,1c1.22-.31,2.43-.65,4.75-1.27-2.09,1.74-3.31,2.81-4.58,3.76-.3.22-.86.13-1.29.19,1.25.43,2.5.84,4.07,1.36a5.93,5.93,0,0,1-.11.73c3.87-1.48,7.35-4.77,12.43-2.82-4.24,1.25-8,2.37-12,3.55,0-.11.19-.34.15-.39a1.67,1.67,0,0,0-.52-.34h0a28,28,0,0,0-4.19,2.78,4.4,4.4,0,0,0-.37.38,5.15,5.15,0,0,0-1,4.74c.2,1-2.7,2.64-4.86,3.2l4.59-3.23-6.28-2.26,4.36-.66c-1.5-6.63-7.18-7.53-23.27-4.43,3.83-1.17,7.63-3,11.53-3.34,4.1-.39,8.3.63,12.82,1.08,0,0,.83-.67,1.63-1.33-1.59-1.27-3.14-3.55-4.79-3.64-7.41-.39-14.85-.17-22.48-.17.71.54,1.33,1,1.48,1.09-2.52,1.72-5.55,3.08-7.57,5.34s-3,5.35-4.43,8.07l.28.27c.88-.83,1.72-1.67,2.64-2.45,1.74-1.52,3.49-3,5.81-4.94-2.13,3.22-4.15,5.4-5,8-.34,1,1.92,2.91,3,4.41a15.46,15.46,0,0,0,2.64-2.45,8.94,8.94,0,0,1,12.59-2.1c2.64,1.91,5.46,3.54,9.25,5.95-5.23.37-10,.73-15,1.08.62,1.57,1.2,3.07,2.17,5.57-2.32-2.75-3.89-4.58-5.44-6.41l-.8.73,7.62,13-.61.39c-1.95-2.77-3.89-5.53-5.85-8.3l-.67.4c1.17,2.44,2.37,4.89,3.55,7.34l-1.16.88c-2.26-2.43-4.51-4.86-6.73-7.23-.49,2,4.11,9.81,6.09,10.09.17,0,.47-1.07.77-1.74l4.35,4c-10.41.07-13.81,2.48-12.2,8.16,3.55-3.25,7.72-3.38,12.18-2.61,2,.33,4.28.73,6.1.11,1.62-.54,2.8-2.43,4.18-3.74l2.34,4,8.95-4c.41,1.1.62,3.63,1.61,4,2.33.83,5,.71,7.58.79,5.39.17,10.77.28,16.17.28A54.23,54.23,0,0,0,928,241l-8.32-11.15c-.71,1.23-1.81,3.14-3.49,6,.74-5.92,5.43-10.59.52-15.71l3.33.56c.16-.4.35-.77.54-1.16-2.77-1.53-6-4.88-8.17-4.26-5.68,1.62-10.54-2.11-15.77-.51-.19-2.69-.86-4.91-.36-6.86a5,5,0,0,1,5.83-4l-2.74,2.4,3.1.54c-.69.75-1.53,1.27-1.81,2a26,26,0,0,0-.84,4.05,15.2,15.2,0,0,0,4-.65,19.34,19.34,0,0,0,4.8-2.92c4.78-4,10.2-3.17,13.73,2,.81,1.17,2.53,1.73,4.64,3.1-1.27-8.69-6.06-11.36-15.64-10.11,4.28-4.21,14.63-1,16.42,4.73,1.61,5.19,4.79,4.74,8.45,4.5,2.43-.15,4.82-.58,7.23-.88l.75-1.25C941.53,209.13,938.8,206.87,936.17,204.5Zm-18.49-4.39a11.31,11.31,0,0,1,15.78,10.78C931.12,203.32,926.17,199.58,917.68,200.11Z" transform="translate(-457.56 -192.87)"/><path class="cls-1" d="M544.91,345.69c-4.09-2.05-7.81-4.84-11.89-6.89-3.3-1.66-6.86-3.65-10.41-3.87-7-.47-13-2.34-18.18-7.08a5,5,0,0,0-3.06-1.4c-7.44.16-14.88.52-22.3.84-2.54.11-2.73,1.59-1.51,3.27,2.56,3.51,9.85,4.11,12.37,1.94,1.79.9,3.18,2.19,4.35,2,1.59-.21,3-1.55,3.59-1.89,2.15,1.31,4.15,3.46,6.3,3.64,5.83.49,11.74,0,17.58.23,2,.09,3.91,1.34,5.87,2.05-.17.34-.33.68-.5,1-1.91-.73-3.81-1.47-5.72-2.22-.08.32-.15.64-.23.93,1.57,1.31,3.13,2.6,4.68,3.91-12.3-6.13-24.26-3.27-36.65.22.3.9.5,3,1.1,3.11,4.43.93,9.2,2.71,13.33,1.83,5.23-1.12,9.6.91,13.58,2.56,1.95.78,3.83,2.91,7.09,2.48-4,3.37-5.63,3.33-8.71.36-3.59-3.5-7.31-4-11.89-1.72.81,1,1.61,2,3,3.72-8.3.39-15.77.8-23.27,1.06s-15.21,3.85-22.48-1.66h28.8c0-.45,0-.9,0-1.33l-31.42-1.32v10l.73.06c.45-1.51.88-3,1.33-4.54.52-.34,1.05-.67,1.55-1-2.39,7.92,3.34,6.13,6.39,6.93,1.72.45,3.91-.86,6.47-1.53,1.49,3.61,5.23,2.5,9.08,1.76,1.57-.32,3.34.37,5,.59,0,.53.09,1.05.15,1.59,2.16-1,4.22-2.45,6.48-3s4.62-.11,6.93-.11c.08.64.15,1.29.23,1.93-9.38,1.75-18.75,3.53-28.44,5.36,1.83,4.41,5,3.4,7.62,3.38,5.87,0,11.72-.39,17.58-.34,5.41.06,6.08-.59,4.6-5.64.38-.13.75-.28,1.12-.43.62,1.76,1.24,3.5,2.15,6.11,4.11.84,9.36,1.27,14.11,3.05A34.42,34.42,0,0,0,540.43,377c.68-.12,1.36-.26,2.05-.41,3.57-.79,5.72-2.94,5.7-6.77,0-2.75-.08-5.51-.13-8.27,0-3.3-.06-6.6.13-9.87C548.33,348.65,547.6,347.06,544.91,345.69Zm-28.28,13.22,12.9,5.19-1.57.52c0,.25,0,.49,0,.75h9.49C531.19,370.23,517.55,365.35,516.63,358.91Zm29.57,7.55a4.38,4.38,0,0,1-1.91,2.47c-2.08,1.3-5.67,1.42-11.17.35l12.33-2.66Z" transform="translate(-457.56 -192.87)"/><path class="cls-1" d="M1320.4,352.73c-1.68-.43-3.57,0-5.36-.1-5.42-.3-10.86-.65-16.33-1-.27-4.58,8.07-2.46,6.26-8.16-3.16,2.22-7.5,2.65-9.09.56-.59-.77-.09-2.36-.09-4.13-.39-.23-1.63-.88-3-1.61,1.85-.95,3.35-1.7,4-2l9.06,5.35c1-2,1.61-3.07,2.23-4.23,5.34,5.61,16.63,5.57,18.66-.59-11-1.33-21-6.75-32.59-4.51a40.89,40.89,0,0,1-14.54.43c-7.55-1.31-13.24,1.57-18.85,5.81-3,2.23-6,4.62-9.35,6-5.49,2.24-6.16,3.05-4.07,8.62l3.1-3.82,1.61,1a12.35,12.35,0,0,0-4,4.26c-3,5.52-.11,12.05-1.15,17.81l5,2.31c-1.74,3.24,1.48,3.27,2.67,3.18l5-.35a81.8,81.8,0,0,0,14.3-2c2.73-.69,6.19-2.78,6.73-7,.19-1.57,2.6-2.86.6-4.82,1.48-1.2,2.93-2.4,4.3-3.5-.34,2.62-.15,5.61-1.2,8.09s-3.32,4.32-6,7.55l11.89-2a22.17,22.17,0,0,0,4.89.6c7-.5,14.08-1,21.06-1.94,1.74-.23,3.29-1.95,4.94-3-.28-.42-.58-.83-.88-1.26-6.22-.33-12.45-.74-18.67-1-4-.13-8.28-1.08-11.29,3-.43.58-1.7.58-2.29.77,1.32-2.67,3-5.12,3.75-7.81s.64-5.79.9-8.71q.84.06,1.68.15c-.15,2-.32,4-.52,6.35a21.33,21.33,0,0,0,4.73.51c3.21-.34,6.39-1.09,9.58-1.52,3-.43,6.77.58,7.53-4.18.36,1.38.71,2.75,1.09,4.17,1.44-.3,2.67-.6,3.92-.81,2.6-.45,6.09-.22,5.93-3.75C1326.59,354.43,1322.66,353.31,1320.4,352.73Zm-45.52-18.8c1.87.11,3.36-.25,3.94.33,3.48,3.52,7.78,2.64,12,2.62.34,0,.66.43.92,1.53h-20c-.09-.28-.18-.54-.26-.82,1.89-.52,3.79-1,6.22-1.7C1276.73,335.22,1276.17,334.82,1274.88,333.93Zm-6.54,29.77c-.77,1-2.58,2.65-2.82,2.46a27.35,27.35,0,0,1-3.72-3.94l.82-.63c1.18,1,2.35,2,3.89,3.3l.56-3.87C1267.72,362.31,1268.56,363.42,1268.34,363.7Zm19.21-13.44c-2.86-.15-4.56.84-5.33,4.06a10.89,10.89,0,0,1-12.2,8.22c1.46-1.05,3-2,4.35-3.16,2.15-1.87,4.17-3.89,6.26-5.85-.31-.58-.61-1.16-.93-1.74-3.59.36-7.18.71-10.8,1.09.09-1,.22-2.41.39-4.19,4.69,2.41,9.46,1.44,14.34-.24A11.51,11.51,0,0,1,1296,351C1293.19,350.73,1290.37,350.43,1287.55,350.26Z" transform="translate(-457.56 -192.87)"/><path class="cls-1" d="M931.76,257.51c-4,8.56-5.62,10.33-9.75,10.16,2.46-2.82,6.46-4.61,5.68-9.34l-2.15,1.31c.45-4.73.86-9.23,1.27-13.87l2.58,1c.41-1.75.76-3.27,1.21-5.14-4.33.9-9,.43-9.19,6.62,0,1.06-1.53,2.09-2.36,3.12l-.58-.52c.71-1.68,1.42-3.37,2.12-5l-1.18-.82-3.29,4.91c-.19-1.94-.34-3.47-.54-5.43-1.14,1.68-1.87,2.76-2.58,3.83-1-.83-2-1.63-3-2.45l-.77.6,3.4,4.15-3.87-1.09c-1.08,1.46-2.16,2.92-3,4.06,1.78,2.5,3.29,4.67,5,7.1-1.62.48-2.87.88-4.13,1.25.32-.35.62-.73.94-1.08-1.4-2.4-2.88-4.77-4.21-7.22-.8-1.45-1.19-3.12-2.07-4.52a25.6,25.6,0,0,0-2.92-3.27c-.65,1.25-1.7,2.47-1.85,3.79a30.49,30.49,0,0,0,.32,5.78l-1.19,0c.28-5.64.57-11.27.89-17.47l-4.58,2c.75.62,1.29,1.07,2.4,2-2,.14-3.31.21-4.86.3.24,4.08.11,8,.82,11.68s-1.22,5.52-4.28,7.35c-.54-2.38-.9-4.82-.17-6.88,1.38-3.89.53-6.35-3.06-6.17,2.89,3.63-1,5-2.47,6.81-2.5,3.06-6,2.24-9.19,1.15,2-.8,3.9-1.6,6.28-2.56L870.05,247c-.16.17-.33.32-.5.49.47,1,1,2,1.42,2.95l-1,.45c-.67-1.59-1.35-3.2-2-4.67-1.93-.21-3.72-.38-5.5-.56-.18.74-.37,1.47-.72,2.86-.79-1.52-1.27-2.45-1.52-2.88-.8,2.33-1.75,4.76-2.45,7.27a11.39,11.39,0,0,0-.2,3.87c.17,1.62,1.38,3.77.73,4.71-2.53,3.64.65,3.21,2.41,4.22,2.22,1.27,4.2,2.93,6.73,4.75l6.24-2.38c-.13.73-.28,1.67-.41,2.36,6,1.59,10.14,0,11.9-6-.11,1.76-.22,3.53-.34,5.31.34.09.68.18,1,.3l3.46-5.39c-.62,3.83,1.7,5.95,4.58,6.11,5.62.32,1.64-5.21,3.83-7.45,1.38,2.17,2.69,4.22,4,6.28.33-.17.69-.32,1-.49v-4l10.9,12.15c-.51.58-1,1.16-1.5,1.76-1.4-.95-3-1.66-4.11-2.88-3.87-4.43-8-5.16-13.34-2.09,1.81,4.63,1.38,5.53-3.22,5.83a16.66,16.66,0,0,0,4.75.61c6.73-.8,11.89,2,13.46,8.83-4.34-5.37-9-6-14.58-5-4.84.86-10-.4-14,1.34.75,1.35,1.37,2.43,1.63,2.92a14.13,14.13,0,0,1,2.45-.94,56.58,56.58,0,0,1,6.35-1,15.39,15.39,0,0,1,3.53.49l.26,2.11-14.18,3.79a10.38,10.38,0,0,0-.09,1.14c.86,8.07,2.8,9.12,10.29,5.78a3.9,3.9,0,0,1,3.24,0c6.22,4,10.61,1.12,14.55-3.65a12.43,12.43,0,0,0,2.36-3.81,36,36,0,0,0,.91-5.53c.34.06.68.09,1,.15.25,2.3.47,4.61.71,6.93l.86.43c1.39-3.9,2.79-7.81,4.28-12,.28,2.24.53,4,.86,6.63,3.91-5.63,6.06-10.75,4.9-17.21-3.29.5-6.41,1-9.23,1.44-.25-2.25-.41-3.89-.69-6.6l2.65,4.54c.47.09.78.26,1,.19,2.86-.75,5.92-2.52,8.44-1.93,1.57.36,2.75,1.78,4,0,1-1.59,2.18-3.54,2.16-5.31C933.41,261.81,932.28,259.43,931.76,257.51Zm-27,35.39-6.84-2.46c-.13.29-.28.59-.41.87-.75-1.38-1.53-2.76-2.3-4.16l7.61-.58-1.35,2.26,4.06,2.6C905.24,291.91,905,292.42,904.74,292.9Z" transform="translate(-457.56 -192.87)"/><path class="cls-1" d="M954.41,335.1c-1,2.52-3.77.69-6,.56-4.64-.24-9.33.43-14,.78-6.61.49-13.23,1.27-19.85,1.35-1.32,0-2.69-2.62-3.86-3.85,0,.58-.1,2.07-.19,4.15-.8-.58-1.4-1.37-1.94-1.31-2,.15-3.93.58-5.89.9.32-1.52.65-3,1-4.54.53-2.77,1-5.52,1.52-8.23-3.37.32-4.83,3.42-5.25,11.57-6.94,3.27-9,1.74-10.06-7.6l-1.34,1.64c-.28-1.27-.51-2.28-.73-3.29-.36,0-.73.06-1.09.08.32,1.88.32,3.88,1,5.62.65,1.57,2.07,2.82,3.27,4.35-6,.58-12.61,3.37-13.9-6.11-.9.62-1.44,1-1.72,1.2l-5.1-9.06-1,.35c-.23,1.22-.49,2.41-.71,3.63h0l-.12-.06c-.59-.19-1.43-.37-1.47-.63-.41-3.48-.66-7-1-11l-1.76,2.28v-6.84c-.8,1.3-1.06,1.75-1.34,2.2l-.58-.13c.3-1.34.15-3.36,1-3.92,2.28-1.55,3-6,7-4.32,2,.84,3.51,2.63,5.34,4.07-.34.38-.86.94-1.74,1.93,2.94-.32,5.59,5,7.89-.58.09-.23,2.35-.11,2.67.41a11.86,11.86,0,0,1,1.68,4.69c.17,1.4-.37,2.88-.73,5.14-1.73-2-3.17-3.63-4.63-5.27l-.45.22,3.14,7.39,6.86,2.26c-4.47-5.39-2.15-10.47-1.33-15.94,3.74.78,6.84,7,9.72-1,.86,2.61,1.42,4.3,2.09,6.35.51-.86.94-2.11,1.26-2.11,4.85.41,4.5.19,6.84-3,1.71-2.37,4.54-3.92,7.36-6.26,0,7.2-3.33,15.33-6.11,17.92,1.4-.67,2.8-1.34,4.31-2.09.08.11.32.49.7,1,1-5.36,1.9-10.22,2.82-15.08l.93.13c0,4.52-.26,9.08.08,13.57s-1.67,9.23,2.15,13c-.4-2.41-.83-4.86-1.24-7.33l1.14-.19,5.91,8.54c.45-.26.89-.52,1.34-.76a49.24,49.24,0,0,1-3.34-4.94,19,19,0,0,1-2.23-7.06c1.82,2,3.61,4.07,6.06,6.84-2-3.83-3.53-6.73-5.5-10.45l-.59,1.72c-1.09-3.15-2.15-6.29-3.24-9.45.43-.15.84-.32,1.26-.47,3.38,4.06,6.78,8.11,10.16,12.18.54-.33,1.09-.65,1.63-1-.36-1.88-.71-3.79-1.09-5.75,1.5,1.36,2.77,3.23,4.51,3.92,1.9.75,4.22.38,6.35.51,0,.37,0,.76,0,1.14-1.48,0-3,.11-4.43,0a41.43,41.43,0,0,1-4.26-.79c-.17.4-.32.77-.47,1.14,4.86,2.25,9.72,4.51,14.52,6.71-.76,3-1.31,5-1.85,7.12l.9.3c1.1-1.46,2.2-2.91,3.21-4.28.62.19,1,.17,1.16.36C952.34,331.44,954.9,333.9,954.41,335.1Z" transform="translate(-457.56 -192.87)"/><path class="cls-1" d="M1027.42,309.43c-3.76,2.93-7.53,5.75-11.16,8.74-3,2.43-6.63,4.56-8.45,7.72-3.47,6-9.34,4.56-14.31,6.08-6.06,1.81-11.92-.27-17.89-.45a57,57,0,0,0-13.26.86c-3.85.8-6.6.71-8.41-3.2-.32-.67-1.44-1-2-1.34,10.52-9.5,22.67-11.11,35.54-10.13.06-.41.12-.83.17-1.24-2.65-.67-5.29-1.34-7.83-2C986.7,307.07,1016.93,302,1027.42,309.43Z" transform="translate(-457.56 -192.87)"/><path class="cls-1" d="M834.25,322.52l-10.07,10.84c-1.55-.8-3.11-2.32-4.6-2.28-6.17.22-12.32,1.07-18.48,1.4a89.36,89.36,0,0,1-14.45-.07c-1.47-.15-2.71-2.69-4.07-4.15l.11.09c-1.83-2.67-3.36-5.62-5.55-7.94-3.23-3.42-6.93-6.39-10.65-9.75,13-3.37,25.75-4.85,39.84-.15-3.05.72-4.88,1.34-6.75,1.57s-3.75.05-5.7.63C808.5,311.74,822.51,312.86,834.25,322.52Z" transform="translate(-457.56 -192.87)"/><path class="cls-1" d="M812.81,409.81l-1.42-.6c.19,2.19.4,4.54.6,6.92l-.73.11c-1.51-2.49-3-4.95-4.76-7.87.37,1.91.63,3.25.9,4.6l-1.41.41q-2.6-7.77-5.19-15.53c-1-2.82-2-5.64-3-8.48l-1.44.5c.07.66.15,1.31.22,2l-1.18.47c-1.56-4.6-3.13-9.19-4.69-13.81l-.56.17c.68,3.4,1.33,6.82,2,10.33-10.93.08-10.5-1.1-11-10.57-.28-5.16-.05-10.34-.05-16.56,1.87,1.59,2.9,2.47,3.38,2.9-1-5-1.7-10.49-3.18-15.78-1-3.77-.16-5.7,4.23-6.57,1.64,3.83,3.36,7.83,5.06,11.82l17.89,24.65c1.42,5.39,2.86,10.77,4.24,16-3.72-.67-3.83-.82-3-3.27-1.7-1.33-3.29-2.19-4.35-3.48-5.61-6.72-11.08-13.58-16.63-20.37a2.74,2.74,0,0,0-2.68-1l26.47,33.15-.86.81L808,397.5c-.13.09-.28.18-.41.28,1.48,1.88,2.95,3.79,5.22,6.67-2-.41-2.7-.56-3.93-.82,1.7,2.07,3.1,3.79,4.52,5.49Z" transform="translate(-457.56 -192.87)"/><path class="cls-1" d="M1049.51,346.5c-1.72,1.33-2.75,2.7-4.08,3.07-5.21,1.53-10.76,2.15-15.71,4.24-6.75,2.84-13.1,6.62-19.51,10.22-1.85,1-3.31,2.79-4.94,4.21l-1.7-.51q.73-17.18,1.48-34.49C1021.06,333.05,1035.51,337.33,1049.51,346.5Z" transform="translate(-457.56 -192.87)"/><path class="cls-1" d="M945.53,241.61c2.09-4.52.6-8.8-4.15-10.48,4.9,4.82,5,7.17.37,12.48-2.91,3.38-2.71,5.7,1.46,8.93-.78-1.7-1.46-2.63-1.63-3.68s.15-2.17.38-4.18c2.35,6.09,4,6.82,9.4,5,4.26-1.42,7.88.66,8.15,4.19-2.49-.54-5.09-1.44-7.7-1.53-1.11,0-2.26,1.6-3.39,2.48l-.29.32c-2.4,2.47-5.61,3.14-8.08,1.25-1.6-1.25-2.22-4.3-2.46-6.61a17.3,17.3,0,0,1,1-7c1.74-5.05,1.16-6.73-3.58-8.58-3.84-1.48-4.75-3.38-2.38-6.65,2.92-4,3.22-7.85.41-12.56h10.52c-.93,3.46-5,6.84-.56,11.08l-4,.39c0,.28,0,.56,0,.86,1.83.21,3.79.06,5.42.71,2.33.94,5.1,2,6.41,3.85,1.64,2.37.2,4.86-1.91,7.08-1.21,1.31-2.11,4.3-1.44,5.69,1.18,2.37,3.65,1.73,6.21.89a13.5,13.5,0,0,1,7.88.21c1,.32,1.12,3.31,1.65,5.08l-1.18.58c-1.46-.88-2.8-2.19-4.35-2.54-2.21-.51-4.56-.26-6.84-.41-2-.13-4.06-.36-6.08-.54C945,245.82,944.67,243.44,945.53,241.61Z" transform="translate(-457.56 -192.87)"/><path class="cls-1" d="M842.21,247.38a7,7,0,0,0-2-.69c-.58,6.91-2.52,9.08-7.55,9.15-1.52,0-3.59.32-4.37,1.31-.66.82.18,2.84.52,5.5-3.66-2.9-6.69-5.27-9.4-7.4.93,3.77,2.15,8.61,3.27,13.15-2.49-1.7-4.28-3.32-6.39-4.17-.75-.29-2.64,1.14-3.27,2.21-.4.62.35,2.6,1.14,3.08,1.42.9,3.25,1.12,4.91,1.67,4.77,1.55,4.6,1.55,4.47-3.61,0-1.66,1.12-3.36,1.74-5,.31,2.36-.38,4.28,0,5.95.92,3.94-.16,6-4.35,6.26-.13,0-.24.46-.56,1.06.93-.05,1.64-.11,2.07-.15-.18,1.78-.39,3.52-.65,5.87,1.48-2.21,2.45-3.64,3.42-5.08l.73.5-.45,6.11c.24,0,.51,0,.75,0,.86-1.75,1.7-3.53,2.54-5.3.3.15.6.28.9.41-.13,1.51-.28,3-.47,5.08,4.32-3.38,4.54-5.06,1.72-8.88-.62-.82-1.46-1.49-2.08-2.33-2.56-3.5-1.81-6.71,2-8.91-.17,1.34-.63,2.78-.32,4,1.2,4.71,2.7,9.37,4.06,14,.41-.1.8-.17,1.2-.25.46-1.45.93-2.91,1.47-4.57a4.13,4.13,0,0,0-.46-.32l-.57-.28c-.18-.1-.39-.19-.57-.28a8.53,8.53,0,0,1-1.13-.6,1.46,1.46,0,0,1-.59-2.06,2.07,2.07,0,0,1,.18-.37,7.63,7.63,0,0,1,.86-1h0c-3.58-4.05-3.42-4.93.51-7.44,2.63.92,4.75,2.45,6.35,2,1.8-.47,3.63-2.43,4.56-4.2C848.19,258.5,845.29,249.49,842.21,247.38Zm-3,14c-2.84-.23-6-1.83-8.17,1.38-.61-4.82,4.69-3.79,6.56-6.24,1.18-1.55,3.25-2.41,5.65-4.06-1.5,2.47-2.84,4.69-4.3,7.12,2.65,1.76,4.11.21,5.06-2.76C844.56,260.63,843.41,261.67,839.22,261.36Z" transform="translate(-457.56 -192.87)"/><path class="cls-1" d="M890.54,277.78c.18.71.35,1.37.54,2-2.79.73-5.87,1-8.26,2.41-2.54,1.5-4.43,4.17-7.48,7.2.68-3.7,1.26-6.79,1.85-10.1-7.14,3.27-6.82,9.39-6.35,17-1.4-2.75-2.24-4.37-3.14-6.11L866.37,292c-4.63-5.73-3.16-12.39-3.9-19.83L869,280c.64-7.06,6.84-9.81,14.22-7.16l-5,3.2c3.76-.17,8.1.39,11.87-.79,3.18-1,4-.41,4.49,2.77C893.13,277.91,891.83,277.86,890.54,277.78Z" transform="translate(-457.56 -192.87)"/><path class="cls-1" d="M499.52,351c-7.82,1.35-8.86,1-11.95-3.14-2.93,1-5.4,2.58-7.83,2.53s-6.11,0-5.88-4.51c-2.43,4.12-5.95,5.27-11.51,3.78-2.56-.71-5.27-1.51-4.71-4.3,5.45-1.2,10.35-2.41,15.32-3.31a28.52,28.52,0,0,1,6.2-.05c2.47.07,4.94.26,7.93.43C487.82,349.41,495,348.31,499.52,351Z" transform="translate(-457.56 -192.87)"/><path class="cls-1" d="M994,383.32l-4.82,7.92a20,20,0,0,0-1.74,3.91c-.86,4-1.49,8-2.24,12.13l-2.41-1c-.21,1.62-.39,3.1-.6,4.56l-1.47.22c.5-5.79-6.6-9.06-4.06-15.57,1.42-3.58,3.4-6.2,7.29-7.7,2.76-1,4.95-3.58,7.49-5.3C992.38,381.88,994.17,379.94,994,383.32Z" transform="translate(-457.56 -192.87)"/><path class="cls-1" d="M969.37,313.13c-2.86.37-5.75.45-8.57,1.64l12.83-.65c.06.43.12.86.17,1.29l-25.6,2.73c0,.28.06.56.09.84l8.58-.41c0,.22.06.43.08.65l-8.39,1.48,3.47.93c-2.76-.13-5.74,3.76-8.09-.06,1.12-2.13,2.17-4.13,3.59-6.85H958c-2.35-1.57-7.12,1.66-6.57-5.35l32.12-2.56c.06.43.09.86.15,1.29q-9,.93-18,1.89c0,.17,0,.33,0,.5h11.77c.1.36.19.73.29,1.11C975,312.12,972.2,312.77,969.37,313.13Z" transform="translate(-457.56 -192.87)"/><path class="cls-1" d="M1307.71,208.63c.41,5.57-6.65,9.32-12.35,7.42-1.94,2.11-3.46,5.15-4.95,5.13-3.59,0-5.22,2.53-7.66,4-1.78,1-3.59,2-5.72,3.21-.77-2.07-1.35-3.61-1.68-4.52C1284.05,214.1,1295,209.3,1307.71,208.63Z" transform="translate(-457.56 -192.87)"/><path class="cls-1" d="M779,335.85v19.36c-7.48-2.3-13.55-6.15-17.9-13.29C767,339.9,772.67,338,779,335.85Z" transform="translate(-457.56 -192.87)"/><path class="cls-1" d="M522.18,213.16c-5.17,2.77-10.2,1.57-10.31-2.91-3.44,2.44-5.89.95-8.67-1.41-2.32-2-5.52-2.85-8.24-4.35a11.91,11.91,0,0,1-3.91-2.84c-1-1.29-1.27-3.08-1.87-4.65,1.55,0,3.29-.34,4.62.22,7.17,3,14.39,6.06,21.3,9.63C517.83,208.25,519.87,211,522.18,213.16Z" transform="translate(-457.56 -192.87)"/><path class="cls-1" d="M1025.49,740.12c-1-1.74-1.51-2.74-2.26-4.07-.32,1.21-.58,2.13-.82,3h-.28c-4.86-10.09-1.44-21.09-3.42-31.5a105.57,105.57,0,0,1-1.72-10.51C1022.65,710.52,1029.44,723.73,1025.49,740.12Z" transform="translate(-457.56 -192.87)"/><path class="cls-1" d="M1296.86,231.44c-5,3.13-10.6,5.22-14.71,9.74-.94,1-2.45,1.57-3.68,2.34-1.65-6.67,3.21-9.67,7.58-12.94-.29-.31-.59-.61-.91-.93l-7.44,4.6c1-4.1,8.77-8.69,14.48-8.64l-5.75,4c.17.32.33.62.52.94l12.84-5.91C1302.11,228.29,1299.17,230,1296.86,231.44Z" transform="translate(-457.56 -192.87)"/><path class="cls-1" d="M932.35,225.73c-1.3,2.22-2.41,4.56-4.16,7.92.26-3,.44-4.86.61-6.77l-1.14,0c-.15,2.95-.3,5.9-.45,8.73-4.57-.92-6.22-6.21-2.67-13.18l-2.75,1.79c.64-4.07.64-4.07-4.11-9h9.23L925.49,219l.68.49,3.68-4.4C934.39,218.19,935.06,221.18,932.35,225.73Z" transform="translate(-457.56 -192.87)"/><path class="cls-1" d="M1332.08,348.49c-1.27,1.1-3.12,2.24-4.73,2.22-6.74-.08-13.47-.58-20.52-.94.7-2.44,1.29-4.56,1.89-6.67,7.61.62,15.18,1.18,22.71,2C1331.82,345.12,1332.55,348.07,1332.08,348.49Z" transform="translate(-457.56 -192.87)"/><path class="cls-1" d="M878.35,337.6c-7.79,0-14.65.21-21.49-.07-4.43-.19-3.23-3.85-3.33-6.58l4.6-3.94a19,19,0,0,1,3.57,3.08c1.72,2.35,3.1,5,4.62,7.46L868,337c.22-3.14.43-6.31.65-9.45h0c.35.34.67.7,1,1,.76.81,1.53,1.61,2.32,2.41C874,333.08,876.05,335.23,878.35,337.6Z" transform="translate(-457.56 -192.87)"/><path class="cls-1" d="M866,229.26c-.15.2-.32.39-.49.6-.73-.45-1.44-.88-1.44-.9L853.4,237.7,845.72,236c-.1.28-.19.56-.26.82l6,2.88c-3.12,1.17-6.28,2.33-9.25,3.45.41-.8,1.25-2.44,2.63-5.1l-7.6.9c1-3.27,3.46-6.93,7.16-10.95,3.08.67,7.06,1.51,11,2.35-.06.25-.09.51-.13.77-3.31-.56-6.62-1.12-9.92-1.66-.13.43-.25.86-.38,1.29,3.48,1.06,7.35,3.58,10.32,2.78s4.84-4.93,7.55-8C863.9,226.72,864.93,228,866,229.26Z" transform="translate(-457.56 -192.87)"/><path class="cls-1" d="M964.18,243.27c.41,1.52.84,3.11,1.29,4.71-2.67-7.27-9.87-3.68-14.6-6a29.24,29.24,0,0,1,1.07-3.53c2.71-6.06,1.7-8.9-4.19-11.66-3-1.39-3.62-3.05-2.71-6.66,3.12,3.8,5.61,8.71,12.06,6.21.63-.25,2.42.59,2.52,1.14.2,1.3.22,3.17-.56,4-2.24,2.54-2.47,4.92-.82,7.78-5.42-1.29,1.1-7.42-3.42-8.94,0,1.67-.12,3.5,0,5.31.13,1.5.13,3.57,1.07,4.3s3,.22,4.48.2,3.39-.44,5-.11c.55.11.73,1.95,1.09,3C965.75,243.09,965,243.18,964.18,243.27Z" transform="translate(-457.56 -192.87)"/><path class="cls-1" d="M778.65,358.5l-27.54-8.17c0-.79,0-1.55,0-2.34,2.54-1.38,5-2.84,7.68-4a2.41,2.41,0,0,1,2.32.65c4,6.41,10.74,9.05,17.06,12.26C778.49,357,778.69,357.45,778.65,358.5Z" transform="translate(-457.56 -192.87)"/><path class="cls-1" d="M949.3,290.22c-.69,2.45-1.31,4.63-2.09,7.42,3.61,3.75,6.15,5.62,2.22,10.63.3-4.93-1.08-8.24-5.62-10-1.81-.69-1.85-2.6.35-4.09,3.52-2.41,3.74-4.95.68-8-3.35-3.33-2-5.35,1.42-7.18l.45.43c0,3.37,1.57,5.22,4.67,6.75,1.6.78,2.65,3.62,3,5.7.19,1.21-1.53,2.73-2.88,4.84C950.44,293.64,949.88,291.92,949.3,290.22Z" transform="translate(-457.56 -192.87)"/><path class="cls-1" d="M1305.17,193.25c-2.78,7.32-10.18,7.32-14.31,11.51-4.58,4.65-10.95,3.23-16.86,3.68,3.87-1.55,7.89-2.88,11.61-4.77a36,36,0,0,0,8.18-5.58C1296.91,195.19,1300.37,193.83,1305.17,193.25Z" transform="translate(-457.56 -192.87)"/><path class="cls-1" d="M1000.67,376.44q-5.76,14.38-11.54,28.74l-1.5-.39c.21-2.17.36-4.33.6-6.5.28-2.36.63-4.69,1-7.05l4.82-7.92,5.44-7.51C999.85,376,1000.26,376.24,1000.67,376.44Z" transform="translate(-457.56 -192.87)"/><path class="cls-1" d="M846.43,296.12c2.68,5.53,2.55,5.15-2.89,7.15-2,.73-3.24,3.68-4.68,5.46A5.59,5.59,0,0,1,842,302c4-2.11,4.36-4.05.75-6.78-2.93-2.2-2.33-4.24-1.19-6.91.52-1.26.22-2.83.31-4.53l8.6,4.54C845.13,289.78,844.34,291.74,846.43,296.12Z" transform="translate(-457.56 -192.87)"/><path class="cls-1" d="M827.93,233c.69,5-1.7,6.82-6.47,5.88-1.16-.22-2.37-.14-3.64-1.15,2.2-.17,4.41-.34,7.51-.56-6.52-2.85-7.68-2.53-11.08,2.39-.34-.26-.68-.54-1-.82,1.53-1.76,2.76-4.27,4.71-5.11s4.74-.2,7.64-.2c-1.85-4.94-1-9.55,5.51-11.42C827.83,225,827.33,228.6,827.93,233Z" transform="translate(-457.56 -192.87)"/><path class="cls-1" d="M960.16,271.79c-2.47-7.23-3.83-13.47-11.4-14.58-.32,0-.43-1.34-.63-2l.29-.32a8.15,8.15,0,0,1,1.69-.41c1.9-.07,4.15-.69,5.6.11,1,.6,1,3.09,1.72,5.53,1.5,1.22,4.26,2.79,5.81,5.16C963.84,266.13,961.62,268.88,960.16,271.79Z" transform="translate(-457.56 -192.87)"/><path class="cls-1" d="M852.38,265.49c-1.5.45-3,.88-4.62,1.34A8.44,8.44,0,0,1,837,274.31a1.31,1.31,0,0,1-.57-.43,6,6,0,0,1-.68-1.22,4.43,4.43,0,0,0-.2-.45,5.38,5.38,0,0,0-.38-.76c1.37.43,2.75.84,4.11,1.25-1.86-2.22-6-2.22-4.41-6.9,4.28,3.57,8.23,3.31,12.26-.48,1-1,3.27-.66,5-.94C852.19,264.76,852.28,265.13,852.38,265.49Z" transform="translate(-457.56 -192.87)"/><path class="cls-1" d="M906.9,1073.72a29.32,29.32,0,0,1-9.62,2.16c-2.66.25-4-1.58-3.83-4.33,3.51,1,12.14-2,14.29-4.8C911,1069.49,910,1072.26,906.9,1073.72Z" transform="translate(-457.56 -192.87)"/><path class="cls-1" d="M1055.67,384c-9.4,4-18.2,4.37-27.73,3.34C1037,385.19,1045.34,381.34,1055.67,384Z" transform="translate(-457.56 -192.87)"/><path class="cls-1" d="M852.16,223.17c-5.86,4.39-13.86,3.25-21.11,7.08,2.5-5.05,5.77-6.34,9-5.85.6-3.51,1.18-6.9,1.78-10.28.19-.06.37-.11.58-.19v11.42l8.84-4.33C851.55,221.75,851.87,222.46,852.16,223.17Z" transform="translate(-457.56 -192.87)"/><path class="cls-1" d="M972.76,262.63c-2.58-.35-5.69-.78-9-1.25l.67,1.07-6.13-4.34c2.24-1.29,3.64-2.11,5.06-2.91.15,1.16.29,2.33.58,5,1.35-2,2.28-3.4,3.54-5.25,1.75.74,4.11,1.77,6.27,2.71C973.39,259.53,973.09,261,972.76,262.63Z" transform="translate(-457.56 -192.87)"/><path class="cls-1" d="M955.36,266.91c.2,6.21-3.4,10-8.65,12.54l-.45-.43q1.62-6.11,3.25-12.18c2.76,2.32,1.29,5.21-.67,8.46,4.13-2.24,4.52-3.79,3-7.66a11.82,11.82,0,0,1-.33-4.05c0-.12,1.68-.53,1.89-.26C954.22,264.41,955.32,265.68,955.36,266.91Z" transform="translate(-457.56 -192.87)"/><path class="cls-1" d="M943,292.83c-1,1.61-2.12,3.12-3.7,5.44.09-2.09.16-3.62.28-5.92-1.26,1.77-2.15,3.06-3.07,4.33-.37,0-.75-.09-1.14-.15.26-1.68-.07-4.18.88-4.86,3.25-2.33,2.92-4.8,1-7.77l1.1-.45c.84,1.27,1.68,2.54,1.87,2.81,2,1.25,3.89,1.75,4.34,2.85C944.89,290,943.7,291.64,943,292.83Z" transform="translate(-457.56 -192.87)"/><path class="cls-1" d="M826.77,242.48l-5.3,8.17c-4.28-2.58-4.38-4.11-1.24-7.83l-4.31,2.39C816.85,240.3,816.87,240.3,826.77,242.48Z" transform="translate(-457.56 -192.87)"/><path class="cls-1" d="M937.14,300.16c-1.8-.52-5-.94-5.1-1.59-.25-3.25.37-6.58.65-9.79l-2.28,1.34c-.19-.16-.39-.35-.58-.54,1.27-1.61,2.52-3.21,3.89-5,2.48.69,4.43,1.76,2.43,4.56C932.32,294.48,932.39,295.71,937.14,300.16Z" transform="translate(-457.56 -192.87)"/><path class="cls-1" d="M646.9,1002.16c0,.52,0,1.05,0,1.57-1.72.52-3.53,1.66-5.14,1.4-3.14-.5-5.29-2.46-4.86-8Z" transform="translate(-457.56 -192.87)"/><path class="cls-1" d="M1191,978.84a11,11,0,0,1-4.2,4.45c-.43.22-1.54-.84-2.62-1.87a2.13,2.13,0,0,0-.26-.26c-.34-.32-.67-.62-1-.88a24.66,24.66,0,0,1,2.93-2.94,28.74,28.74,0,0,1,4-2.09C1190.24,976.47,1191.38,978.07,1191,978.84Z" transform="translate(-457.56 -192.87)"/><path class="cls-1" d="M626.66,980.71c-3.21,2.52-2,8.89-8.17,8.78C619.24,981.88,620.9,980,626.66,980.71Z" transform="translate(-457.56 -192.87)"/><path class="cls-1" d="M944.35,313.88q-.45.22-.9.48l-2.86-2.52c-.43-2.52-1-5.44-5-6.62-.47-.15-.75-1.66-.73-2.52,0-.41.93-1.12,1.45-1.14,3.74-.17,6.55,4.67,5.05,7.51Z" transform="translate(-457.56 -192.87)"/><path class="cls-1" d="M851.8,274.38c-.66,3.93-8.86,3-5.91,9.72l-1.94-.69v-5.48c-1.16,1.54-1.93,2.54-2.88,3.82l-2.93-2.15c.05-.47.11-.92.18-1.39C842.75,276.94,847.18,275.69,851.8,274.38Z" transform="translate(-457.56 -192.87)"/><path class="cls-1" d="M857.42,202.87c-1.11,1.33-1.93,3.25-3.33,3.89-4,1.79-8.2,3.08-12.09,4.46.24-2.41,1.49-3.73,5.92-5.47,2.86-1.12,5.72-2.19,8.58-3.27Z" transform="translate(-457.56 -192.87)"/><path class="cls-1" d="M855.1,221c-2.45-.56-4.8-1.42-7.2-1.49-1.12,0-2.26,1.45-3.49,2.33,0-3.94,2-6,6-6.11S855.43,218,855.1,221Z" transform="translate(-457.56 -192.87)"/><path class="cls-1" d="M965.39,285.17l-1.51.79c-.41-1.07-.6-2.36-1.33-3.12-1-1.09-2.84-2.81-3.57-2.49-3.83,1.64-4.13-1.33-5.4-3.44l3-2.26c.54,1.61,1,3.12,1.55,4.65l.79-.35v-3.57l1.08-.28C961.79,278.46,963.58,281.81,965.39,285.17Z" transform="translate(-457.56 -192.87)"/><path class="cls-1" d="M940.16,283c-2.26-2.93.23-8.76,4.77-11.84C947.47,277.14,941.16,278.69,940.16,283Z" transform="translate(-457.56 -192.87)"/><path class="cls-1" d="M832.23,253.17c-3.14.26-6.22,1.07-10,1.74.24-.6.39-2.43,1.38-3.2,1.2-.89,3.44-1.64,4.6-1.12,3.78,1.74,6.78,1.87,9.21-3.68C837.71,252.29,835.35,252.91,832.23,253.17Z" transform="translate(-457.56 -192.87)"/><path class="cls-1" d="M859.08,295.73c-1.42,2.63-5.38,4.63-1.37,8.2a13.48,13.48,0,0,1-1.43,2.41c-2.78-6.19-2.24-7.3,2.89-14.72C859.17,293,859.66,294.65,859.08,295.73Z" transform="translate(-457.56 -192.87)"/><path class="cls-1" d="M830.92,412.9c-5.55.67-9.88-3.61-11.21-11.74,2.22,2.86,3.64,5,5.42,6.9A67,67,0,0,0,830.92,412.9Z" transform="translate(-457.56 -192.87)"/><path class="cls-1" d="M920.36,213.39H908C913.57,208.81,917.09,208.83,920.36,213.39Z" transform="translate(-457.56 -192.87)"/><path class="cls-1" d="M960.55,287.11c-.3.23-.6.47-.88.71-7.92-6.09-7.92-6.09-7.66-9.58,1.57,1.44,3.24,2.84,4.75,4.39C958.1,284,959.28,285.6,960.55,287.11Z" transform="translate(-457.56 -192.87)"/><path class="cls-1" d="M847.9,250.11c-3.85-3.21-3.21-7.7,1.05-9.32l1.38-.58c.4-.17.79-.36,1.2-.52,0,0,.06,0,.07-.06s.06,0,.1,0l-.11.11c1.06.23,2.13.43,3.21.66C849,241.22,846.71,244.32,847.9,250.11Z" transform="translate(-457.56 -192.87)"/><path class="cls-1" d="M879.69,213.37v0c-.75-.15-1.49-.35-2.26-.56a14.47,14.47,0,0,0-4.07-.62c-2,.1-4,1.18-6.49,2a9.63,9.63,0,0,1,.56-1.16c.21-.36.41-.69.64-1a5.78,5.78,0,0,1,8.26-1.7,9.74,9.74,0,0,1,1.72,1.27q.42.39.84.84c.26.3.52.6.78.93Z" transform="translate(-457.56 -192.87)"/><path class="cls-1" d="M935.23,238.3c.62,2,1.18,4,1.76,5.87l-.94-.07a32.32,32.32,0,0,0-2.89-3.76,36.51,36.51,0,0,0-4.25-2.9c8.54-.65,8.54-.65,9.74,3-.9-.58-1.38-.89-1.87-1.19S935.81,238.64,935.23,238.3Z" transform="translate(-457.56 -192.87)"/><path class="cls-1" d="M632.81,1002.1c-1.44-2.11-3-3.64-3.5-5.45-.24-.81,1.44-2.19,2.3-3.31.34.88.53,2.28,1.07,2.43C637.46,997.06,634.64,999.11,632.81,1002.1Z" transform="translate(-457.56 -192.87)"/><path class="cls-1" d="M850,319.76l-13-5.5C842.23,313.66,847.09,314,850,319.76Z" transform="translate(-457.56 -192.87)"/><path class="cls-1" d="M834.85,242.13c-.49,2.39-.34,5.16-1.31,5.64-1.85.92-4.36.54-7.57.77Z" transform="translate(-457.56 -192.87)"/><path class="cls-1" d="M969.6,279.66c-1.16-.36-2.3-.69-3.37-1,.45,1.55.94,3.21,1.42,4.88-5.49-6.17-5.62-6.32-4.26-9.5.1,2.34,1.65,2.64,3.78,2.68,1,0,2.07,1,3.12,1.55C970.05,278.72,969.82,279.19,969.6,279.66Z" transform="translate(-457.56 -192.87)"/><path class="cls-1" d="M867.25,218.21c-.19.36-.4.71-.6,1.07l-3.29-1.63c-.9,2.43-1.83,5-2.77,7.48l-1-.34c.45-3.14.9-6.26,1.51-10.52C863.28,215.65,865.26,216.94,867.25,218.21Z" transform="translate(-457.56 -192.87)"/><path class="cls-1" d="M856,208.5c-1.12,4.22-2.71,4.85-9.49,2.87l9.21-3.14Z" transform="translate(-457.56 -192.87)"/><path class="cls-1" d="M947.62,261.62h-7.87c.12.25.53,1.11,1,2-.27.17-.53.31-.77.48l-2-3.57c1.25-.41,2.52-1.16,3.78-1.12a43.79,43.79,0,0,1,6,1C947.7,260.78,947.66,261.2,947.62,261.62Z" transform="translate(-457.56 -192.87)"/><path class="cls-1" d="M848.26,304.49,843,311.61c-.52-2.3-1.47-4.39-1-4.79a30.39,30.39,0,0,1,5.79-3.3Z" transform="translate(-457.56 -192.87)"/><path class="cls-1" d="M842.81,297.57c-.06.51-.11,1-.17,1.52-1.25.35-2.5.73-4.56,1.32.9-1.3,1.27-1.85,1.92-2.78-3.47.32-6.93,2.13-8.5-2.13Z" transform="translate(-457.56 -192.87)"/><path class="cls-1" d="M876.43,296.81c-1-.25-2.86-.3-3-.77-.71-2.9-1.05-5.9-1.57-9.29,1.83,3.05,3.34,5.39,4.65,7.83C876.84,295.14,876.48,296.06,876.43,296.81Z" transform="translate(-457.56 -192.87)"/><path class="cls-1" d="M836.9,229.46c-.55,3.12-1.09,6.25-1.65,9.37l-1.19-.17c.22-2,.44-4,.8-7.14-1.35,2.35-2.17,3.79-3,5.23-.34-.2-.66-.41-1-.62l4.71-7.34Z" transform="translate(-457.56 -192.87)"/><path class="cls-1" d="M969.84,411.43c1.22-2.85,2.37-5.61,3.72-8.79C975.07,409.18,974.21,411.14,969.84,411.43Z" transform="translate(-457.56 -192.87)"/><path class="cls-1" d="M794.89,335.47l-8.65,4.11c-.3-1.32-.6-2.61-1-4.11Z" transform="translate(-457.56 -192.87)"/><path class="cls-1" d="M930.47,416.19c-.15,1.07-.3,2.11-.45,3.18a93.67,93.67,0,0,0-9-3.67c-1.83-.56-3.9-.2-5.88-.28,0-.09,0-.17,0-.26,0-.28,0-.57-.05-.88h.28c4.84,0,9.66,0,14.48.06C930,414.34,930.24,415.54,930.47,416.19Z" transform="translate(-457.56 -192.87)"/><path class="cls-1" d="M903,852.29H892.32c.79-7.07,1.57-14,2.34-21l1.31-.24C898.25,838,900.53,844.89,903,852.29Z" transform="translate(-457.56 -192.87)"/><path class="cls-1" d="M1030.48,1060.62q-6.2,1.07-12.37,2.09l.45-1.18c-1.49-.78-2.95-2.09-4.5-2.22-12.95-1.24-25.51-3.44-36.71-10.8a130.12,130.12,0,0,0-17.53-9.89c-7.43-3.4-10.72-9.47-12.8-16.74a33.94,33.94,0,0,0-2.13-6.79c-5.42-10.28-4.18-21.54-4.46-32.4-.34-12.45,1.44-24.93,1.36-37.38q0-3.43-.14-6.87c-.34-10.36-1.21-20.71-1.93-31.06-.88-12.58-2.32-25.14-2.92-37.73-.17-3.5,1.81-7.1,2.73-10.67.37-1.52.56-3.09.84-4.64,2.22-6.45,4.78-12.8,6.54-19.36a58.43,58.43,0,0,0,1.46-13.17c0-.65,0-1.3,0-1.95s-.08-1.46-.14-2.19c0-.07,0-.13,0-.18-.09-1.08-.2-2.15-.27-3.22,0,0,0-.1,0-.15a22.72,22.72,0,0,1,.08-4.74c0-.36.09-.72.13-1.08.08-.73.15-1.46.2-2.19s.11-1.46.16-2.19a33.39,33.39,0,0,1,1.35-8.12q.18-.52.39-1l.22-.52c.16-.34.33-.69.51-1s.38-.68.59-1,.41-.68.6-1,.36-.71.53-1.08c.25-.55.48-1.11.69-1.69.64-1.73,1.13-3.54,1.65-5.29,2.47-8.25,4.71-16.56,7.18-24.8,1.44-4.82,1.7-9.09-2.51-13a105.74,105.74,0,0,1-9-9.42q-1.39-1.67-2.68-3.4c-5-6.78-10.12-13.51-14.73-20.52-.71-1.08-1.4-2.16-2.09-3.25a123.55,123.55,0,0,1-7.41-13.56c-.81-1.76-1.57-3.54-2.28-5.36-.47-1.21-.91-2.44-1.33-3.68s-.81-2.5-1.17-3.77-.69-2.56-1-3.87c-.07-.32-.16-.63-.26-.94a27.65,27.65,0,0,0-1.51-3.7c-.43-.93-.87-1.86-1.27-2.83-4.88,2.65-9.08,2.11-13.35-.43-1.35-.8-2.42-.87-3.11-.22a2.16,2.16,0,0,0-.42.55c0,.08-.07.15-.11.24a3.66,3.66,0,0,0-.18.53,7.3,7.3,0,0,0-.19,1.37c-.66,13.79-1.39,27.54-4.28,41.18-3,14.26-1.14,28.69,1.29,43,.08.49.17,1,.25,1.48.2,1.19.4,2.38.59,3.58.35,2.14.68,4.27.93,6.41l.15,1.28A68.5,68.5,0,0,1,897,778c0,1.3,0,2.59-.09,3.89s-.11,2.59-.19,3.89c-.3,5.18-.81,10.36-1.18,15.54-.09,1.3-.18,2.6-.25,3.89s-.14,2.59-.18,3.89a68,68,0,0,0,1.27,16.8,204.2,204.2,0,0,0,6.82,22.54c.53,1.55,2.53,3.49,4,3.66,4.56.47,9.21.17,14.13.17v-5.72c.17,5.38,3.31,6.3,7.79,5.77a30.62,30.62,0,0,1,7.16,0c1.31.15,2.49,1.13,3.75,1.76H924.6c2.24,5.79,4.24,11,6.32,16.37-.86-.77-2.45-1.57-3.07-2.84-1.83-3.7-3.16-7.65-4.91-11.4a3.72,3.72,0,0,0-2.58-1.8,97.34,97.34,0,0,0-11.2-.05c-1,.05-1.87,1.27-2.88,2-2.63-2.34-5.38-2.71-15.08-1.61-1.57,9.12-3.75,18.41-4.69,27.84a284.75,284.75,0,0,0-1.72,36c.22,7.85,2.58,15.08,6,21.92a117.91,117.91,0,0,0,7.44,12.65c.75,1.12,1.33,2.34,2.51,4.51l-4-1.54c1.35,11.74,1.91,23.25,4.19,34.43,2.17,10.59,6.39,20.72,9.23,31.2a187.32,187.32,0,0,1,4.3,21.79c.33,2.27-.66,5-1.74,7.12a18.34,18.34,0,0,0-.58,15.87,11.32,11.32,0,0,1,1,4c8.75,5.1,17.81-.06,26.91-.62l-3.81-2.47c.56-.33.78-.58,1-.58,9.83.3,19.66.51,29.45,1,2.34.11,4.58,1.66,6.93,1.91,7.26.76,14.36,4.28,21.81,1.57,1.41-.51,2.49-1.85,3.72-2.81,5.4,4.13,7.85,4,10.07-.67,4,3.7,12.41,4.49,17.52,1.63C1030.56,1067.42,1031.34,1065.25,1030.48,1060.62Zm-104-218.78-1,.16a2.37,2.37,0,0,1-1.23-.07.69.69,0,0,1-.13-.11c-.47-.53-.91-1.06-1.34-1.62,0,0,0,0,0,0-.27-.36-.53-.74-.79-1.12a13,13,0,0,1-2.22-8A14.74,14.74,0,0,1,920,829v0c.21.87.42,1.67.63,2.41,0,0,0,0,0,0,.2.75.4,1.43.6,2.07a16.82,16.82,0,0,0,2.64,5.66,8.29,8.29,0,0,0,.69.75,9.88,9.88,0,0,0,2.89,1.78A9.84,9.84,0,0,0,926.45,841.84ZM931,817.21v0a2.93,2.93,0,0,1-.1.37,3.86,3.86,0,0,1-.19.54c-.07.19-.16.38-.25.57a13.38,13.38,0,0,1-1.8,2.75c-.3.37-.63.73-1,1.07a14.51,14.51,0,0,1-2.44,2c-.23.15-.46.29-.69.41l-.34.17a4.76,4.76,0,0,1-1,.36,2.6,2.6,0,0,1-.59.1,12.4,12.4,0,0,1-4.29-.42c-3-.88-4.9-3.1-5.51-6.79q-.54-3.24-1.07-6.49c-.43-2.71-.85-5.42-1.22-8.14-.14-1.08-.28-2.17-.41-3.26s-.25-2.18-.35-3.27c-.16-1.63-.29-3.26-.39-4.9a42.54,42.54,0,0,1,.44-9.27,39.45,39.45,0,0,1,1.08-4.79c.16-.53.32-1,.49-1.56a42.8,42.8,0,0,1,6.3-11.92q.25-.33.48-.69a21.38,21.38,0,0,0,1.29-2.17s0,0,0,0a48.36,48.36,0,0,0,2.1-4.7l.65-1.61c.36-.9.73-1.78,1.12-2.66.08-.17.15-.35.23-.52l.1,0,.75.3c-.24.55-.48,1.1-.7,1.66-.46,1.11-.89,2.23-1.33,3.35a41.45,41.45,0,0,1-3.88,8c-8.81,13.2-10.6,26.78-3.7,41.3a3.18,3.18,0,0,1,.27.89,7.06,7.06,0,0,1,0,2v0c-.45,4.21-2,8.43,1.56,12.26,1.66,1.8,3.67,2.64,5.53,2a4.43,4.43,0,0,0,1.55-.88,3.81,3.81,0,0,0,.37-.34h0l.87-.89c1.44-1.49,2.82-3,4.3-4.51.58-.58,1.18-1.14,1.81-1.68h0A4.44,4.44,0,0,1,931,817.21Zm-8.44,70.9q1.82,9.17,3.62,18.33l-1,.22q-1.84-9.17-3.7-18.32ZM912,865.35l9.92,20.51-1,.48q-4.95-10.26-9.92-20.52Zm-7.54,66.13,3.27,9.06c.1.28.21.56.31.85l-2.65-.76c.53,2,1,3.86,1.55,5.74-1.85-1.4-2.47-1.86-2.59-5.78C904.26,938.62,904.33,935.77,904.43,931.48Zm-.79,14.27c.43,3.49,1.34,7,1.22,10.46-.55,16.07,1.88,31.7,6.23,47.1a18,18,0,0,1,.31,2.15C905.28,994.35,900.5,960,903.64,945.75Zm15.26,100.46c-1.39-7.24-2.45-14.54-3.64-21.82l1.74-.28c1.71,8.88.84,18.48,7.69,26.3C920.87,1050.74,919.38,1048.65,918.9,1046.21Zm-.35-46.47-1.31-.21,6.9-40,1.24.2Q922,979.76,918.55,999.74Zm7.61-42.58-1,0V917.51h1Zm3.69,68.47q1.17,6.46,2.36,12.92l-1.05.29q-1.27-6.46-2.54-12.92Zm-1.07,31.79c1.2-5.07,2.19-9.24,3.28-13.86C934.32,1048,933.06,1055.57,928.78,1057.42Z" transform="translate(-457.56 -192.87)"/></svg>