<?xml version="1.0" encoding="utf-8"?>
<!-- Generator: Adobe Illustrator 22.0.1, SVG Export Plug-In . SVG Version: 6.00 Build 0)  -->
<svg version="1.1" id="Layer_1" xmlns="http://www.w3.org/2000/svg" xmlns:xlink="http://www.w3.org/1999/xlink" x="0px" y="0px"
	 viewBox="0 0 1676.2 1692.2" style="enable-background:new 0 0 1676.2 1692.2;" xml:space="preserve">
<style type="text/css">
	.st0{fill:#0065AB;}
</style>
<title>man-figure</title>
<path class="st0" d="M1043.6,289.7c-2.9,3.4-4,7.4-5.7,11.1c-1.5,3.4-3.8,6.4-5.7,9.6c5.3-13.7,13.3-26.1,8.7-42.9
	c-6.9,2.3-13,4.4-19,6.3c-1.2,0.4-2.7-0.1-4-0.5c-17.6-5-35.5-5.9-52.9-0.7c-8.3,2.5-17.9,6.5-16.3,18.8c-7.8-0.5-8.2-1.5-3-11.1
	c-6.6,0.5-12.4,1.1-18.2,1.2c-23,0.3-45.9,0.3-68.8,0.8c-3.8,0.1-8.6,1.4-11.2,3.9c-5.9,5.5-12,6.9-17.2,1s-11-6.1-17.4-4.8
	c0.5,5.8,1,11.4,1.6,17c-0.6,0-1.2,0-1.8,0.1c-0.8-5.7-1.5-11.4-2.4-18c-25.2,0-49.4-0.2-73.6,0.3c-3.7,0.1-7.3,3.5-11.4,5.6
	c-2.5-2.7-6.1-6.7-8.9-9.7c4.4-1,8.6-1.9,12.8-2.8c-0.2,0.5-0.4,0.9-0.5,1.4c4.9,0.9,9.8,1.9,12.4,2.4c3.6-4.4,5.5-7.5,8.1-9.8
	c1.2-1,3.7-0.5,5.3-0.7c1.3-1,3-2.3,4.6-3.6c3-2.5,5.9-5,8.8-7.6c1.2-6.4,2.5-12.9,3.7-19.3c-11.4-0.8-12.6-9.8-15.1-18.1
	c-4.6,10-3.8,11.9,7.3,18.1c-3.3,3.7-5.8,8.7-9.8,10.4c-4.4,1.9-5.9,3.5-4.4,7.9c0.2,0.5-0.4,1.3-0.8,2.4l-7-2.7
	c-0.5,3.6-0.9,6.8-1.4,11.5c-2.4-3.4-3.8-5.3-6-8.4v8.2c-0.5,0.1-1,0.1-1.4,0.2c-1.9-4.3-3.7-8.7-5.6-13.1c-0.5,0.2-0.9,0.3-1.4,0.5
	c-0.3,3.5-0.6,7.1-0.9,10.6c-0.4,0-0.9,0-1.3,0c-0.5-2.9-1.1-5.7-1.8-9.4c-6.7,4.6-12.9,9-19.2,13.3c3.2,1.6,6.5,3.2,9.7,4.8
	c-0.4,0.6-0.8,1.2-1.2,1.8c-17.6-7.3-23.2-10.5-45.5-4.6c-10.4,2.7-20.7,5.9-30.7,9.6c-1.7,0.7-3.3,5.6-2.8,8.1
	c1.4,6.9,4,13.5,6.1,20.2c11.4,15.7,22.8,31.5,34.3,47.2c1.1,1.6,2.1,3.3,2.9,5.1c2.4,6.6,4,13.7,7.2,19.9
	c2.6,5.1,6.9,9.3,10.3,13.8c0.3-1.4,0.6-3,1.2-5.9c1.5,3.5,2.4,5.9,3.7,9c1.5-2.5,2.3-4,3-5c1.4,5.1,2.8,10.1,4.3,15.2
	c0.5-0.1,1.1-0.3,1.7-0.4c0.3-1.8,0.6-3.7,0.9-5.7c2.8,5.5,5.3,10.6,8.7,17.5c0.9-3.8,1.3-5.2,1.7-7.1c2.3,3.6,4.3,6.6,6.9,10.6
	c0.9-2.8,1.3-4.3,1.8-6c6.7,6.6,12.8,5,18.9-0.8c-0.8,1.6-1.7,3.1-2.9,5.5c3.5,0.1,7,0.4,10.4,0.9c0.6,0.1,0.8,2,1.3,3.3L744,425
	c0.1,1.5,0.2,3.1,0.4,5.2c-10.1-5.6-24.7-6.1-29.5-0.5c6.7,3.6,12.9,7.5,19.6,10.3c2.7,1.1,7.2-1.6,9.5-0.2
	c9.3,5.5,19.2,5.4,28.4,2.2c14.2-5,27.9-11.6,41.6-17.5l-7.6-0.4c-2.4-0.1-4.7-0.3-7-0.4c15.4-4.3,34.8,1.7,39.6-22.3
	c0.9,0.5,1.8,1.1,2.7,1.7c-1.5,5.2-2.9,10.4-4.4,15.6c1.7,1.1,3.8,2.3,7.5,4.5c-6.2,0.9-10.6,0.9-14.6,2.2
	c-8.8,2.8-17.5,6.3-26.2,9.5c-2.9,1-6.4,1.2-8.7,2.9c-25.9,19.5-52.8,8-79.5,3.5c-0.1,0.8-0.2,2.3-0.4,3.7c-0.7,0.2-1.4,0.4-2.1,0.6
	c-3.1-6.5-6.2-13-9.3-19.5c-0.7,0.4-1.4,0.7-2.1,1.1c1,2.3,2,4.7,3,7c-0.4,0.2-0.8,0.4-1.2,0.6c-1.9-3.5-3.8-7-5.7-10.5
	c-0.7,0.2-1.5,0.4-2.2,0.6c0.8,3.1,1.5,6.3,2.3,9.4c-0.5,0.3-0.9,0.6-1.4,0.8c-2.1-3.5-4.3-7.1-6.4-10.7c-0.9,0.4-1.7,0.7-2.6,1.1
	c4.3,11.6,8.5,23.1,12.8,34.6c-10.3-3.8-5.3-17.2-12.9-23.7c-2.3,12.8,1.7,29.6,9.4,39.5c0.8-1.6,1.5-3,2.3-4.4
	c0.5,0.3,1,0.5,1.5,0.7c0.8,7.5,1.5,15,2.3,22.5c-0.9,0-1.9,0.1-2.8,0.2c0-4.4,1.5-9.5-0.3-13c-3.6-7-9-13.2-12.8-18.5
	c0,1.6-0.9,5.6,0.1,9c8.9,28.8,10.9,59.6,25.6,86.5c3.4,6.1,7.6,11.8,11.5,17.7c1.2-0.2,2.4-0.4,3.5-0.5c-2.8,7.3-6.1,14.5-8.1,22
	c-3.7,13.7-7.3,27.5-9.8,41.5c-2.9,15.9-3.4,32,11.8,42.7c6,4.3,13.7,6.1,20.9,9.1c-9.5,2.7-17.9-2-27.6-6.3
	c2.7,3.6,4.4,5.8,6.1,8.1c-0.4,0.4-0.9,0.8-1.3,1.2c-3.5-3.1-7-6.1-11.3-9.9c-2.1,3.7-4.5,6.6-5.7,10c-3.3,9.7-7.1,19.4-8.7,29.4
	c-3.8,23.9-13.3,46.9-11.3,71.6c1.2,14.9,2.8,29.7,4.1,43.4h107.6c-3.4-5.3-5.7-8.9-8-12.5c0.3-0.2,0.7-0.4,1-0.6
	c2.1,2.3,4.3,4.7,6.4,7c0.3-0.2,0.5-0.4,0.8-0.6c-1.5-3.1-3-6.1-4.6-9.2c6.5,11,20.2,9.3,30.1,15.7c-2.7-4.5-4.8-7.9-7.5-12.2
	c4.8,3.4,8.4,5.9,12,8.5l1.1-1.6l-3.3-10.8c5.1,5.6,9.6,10.6,14.8,16.3c4,0.7,11.8-3.8,13,5.4h-23c-1,12.1,6.2,24.3-3,35.7v-8.7
	l-2.8-0.8c-2,5.8-4.7,11.5-5.9,17.4c-4.6,21.9,2.6,22.8,19.8,22.6c4.6-0.1,6-2.2,4.8-7.4c-1.7-7-1.7-14.3-2.6-21.5
	c-0.2-1.4-0.9-2.7-2.1-6.1c-0.8,7.1-1.3,11.8-1.8,16.5c-0.6-0.1-1.2-0.2-1.7-0.3c1.1-15.2,2.3-30.4,3.4-45.6
	c0.9,0.6,1.7,1.1,2.5,1.7l5.6,0.3c-4.1,8.3-4.5,16.3,0.1,24.6c1.2,2.2-0.8,6.1-1,9.2c-0.4,5.9-2.5,12.8-0.3,17.6
	c2.4,5.5,8.5,9.6,13.6,13.6c1,0.8,5.8-1.4,7.1-3.4c2.5-3.6,3.7-8.1,5.4-12.2c2-4.8,3.8-8.9-0.8-14c-2.6-3-3.5-8.6-3.1-12.8
	c0.6-7.2,2.7-14.1,4.2-21.3c1.8,10,2.6,20.6,5.8,30.3c3.6,10.9,0.3,19.2-6,27.5c-1.1,1.5-1,3.9-1.5,5.9c3.9-1.6,7.4-4.1,10.3-7.3
	c5.3-5.7,7-20.7,3.3-26.9c-6.8-11.3-7.1-15.3-2-25.9c0.3,5.4-1.3,11.9,1.1,16.3c6.9,12.8,7.7,25.3,2.5,38.5
	c-0.6,1.7-1.1,3.9-0.6,5.5c4.7,13.7,8.5,27.9,14.9,40.8c9.6,19.4,20,38.6,32.2,56.5c9.5,14,22.3,25.8,33.6,38.5
	c3.1,3.5,6.3,7,10.8,11.9c1.6-9.3,3.5-16.4,3.9-23.7c1.7-28.5,3.9-57.1,4.2-85.6c0.2-30.2-1.1-60.4-2.6-90.6
	c-0.8-14.9-5.6-18.7-20.5-18.5c-24.5,0.2-49,0.7-73.5,1.5c-2.1,0.1-4.1,2.4-6.1,3.7c0.1-0.8,0.2-1.6,0.3-2.4
	c-6.5-0.8-13-1.6-19.5-2.4c1.6-3.5,10.3-7.3,14.7-6.2c5.8,1.4,12.1-3.5,12.8-9.7c0.3-1.5,1-2.8,2-3.9c8-9.7,5.3-20.5-6.4-25.7
	c1.4-0.6,3-1.8,4.1-1.4c10.9,4,14.3,17.4,7.7,28.8c-1.7,3-2.8,6.3-4.8,10.8c17.9-4.4,11.8-21.1,19.8-29.5c0.9,0.7,2.3,1.7,4.2,3.3
	c1-3.7,1.8-6.6,2.5-9.5c0.9,0.3,1.7,0.8,2.6,1.1c-1.7,3.4-3.6,6.8-5.2,10.2c-2.8,5.8-5.6,11.6-8,17.5c-0.6,1.4,0.9,3.9,0.2,4.9
	c-1.9,2.4-4.5,4.1-6.2,5.6h72.4c1.9-53,11.3-105-2.9-158.2c-3.3,4.2-5.6,7.2-7.8,10.1l-2.4-1.4c1.5-2.7,2.8-5.6,4.7-8
	c2.8-3.5,6.8-6.3,8.9-10.1c7.2-13,7.2-26.3,0.9-40c-2.3-5.2-4.1-11.7-3.2-17.1c3.1-17.7-6.2-30.8-14.3-44.4c0.6-0.7,1.2-1.4,1.8-2.2
	c2.4,4.2,4.8,8.3,7.2,12.5l3.9-1.2c8.2-33.1,16.4-66.1,24.6-99.1c-1.2,0.8-2.9,1.9-4.7,3.1c7-11.2,13.9-21.8,10.7-35.5
	c-5.1,15.3-12.5,25.3-16.9,21.8c14.4-13.8,20.2-40.9,9.6-48.1c-1.8,4.6-3.3,9.1-5.4,13.4c-1.9,3.7-4.4,7-6.7,10.4
	c-0.4-0.3-0.8-0.5-1.2-0.8c3.3-6.6,6.5-13.3,9.7-19.9c-0.9-1-1.9-2-2.9-2.9c-4.7,2.4-9.9,4.1-13.9,7.3
	c-19.2,15.4-57.8,17.1-84.1,4.6c-2.8-1.4-5.6-3.2-8.5-3.9c-10.6-2.2-21.3-4.1-32-6c0-0.6-0.1-1.2-0.1-1.8c4.5-0.7,8.9-1.4,13.7-2.3
	c-9.8-16.8-10.6-22.6-5-28.3c2.4,6.7,5,13.8,7.7,21.1c0.4-0.4,1.5-1.3,2.6-2.3c2.7,5.3,5.1,10,8.3,16.2h3.2c0-0.6,0-1.1-0.1-1.7
	c0-0.2,0-0.3,0-0.5c2-2.9,3.9-5.8,5.8-8.7c-0.1,0.8-0.1,1.7-0.2,2.6c5.4,0.4,10.9,0.3,16,1.5c3.8,0.9,7.2,3.6,10.8,5.6
	c-1,0.9-1.9,1.8-2.9,2.7c-0.3,2.1-0.6,4-0.8,6.1c8.7,4.3,6.3-4,8.3-7.5c1,1.7,2,3.3,3,4.9c-0.9-3.3-1.9-6.5-2.9-10.1
	c3.7-1.9,8.7-4.4,14.3-7.3c-0.9,1.9-1.6,3.4-2.5,5.4l6.2,2.6c-3.9,0.8-5.8,1.2-8.2,1.7c6.8,3.8,6.6,3.6,10.9-2.4
	c0.9-1.2,3.7-1,6.2-1.5c-3.6,10.1-9.1,12.1-20.8,9.3c2,1.4,4,2.7,6.3,4.2c-2.3,0.1-4.2,0.3-6.2,0.4c4.3,6.9,11,2,15.9,2
	c7.7,0,15.4-4.3,23.1-6.7c0.1-0.8,0.2-1.6,0.3-2.4c-5.6-1-11.1-2.1-16.7-3.1c7.8-2.3,15.5-2.3,22.9-3.5c3.6-0.6,7.9-2.8,9.8-5.7
	c4.6-6.6,8.4-13.7,11.3-21.2c2.4-6.2,7.5-12.4,3.4-19.9c-0.2-0.3,0.4-0.9,0.8-1.9c1.1,2.1,2.1,3.9,3,5.8c9.8-6.9,19-13.9,28.6-20.1
	c10.7-7,22.6-12.9,19.8-29c-0.3-1.6,0.7-3.4,0.7-5.1C1043.6,311.6,1043.6,300.6,1043.6,289.7z M714.1,340.8h-12.9
	c8.1-4.4,16.1-8.7,24.7-13.4C721.6,332.3,717.6,336.8,714.1,340.8z M733.9,334.9c-1.1-1.8-2.2-3.7-3.4-5.5c-1.4-2-2.9-4-3.2-4.5
	c0.6-8.6,1.1-15.8,1.5-23.1l1.4-0.3c0.3,4.9,1.9,10.2,0.4,14.6c-2.2,6.6-0.8,10.9,4.1,15c0.6,0.5,0.7,1.7,1,2.6
	C735.2,334.1,734.5,334.5,733.9,334.9z M748.5,329.7c-4.8-7.8-9.5-15.6-14.3-23.5c0.5-0.3,0.9-0.5,1.4-0.8
	c5.2,7.4,10.3,14.9,15.4,22.4C750.1,328.4,749.3,329,748.5,329.7z M775.8,425c-6,0.5-12,2.2-17.9,3.2c-0.8,0.1-1.8-0.9-2.7-1.5
	c7.8-3.4,1.5-6.8-0.7-10.1c0.5-0.3,1-0.6,1-0.6c10.8,11.6,24.3,5.3,36.7,5.8c0.8,0,1.5,0.8,2.2,3.1
	C788.1,424.8,781.9,424.4,775.8,425z M709.2,462.5c1.3,6.6,2.5,13.1,4.1,21.2c2.1-2.9,2.9-3.8,3.9-5.2c1.3,4.9,2.5,9.2,3.7,14
	C711.6,485.8,708.8,478.9,709.2,462.5z M758.9,740.4c-3.4-14.9-6.9-29.7-10.3-44.5l1.5-0.4c3.5,14.8,7,29.7,10.5,44.5
	C760,740.1,759.5,740.3,758.9,740.4z M783.8,619.8c-1.2-1.8-3.8-5.5-6-9.3c-2.2-3.9-4-8.1-6.3-13c3.3,2.4,6.3,4.7,9.6,7.2
	c1.9-3.8,4-7.9,5.2-10.5C785.5,602.1,784.6,611.7,783.8,619.8z M789.4,798c0.6,4.5,1.1,8,1.6,11.4c-5.6-7.5-5.4-10.4,1.8-21.6
	c-1.2,7.7,0.8,13.5,8.2,16.3V804c2.7,1.2,5.4,2.3,7.8,3.3C803.1,810,800.5,808.9,789.4,798z M803,788.6c-4,5.9-3.8,7,3,15.8
	c-2-0.2-3.5-0.4-5.1-0.5v0.1h-0.1l0,0h0.1c-0.3-0.5-0.5-1-0.7-1.4c-0.5-1.1-0.9-2.1-1.3-3c-3.1-8.2-1.2-12.2,7.4-16
	c-2.6,11.2,2.4,17.5,12.8,20.4C806.8,802.8,804.1,800,803,788.6z M902,885.6c3.4,17.4,8.7,33.6,22.3,46
	C913.9,929.9,899,897.9,902,885.6L902,885.6z M896.4,878.2c-4.2-7.6-8.4-15.2-13.2-24.1C893.8,859.2,895.5,868.4,896.4,878.2
	L896.4,878.2z M940.9,690.6l1.9,0.5c-3.3,13.6-6.5,27.2-9.8,40.8c-0.7-0.2-1.4-0.4-2.1-0.5C934.3,717.7,937.6,704.1,940.9,690.6
	L940.9,690.6z M927.4,741.3c-5.6,6.7-11.1,13.4-16.7,20.1l-1.8-1.5l16.9-19.9L927.4,741.3z M910.6,586.9
	c-3.7,10.1,14.6,17.2,3.6,27.6c-3.3-6.3-7.2-12.3-9.3-18.9C904.1,593.2,907.9,589.4,910.6,586.9z M908.7,662.1v30.5l-1.4-0.1V662
	L908.7,662.1z M900,774.3c3,2.5,6.2,5.2,9.9,8.2c0.5-0.3,1.9-1,4.2-2.1c-1.1,7.7-2,14.8-3,21.9c-0.7-0.1-1.4-0.2-2.2-0.2
	c0.4-3.7,0.8-7.5,1.3-12.3c-3.2,4.3-5.7,7.7-8.3,11.2c-0.7-0.3-1.4-0.6-2-1c5.9-6.9,9.2-14,3.1-21.8c-1,5.3-2.1,10.7-3.1,16.1
	c-0.4-0.1-0.8-0.2-1.2-0.3C899.1,788,899.5,781.9,900,774.3L900,774.3z M880,799c0.7-0.6,1.5-1.1,2.2-1.5c1,1.2,2.5,2.3,2.8,3.7
	c1.2,5.2,3.8,11,2.4,15.5c-1,3.4-7.5,5.1-11.9,6.6C886.5,813,886.5,813,880,799L880,799z M826.7,478.1c3.8,1.1,8.8,1.1,11.1,3.6
	c3.3,3.6,4.7,9,6.8,13.7c-1,0.3-2.1,0.6-3.1,0.9c-1.5-10.8-1.5-10.8-15.5-16C826.3,479.6,826.5,478.8,826.7,478.1z M849.7,676.6
	c1.2,2.8,1.6,5.9,2.8,10.4l-4.9-3.9c-0.8,1.4-1.3,3.1-2.4,4s-2.9,0.9-4.3,1.3c-0.3-1.3-1.4-2.9-0.9-3.7c3.9-6.8,1.5-11.6-3.9-16.4
	c-2.9-2.6-3-5.7,1.9-7.7c5.6-2.2,10.8-4.9,15-2.2v15.8c-1.9-1.8-3.8-3.4-5.7-5.1l-1.7,1.3C846.9,672.4,848.8,674.3,849.7,676.6
	L849.7,676.6z M838.1,623.8c2.2,2,3.8,3.4,6.2,5.6v-14.2c0.7-0.1,1.3-0.1,2-0.2c0.8,7.8,1.5,15.6,2,20.6
	c-6.8,4.3-12.2,7.7-17.4,11.1l-1.5-1.4c2.2-4.3,4.4-8.6,7-13.5c0.3,0.2,1.7,1,4.2,2.6C839.5,630.3,838.9,627.5,838.1,623.8
	L838.1,623.8z M842.6,612.2c-2.2-5.9-4.1-10.9-5.7-15.4c2.9,1.1,7.2,2.7,12.5,4.8C847.8,604.2,845.4,607.8,842.6,612.2L842.6,612.2z
	 M827,806c5.7-1.2,8.6,3.1,10.4,7.9c1.2,3.2,0.7,7,1.2,12.6C833.8,818.1,830.5,812.3,827,806z M856.2,826.8c1.7,2.7,1,6.9,1.5,10.3
	c0.3,1.9,0.9,3.8,1.4,5.8c-0.1,0-0.1,0-0.2,0c-1.4,0.8-2.7,1.6-4.1,2.4c-0.9-1.9-3.2-4.9-2.6-5.7c8.3-11.7-5.9-17.1-7.1-26
	c-0.1-1.2-2.7-1.8-3.1-3.1c-2.6-8.2-8.2-12.6-16.5-14.8c3.1,0.3,6.2,0.6,9.7,0.9v-13.5h0.8c0.8,4.4,0.9,9,2.4,13.2
	c1.5,4.5,4.3,8.5,7,13.6c3.6-8.8,5.4-17.9,17.1-19.4C850.4,800.3,848.5,814.5,856.2,826.8z M846.7,578c0.7,1.5,1.2,2.9,2.1,5
	c0.7-2.2,1.1-3.7,1.3-4.1c2.9,4.4,6.1,9.2,10.8,16.4c-8-4.8-14-8.4-20.4-12.2C841.6,582.2,844.1,580.2,846.7,578L846.7,578z
	 M858.2,302.7c-0.2,1.1-0.8,2.1-1.8,2.8c-7.2,5.6-14.4,11.3-22.1,17.3c-2.2-4.1-4.3-8-6.5-12l0.8-0.9c2.7,2.4,5.5,4.8,7.6,6.6
	c5.9-4.6,11.5-9,17.5-13.6c0.9-5.3,2-11.9,3.2-18.4c0.4,0.1,0.9,0.2,1.3,0.3C858.2,290.8,858.3,296.7,858.2,302.7z M922.4,308.4
	l8.5,6.4c-4.8-17.5-4.8-17.5,9.9-22.1c-2.7,5.2-14.4,0.8-11.1,12.1c2.4,8,8.5,7.4,14.4,9.7c-0.3-2.1-0.5-4-0.9-6.8l12.7,17.1
	c1.8-2,2.9-3.3,4-4.6c2.4,4.9,4.8,9.7,7.2,14.5C956.4,318.6,933.9,323,922.4,308.4L922.4,308.4z M986.4,331.4
	c-7.2-3.1-14.4-6.2-21.6-9.3c-1.7-0.8-3.3-1.5-5-2.2l0,0c-4.8-5.4-9.7-10.8-14.4-16.4c-1.4-1.8-2.1-4.1-1.9-6.4
	c1.7,2.4,3.4,4.8,5.1,7.3c0.6-0.2,1.2-0.3,1.7-0.4c-0.5-4.1-1.1-8.2-1.6-12.3c1.7,4.3,3.3,8.5,4.8,12.8c3.4,9.8,11.7,14.3,20,18.6
	c4.4,2.3,9.2,3.9,13.8,5.8C987,329.7,986.6,330.5,986.4,331.4L986.4,331.4z M1001.7,352c-3.4,4.5-5.6,9.9-8.1,14.6
	c-1-14.3,12-19.4,18.8-28.9c0.5,0.5,1.1,1,1.6,1.4C1009.8,343.4,1005.2,347.2,1001.7,352L1001.7,352z M1389.7,1508.5
	c-0.9-3.7-1.1-9.2-2.9-9.8c-5.5-1.8-12.3-2.9-17.6-1.3c-8.1,2.5-15.4,7.5-23,11.5c-0.2-0.4-0.4-0.9-0.6-1.3c5-3.1,9.8-6.2,16.3-10.3
	c-10.4,1.4-18,2.6-25.6,3.3c-5.3,0.5-10.8-0.4-16,0.3c-10.4,1.5-20.5,0.6-30.1-3.7c-3-1.3-5.1-4.7-7.6-7.1c4.4-1.6,1.4-3.3,0-5.1
	c-8.8-12.5-19.4-24.2-26-37.9c-9.5-19.7-16.2-40.7-23.8-61.3c-5.9-15.8-11.4-31.9-17.2-47.8c-4.9-13.6-10.1-27-15.9-40.2
	c-8.6-19.7-20.8-38-32.6-56.1c-11.6-17.7-24.7-34.3-36.9-51.1c-0.2,0.2-1,1.1-2,2.2c-1.4-10.2-2.6-19.4-4-29c-1.6,2-3,3.6-3.4,4.1
	c-1.3-6.7-2.8-13.6-3.8-20.6c-0.3-1.9,0.6-3.9,0.9-5.8c0.4-2.8,1.7-6,0.8-8.3c-3.8-9.4-8-18.7-12.5-27.8c-2.7-5.3-7.2-9.8-9-15.2
	c-3.2-9.4-4.7-19.4-7.6-28.9c-1.5-5.1-4.7-9.6-7.1-14.4h-0.5c-3.7-7.8-8.2-14.6-7.9-24.4c0.5-14.8-1.7-29.8-3.2-44.6
	c-0.7-6.8-3.3-13.4-3.9-20.1c-2.5-26.2-11.2-51.4-25.3-73.7c-5.2-8.2-11-16-15.6-24.5c-10-18.4-19.4-37.2-29.1-55.8
	c-1.2,1.2-2.4,2.2-3.8,3.5v-22.6c0.4,0,0.8-0.1,1.3-0.1c0.8,5.2,1.5,10.4,2.6,17.8c7.4-17.9-4.4-70.1-16-80.6
	c0,14.3,0.4,29.3,0,44.3c-1,31.7-6.7,63,0.5,94.9c4.5,20,4.6,40.9,12.2,60.4c-2-5.2-4.1-10.5-6.6-17.1c0,11.5,0.4,21.5-0.1,31.3
	c-1,20-2.2,39.9-3.7,59.8c-1.7,23-3.9,45.9-5.7,68.9c-0.2,2.9,0.3,5.9,1.6,8.5c4.7,9.1,10.3,17.8,14.6,27.1
	c9.7,20.6,18.9,41.4,28.4,62c6.1,13.3,17.1,24.2,18.9,39.6c0.7,4.5,1.7,9,3.2,13.3c6.2,19,13.3,37.6,18.6,56.8
	c5.4,19.7,8.6,39.9,23,56.1c7.5,8.5,13.1,18.7,20.3,27.5c6.1,7.6,14.5,11.6,25.5,13.2c-1.1,3.7-2.8,6.3-2.2,8.1
	c0.2,0.8,0.5,1.5,0.7,2.2c3.3,10,7.7,19.8,10.2,30c4.1,17.7,23,24.1,29.2,40.2c1.6,4.1,6.6,6.9,10.4,10
	c16.2,12.7,29.7,28.6,39.7,46.7c7.7,14.1,16.3,27.6,17.4,45c0.7,10.9,6,21.7,10.5,31.9c1.7,3.9,6.7,7.1,11,9
	c7,3.2,35.9-14.2,37.4-21.8c2.2-10.8,6.2-13.9,18.1-13.7c6.3,0.1,12.7,1.2,18.8,0.3c5.4-0.8,10.5-3.8,15.7-5.9
	c-0.3-1-0.5-1.9-0.8-2.8c-3.6-1.3-7.2-2.6-10.8-3.9c0.2-0.7,0.4-1.4,0.6-2.1c6.1,1,12.3,1.9,19.4,3c-1.9-3.3-3.2-5.5-5.1-8.7
	c12.9,3.1,27.9-2.6,32.9-13c1.8-3.8,1.3-9.8-0.6-13.7c-1.2-2.4-7.3-4.3-10.3-3.4c-2.5,0.8-4.7,5.9-5.1,9.2
	c-0.9,8.1-4.5,10.3-12.6,7.6c0.5-3.4,0.9-6.9,1.3-10.3c-0.4-0.2-0.8-0.4-1.2-0.5c-2.4,4.7-4.9,9.3-7.3,13.9c-0.5-0.2-1-0.4-1.5-0.6
	c0.5-2.9,1.1-5.8,1.8-9.4c-8.9,2-17.2,3.8-25.5,5.6c-0.2-0.8-0.3-1.5-0.5-2.3c1.3-0.3,2.6-0.5,3.9-0.8c14.1-3,27.7-7.9,40.4-14.6
	c0.8-0.5,1.7-0.8,2.5-1.2c0.4-0.1,0.8-0.3,1.2-0.5c0.8-0.3,1.6-0.5,2.4-0.7c3.6-0.9,7.5-0.3,10.6,1.8c0.3,0.2,0.6,0.4,0.9,0.7
	c0.4,0.3,0.7,0.6,1.1,0.9c0.6,0.5,1.1,1,1.5,1.5c0.7,0.8,1.3,1.7,1.9,2.6C1389.8,1508.7,1389.7,1508.6,1389.7,1508.5z
	 M1054.9,1012.1c5.3,8.7,10.5,17.5,15.8,26.2c0.3-1.3,0.6-2.7,0.9-4c0.8-0.1,1.6-0.3,2.4-0.4c2.2,13.2,4.5,26.5,6.7,39.7h-0.8
	c-3.2-11.9-6.4-23.7-9.6-35.5c0.5,3.3,1,6.7,1.5,10c0.3,2.1,0.7,4.2,1,6.3c-6.4-13.9-12.8-27.9-19.2-41.8
	C1054.2,1012.5,1054.6,1012.3,1054.9,1012.1L1054.9,1012.1z M1074.4,1057.4c-0.3,0.2-0.5,0.5-0.8,0.7c-0.2-1.2-0.3-2.4-0.6-3.6
	C1073.5,1055.5,1073.9,1056.5,1074.4,1057.4L1074.4,1057.4z M1010.5,1087.4c-3.6-6-3.6-6,0-34.8V1087.4z M1022.5,1112.9
	c-1-1.2-1.8-2.5-2.6-3.9c10.3,9.8,24.2,16.3,29,31.3c1,3,6.3,6.2,9.8,6.3c4.6,0.2,6.3-4.2,6.6-9.2c0.3-3.8,2.9-7.4,4.4-11.1
	c0.8,0.3,1.5,0.6,2.2,1c-2.9,6.9-4.4,15.1-9.1,20.4c-5.4,6.1-13.4,4.6-15.7-3C1042.9,1130.6,1031.6,1122.8,1022.5,1112.9
	L1022.5,1112.9z M1069.5,1217l-25.9-19.1c0.5-0.6,0.9-1.3,1.4-1.9l26,19C1070.5,1215.7,1070,1216.4,1069.5,1217L1069.5,1217z
	 M1066.5,1151.7c5.2,11.9,11,14.3,23.9,12.2c3.5-0.6,7.7,2.4,11.4,4.2c2.1,1,3.9,4.4,5.7,4.3c10-0.6,6,3.4,2.8,7.4
	c-0.6,0.8-1.1,1.8-2.5,4.3c-2.3-2.8-4.5-4.6-5.6-6.9c-3-6.3-6.2-10.5-14.8-9.4C1075.7,1169.2,1066.3,1161.3,1066.5,1151.7
	L1066.5,1151.7z M1116.6,1205.8c-0.5,0.3-0.9,0.5-1.4,0.7c-7.4-10-21.4-9.3-29.6-17.8c-4.8-4.9-8.6-10.7-12.8-16.1
	c0.7-0.5,1.4-1.1,2.2-1.6c1.9,3.1,3.8,6.2,5.6,9.3c4.4,7.4,11.4,10.5,19.3,13c6.5,2.1,12.3,6.4,18.4,9.7
	C1117.7,1204,1117.2,1204.9,1116.6,1205.8L1116.6,1205.8z M1128.2,1269.4c9,14.9,18,29.8,26.9,44.8c-0.7,0.3-1.4,0.7-2.1,1
	c-8.8-14.9-17.7-29.8-26.6-44.8L1128.2,1269.4z M1124.6,1334.7c0.4-0.1,0.8-0.2,1.2-0.3c3.7,13.3,7.3,26.7,11.2,40.6
	c-1.6-1.9-2.8-3.5-5.4-6.8c0.1,0,0.2,0.1,0.4,0.1C1129.4,1356.2,1127,1345.5,1124.6,1334.7L1124.6,1334.7z M1183.5,1442.7
	c-13.5-17.7-26.2-34.5-39-51.2c0.4-0.3,0.8-0.5,1.2-0.8c12.9,15.5,25.8,30.9,38.6,46.5C1184.9,1437.9,1183.9,1440.1,1183.5,1442.7
	L1183.5,1442.7z M1184.9,1376.8c-2.8-6.1-5.7-12.3-8.5-18.5c-6.1-13.1-12.1-26.2-18.2-39.4c0.7-0.3,1.4-0.7,2-0.9
	c6.1,13.1,12.1,26.3,18.2,39.4c2.8,6.2,5.7,12.3,8.5,18.5C1186.3,1376.2,1185.6,1376.5,1184.9,1376.8L1184.9,1376.8z M1187.3,1383.4
	c0.7-0.4,1.4-0.8,2.1-1.2c10.7,34.3,21.4,68.6,32.2,103c-0.7,0.2-1.4,0.4-2,0.7C1208.8,1451.7,1198,1417.5,1187.3,1383.4
	L1187.3,1383.4z M1236.2,1532.7c-5.7-14-11.4-28-17.2-42l2.6-1.1c5.8,14,11.5,28,17.3,42C1238,1532,1237.1,1532.4,1236.2,1532.7z
	 M1265.7,1533.4c-2.5-7.5-5.1-15-7.7-22.5l2.3-0.9c3,7.3,6,14.7,9,22C1268.1,1532.5,1266.9,1533,1265.7,1533.4L1265.7,1533.4z
	 M1277.3,1515.3c-5.1-6.4-10.3-12.9-15.4-19.3c7.3,4.6,15.1,8.9,17.8,17.3C1278.8,1514.1,1278.1,1514.7,1277.3,1515.3L1277.3,1515.3
	z M1389.8,1508.7c0,0.1,0.1,0.3,0.1,0.4c0,0,0-0.1,0.1-0.2S1389.8,1508.8,1389.8,1508.7L1389.8,1508.7z M333.4,1533.7l0.2,0.1
	l0.1-0.1C333.6,1533.8,333.5,1533.8,333.4,1533.7z M684.9,1003.8c-12.4,10.6-23.6,20.2-34.8,29.9c-0.7-0.8-1.4-1.5-2.1-2.2
	c1.6-1.6,3-3.3,4.7-4.8c9.7-8.3,19.5-16.5,29-25.1c1.9-1.9,3.1-4.5,3.1-7.2c-0.6-9.4-2.3-18.7-2.7-28.1c-1.1-22.2-2.5-44.4-2.3-66.6
	c0.5-33.5,7.5-67.2-5.5-100.8c-6.3,9.6-12.3,19.5-19,28.8c-21.5,29.4-37.1,61.4-43.3,97.5c-0.4,2.2-0.6,4.7-1.8,6.5
	c-21.1,32.6-26.4,69.3-27.8,107c-0.1,4.7-0.7,9.9-2.7,14c-4.8,10-10.7,19.6-16,29.1v-9.9c-14.2,15-27.7,28.9-31.9,48.9
	c-0.2,1.4-0.9,2.7-1.8,3.7c-10.1,9.8-21.1,19-30.5,29.6c-10.8,12.1-20.1,25.5-30.2,38.3c-22.4,28.2-41.8,57.9-50.7,93.3
	c-1.1,4.2-2,8.5-2.9,12.7c-1.6,7.2-3.1,14.3-5.2,21.3c-5.6,19.1-12.6,37.8-17.7,57c-3.4,12.9-4.7,26.4-6.9,39.6
	c0.9,0.2,1.8,0.4,2.6,0.6l4.6-15.3c0.7,0.2,1.4,0.4,2,0.6c-0.8,3.2-1.1,6.7-2.5,9.6c-10,21.3-10.9,46.3-26.1,65.4
	c-0.9,1.1-1.3,2.6-1.2,4c0.4,2.4,1.1,4.7,1.9,7c1.6-1.7,3.3-3.3,4.8-5c1.9-2,3.7-4,5.6-6c-2.3,9.6-5.6,11.8-13.6,14.8
	c-5.9,2.3-12.1,5.5-16.6,9.9c-5,4.8-9.9,7.3-16.8,6c-0.6-0.1-1.4,0.5-2.6,1c1.2,1.9,2.1,3.4,3.1,5c-10.4,3.6-14.2,12.9-9,23.8
	c5.8-7.9,11.2-15.4,16-22c2.3,0.7,5.4,1.3,8.2,2.7c1.5,0.9,2.9,2,4.1,3.3c-4.3,2.1-7.9,3.5-10.9,5.6c-2.4,1.7-4.1,4.3-6.1,6.5
	c7,2,13.2-0.3,19.3-3.8c4.2-2.4,8.9-3.9,13.4-5.7c0.1,0.5,0.3,1,0.4,1.5c-5.7,4.2-11.3,8.3-17.1,12.5c4.4,1.3,10.8,1.3,12.2,4
	c4.6,8.6,7.2,6,10.7-0.3c1.3-2.1,2.7-4.1,4.2-6c0.3-0.4,1-0.7,2.3-1.4v10c3.9-4.3,6.6-7.3,10.8-11.8c-1.4,4.8-2.1,7.3-2.9,10.3
	c2,1.2,4,2.5,5.7,3.5c1.7-2.8,3.2-5.2,5.3-8.8c0.3,5,0.3,8.3,0.8,11.5s1.4,6.2,2.2,9.3c-0.6,0.2-1.2,0.3-1.8,0.4
	c-1.3-2.3-2.7-4.6-4.3-7.4c-3.4,10.4-5.6,10.8-13.3,3.7c-4.1-3.8-9.7-7.6-13.6-1.8c-1.9,2.9,0.1,9.9,2.5,13.7
	c3.2,5,14.5,6.9,17.6,4.3c7.2-6,7.2-6,9.7,5.3c4.8-6.4,9.5-11.3,12.3-17.2c1.2-2.4-1.9-6.8-2.9-10.3c-0.4-1.4-0.6-2.8-0.4-4.2
	c2.3-14.5,4.6-29,7-43.5l2.3,0.5c0.7,1.7,1.4,3.3,2.9,6.8c1.6-7.9,3.7-13.6,3.9-19.6c1-25.7,9.3-48.7,23.5-70.3
	c11.1-16.8,20.7-34.7,30.7-52.3c4.3-7.6,8.4-15.4,12.5-23.2c0.9-1.8,1.9-3.5,2.8-5.3c0.4,0.1,0.8,0.3,1.2,0.5
	c-0.7,2-1.3,3.9-1.9,5.9c-0.5,1.5-1,3.1-1.5,4.6c0.7,0.4,1.3,0.7,2,1.1c0.9-1.3,1.8-2.7,2.7-4c6.9-10.3,13.7-20.7,21-30.7
	c11.2-15.2,17.2-32.5,23.3-50.2c8.1-23.4,18-46.2,28.6-68.5c4.1-8.5,11.5-16,18.5-23c8.2-8.2,18-15,26.4-23
	c5.7-5.3,10.2-11.8,15.9-18.4c-4.1-2.1-6.7-3.4-9.4-4.7c-4.9,12.7-19.5,22.3-30.1,21c-3.3-0.3-6.7,0.5-9.5,2.3
	c-5.3,3.3-10.1,5-15.2,0.2c6.1,2.2,10.8,0.5,15.1-4.4c1.4-1.6,4.7-2.4,7.1-2.2c17.7,1.7,29.6-8.9,29.1-26.2c0.1-1.2,0.4-2.4,0.9-3.6
	c0.6-0.1,1.2-0.1,1.8-0.2l3.2,9.9c7.1,3.7,11.4,0.4,15.1-5.8c2.1-3.7,4.8-7,8-9.8c21.6-19.2,32.3-44.8,39.8-71.6
	C687.2,1027,684.9,1015.5,684.9,1003.8z M439.5,1254.4c-5.7,16.2-11.3,32.3-17,48.5c-0.7,2-1.4,4.1-2.1,6.2c0.4-2.3,0.8-4.6,1.2-6.8
	C424.8,1285.4,429.9,1269.1,439.5,1254.4z M400.8,1501c0-2.8,0.2-5.6,0.5-8.4c0.6-2.4,1.3-4.8,2.1-7.1
	C408.6,1490.4,408.6,1490.4,400.8,1501z M401.3,1377.9c-1.4-5.1,14.3-45.1,25.4-59.1C418.1,1338.8,409.6,1358.7,401.3,1377.9
	L401.3,1377.9z M467.1,1366.7c-0.4,0.7-0.8,1.5-1.2,2.2c-0.1,0.2-0.3,0.4-0.4,0.6c-3.3,11-6.8,21.8-14.9,30.2
	c3.4-7.5,6.6-15.1,10.2-22.5c1.4-2.7,3-5.2,4.8-7.7c0.1-0.2,0.2-0.5,0.3-0.8L467.1,1366.7c4.8-9.2,9.6-18.4,14.4-27.6
	c0.5-0.9,0.9-1.8,1.4-2.6c0.9,0.5,1.7,1,2.6,1.5c-0.5,0.8-1,1.6-1.6,2.5C478.4,1349.1,472.7,1357.9,467.1,1366.7z M543.4,1125.7
	c-1.9,11.4-3.4,20.9-5.1,31.4C532.4,1145.5,539.4,1136.7,543.4,1125.7L543.4,1125.7z M524.1,1268.4c-0.6-0.3-1.2-0.6-1.9-0.8
	c7.4-16,14.7-32,22.1-48c0.6,0.3,1.3,0.6,1.9,0.9C538.9,1236.4,531.5,1252.4,524.1,1268.4z M551.4,1213c-0.6-0.4-1.2-0.8-1.8-1.2
	c4.9-7,9.9-14,14.8-21c0.6,0.4,1.2,0.8,1.8,1.2C561.3,1199,556.4,1206,551.4,1213L551.4,1213z M587,1157.3
	c-4.6,11.2-11.8,15-22.7,14.2c-2.8-0.2-6.1,1.9-8.6,3.6s-4.7,4.4-8,5.6c2.3-2.9,4.6-6,7.1-8.6c1.7-1.7,4.2-4.5,5.9-4.2
	C571.8,1169.8,580,1165.5,587,1157.3L587,1157.3z M609.4,1049.6c-11.9,2.6-15.9,13.3-20.6,21.9c-5.5,9.9-9,20-19,27.5
	c-7.1,5.3-12.5,14.3-8.2,25.7c1.5,4-1.7,9.7-3.1,16.6c-2.2-2.5-3.9-3.7-3.7-4.5c1.6-9.6,2.3-19.7,5.8-28.7
	c2.4-6.1,9.1-10.4,13.5-15.8c2.7-3.2,5.1-6.7,7.1-10.3c7.4-12.7,14.6-25.4,22.1-38.7c3.4,2.7,4.9,3.8,6.6,5.1
	C609.8,1048.7,609.7,1049.6,609.4,1049.6L609.4,1049.6z M630.3,1042.6c5.7-9.4,10.7-17.5,16-26.1
	C646.1,1028.3,639.5,1035.4,630.3,1042.6L630.3,1042.6z M622.9,259.5l0.2,0.2c-11.7-14.4-26-26.3-42.2-35.3
	c-14.6-7.9-28.6-17.8-44.2-22.5c-24.3-7.3-49.2-14.5-75.4-13.3c-2.9,0.1-6.5-2.2-8.7-4.5c-11.8-12-22.3-25.2-38.5-31.9
	c-10.8-4.5-22.9-6.9-32.3-13.4c-15.5-10.8-33.2-18-51.8-21.3c-7.6-1.3-15.3-2.1-23-2.2c-30.1-0.4-55.2-14.1-81.7-24.5
	c-5.3-2-10.3-4.9-15.7-6.2c-13.6-3-19.7-8.6-22.5-22.7c-2.3-11.3-8.7-18.7-19.3-23c-3.9-1.7-7.4-4.2-10.3-7.2
	c-4.9-4.7-8.8-10.5-13.9-15c-3.1-2.8-7.6-5.2-11.7-5.5c-8.2-0.7-16.4,0-24.6,0.5c-3.2,0.2-6.3,1.2-9.5,1.9c2.7,2.3,5.1,5,8.1,6.8
	c2.1,1.2,4.9,1.3,7.5,1.6c6.9,0.8,13.8,1.5,18.3,2c3.3,5.4,4.7,9.6,7.5,11.9s6.9,2.7,9.1,3.5c-2.3,1.5-6,4-9.6,6.4
	c8,11,16.8-1,24.2,3.3c-1.5,0.5-3,1-3.3,1.1c6,3.7,12.2,7.5,18.4,11.3c-0.5,1-1.1,2-1.6,3c-8.1-7.5-17.6-9.8-28.2-9.3
	c-3.7,0.2-8.1-1.6-11-3.9c-11.6-9-25.2-6-38.2-8.6c1,12.2,7,16.1,27.2,18.6c0.1,1.3,0.2,2.6,0.3,3.9c-8.2-2.3-17.2-3.3-24.4-7.3
	c-12.5-7-23.9-15.9-36-24.1C62.4,40.9,64,45.9,71,51.1c8.8,6.4,17.6,12.8,27,18.4c5.8,3.5,12.5,5.3,18.8,8.1c1.3,0.5,3,2.9,2.8,3.3
	c-1.1,1.6-2.8,3.8-4.3,3.8c-3.4,0-6.8-0.7-9.9-2c-9.1-3.8-18.1-8.2-27.2-12c-1.6-0.6-3.8,0.2-5.8,0.4c0.4,2,0.3,4.3,1.2,5.9
	c0.7,1.3,2.6,2.1,4.1,2.9c21.4,12.6,42.9,25.1,64.4,37.8c2.6,1.6,4.8,4.1,7.6,5.4c7.8,3.6,15.7,6.9,23.7,10
	c3.3,1.3,7.2,1.5,10.4,3.1c8.5,4.5,16.4,10.2,25.1,14.1c10.8,4.9,22.1,8.4,33.2,12.5c0.6-1,1.2-2.1,1.8-3.1
	c-9.2-6.9-18.3-13.8-27.5-20.6c9,4.4,18,9,25.3,15.5c9.6,8.4,19.2,16.8,29.2,24.6c9,7.1,18.5,13.6,28.5,19.2
	c20.8,11.7,41.6,24,65.8,27.8c5.3,0.8,10.8,1.6,15.9,3.3c12.8,4.3,22.8,15.3,39.4,10.5c7.5-2.2,17.7,4.9,26.6,8.2
	c18.1,6.8,35.7,15.8,54.4,20c13,2.9,25.2,8.7,35.5,17.1c1.1,0.9,2.3,1.7,3.5,2.5c15.8,9.4,19.2,8.9,32.2-3.6
	c-6.3-3.7-12.6-7.5-19.5-11.6c1.2-0.4,1.5-0.7,1.7-0.6c0.8,0.1,1.6,0.4,2.4,0.8c12.8,9.1,25.7,8.6,39.8,2.3
	c8.6-3.8,18.5-4.8,28.3-7.1C624.5,264.8,623.7,262.1,622.9,259.5z M147.7,79c-0.7,0.9-1.4,1.9-2.1,2.9L127,65.4
	C135.6,67.4,141.8,73,147.7,79z M148.2,102.2c-11.6-8.1-15.4-16.4-10.4-22.4c-0.1,13,25.4,31,39.1,24.9
	C173.2,111.1,159,109.8,148.2,102.2L148.2,102.2z M217.8,133.9l-20.6-14.8c0.4-0.8,0.8-1.5,1.1-2.3c6.1,2.2,12.1,4.3,18.1,6.4
	c-0.1,0.4-0.2,0.9-0.3,1.3c-1.6-0.2-3.3-0.5-6.4-0.8c3.6,3.8,6.2,6.6,8.8,9.4C218.3,133.4,218,133.6,217.8,133.9z M310.5,160.1
	c0.1-0.5,0.2-0.9,0.3-1.4c3.5,1,6.9,2,10.4,2.9c0.4-0.5,0.9-1.1,1.3-1.6l-19.4-16.2l-7.8-6.5c0.2-0.3,0.4-0.6,0.6-1l8.3,6.4
	c14.3,11,28.5,21.8,42,32.1L310.5,160.1z M515.1,258L515.1,258c-2.9-1.3-5.7-2.5-8.6-3.8c-18.6-8.4-36.5-17.8-48.7-35.7
	c14.8,17.8,35.2,27.2,55.5,36.8c1.9,0.9,3.5,2.7,5.1,4.2C517.3,259,516.2,258.5,515.1,258z M521.6,260.9l-2.5-0.8
	c-0.2-0.2-0.5-0.4-0.7-0.6l0,0c0,0,0,0,0-0.1c0.3,0.1,0.7,0.3,1,0.4l2.4,1L521.6,260.9z M548,272.2c-8.7-3.7-17.4-7.5-26.2-11.2
	c9.1,2.7,18.2,5.4,27.3,8.1C548.8,270.1,548.4,271.1,548,272.2z M1600,2.9c-2.1,0-4.2-0.5-6,0.1c-20,6.3-42.6,6.7-58.2,24
	c-1.3,1.4-3.4,2-5.2,2.9c-17.1,8.1-33.7,16.4-42.7,34.9c-2,4.2-8.1,7.1-13,9.3c-16.5,7.6-33.1,14.8-49.9,21.7
	c-13.4,5.4-26.8,11.2-40.7,14.8c-7.1,1.8-14.3,3.3-21.5,4.7c-12.9,2.5-25.9,4.7-38.7,7.8c-8.4,2-16.1,6.9-24,10.7
	c-7.4,3.5-14.6,7.4-22,11c-6.1,3-13,4.8-18.3,8.8c-13,9.6-25.3,20.1-37.8,30.3c0.4,1.1,0.8,2.3,1.2,3.4c-7.1,0.7-14.3,1.5-21.3,2.3
	c-7.3,0.8-14.9,1.4-21.8,3.6c-15.7,5-31.5,10.1-46.4,16.9c-17.8,8.1-34.6,18.4-52.2,27.2c-12.4,6.2-21.8,15.6-30.9,26
	c5.6,1,11.1-0.1,16,1.2c16.3,4.2,32.3,9.2,48.4,13.8c3.4,1,7.1,1.2,10.6,2.2c4.3,1.2,10.7,1.6,12.3,4.6c4.5,8,11.7,10.2,19.2,4.9
	c9.4-6.6,19.1-13.3,29.3-18.5c16.4-8.4,33.2-15.9,50.2-23.2c10.3-4.5,20.6-8.7,32.8-7.6c7.9,0.7,16.5-1.4,24.1-4.3
	c16.3-6.1,31.6-15,48.2-19.8c20.5-5.9,37.6-17,55.1-28.3c7.6-4.9,15.3-9.8,23-14.6c12.1-7.5,24.4-14.8,36.7-21.8
	c10.5-5.9,22.3-9.5,33.1-14.9c9.1-4.6,16.6-13.6,28.7-8.1c1.8,0.8,5-0.9,7.3-2c4.3-2.3,8.3-5.4,12.7-7.8
	c12.7-6.9,20.7-19.1,14.1-32.1c-0.8-1.5-0.3-3.5-0.4-5.3c0.6-0.1,1.3-0.2,1.9-0.3c1.7,8,3.3,15.9,5.2,25.2c2.5-2.8,4.5-4.9,6.3-7.2
	c7.2-9.3,2.7-18.8,0.5-28.5c-2.7-11.9-2.5-12-14.7-8.6c5.3,21.5-14.4,26.5-24.7,37.5c-5.5,5.8-21.7,9.3-26.6,6.9
	c1.7-0.9,3.2-1.7,4.7-2.4c-0.1-0.5-0.2-1.1-0.3-1.6c-3.9,0.1-7.8,0.3-12,0.5c0.1-2.2,0.3-4.2,0.4-6.2l6,3.1v-3.4
	c8.7-2.4,16.3-4.5,25.6-7.2c-2.9,4-4.7,6.5-6.4,9c9.7,0.9,27.9-20,28-34.8c-5.6,8.1-9.9,14.3-14.3,20.6c-0.7-0.5-1.5-1-2.2-1.4
	c2.1-3.3,4.2-6.5,6.4-10.1c-2.9-0.6-4.9-1.1-6.2-1.3c2.7-3.1,5.1-5.6,7.1-8.5c1.4-1.9,1.6-5.9,3.1-6.4c6.9-2.2,14-3.8,21.1-4.5
	c6.8-0.6,15.8-6.3,18.6-13.6c-3,1-6,2-9,3c-0.2-0.5-0.4-1-0.5-1.4c1.7-1.4,3.5-2.7,7.3-5.6l-15.4,1.3c1.7,2.7,2.6,4.2,3.6,5.6
	c-0.6,0.5-1.2,0.9-1.7,1.4c-2-2.3-4-4.6-7.2-8.2c-12.7,5.8-26.6,12.1-40.3,18.3c-0.3-0.8-0.7-1.7-1-2.5c2.4-1.2,4.8-2.4,7.2-3.7
	c-0.2-0.5-0.4-1-0.7-1.5c-3.7,0.9-7.3,1.9-11.4,3c6.8-10.9,25.1,2.6,27.4-12.7c6-1.1,11.3-2.1,16.6-3.1c9.4-1.8,1.6-12.1,8-15.9
	c1.2,6.6,5,7.2,10.5,4.8c5.9-2.6,12.3-4.2,18-7.1C1595.1,12.1,1601.7,11,1600,2.9z M1131.9,272.1c-0.3-0.8-0.6-1.6-0.9-2.4
	c15.2-5.8,30.4-11.5,45.6-17.3C1162.7,261.5,1148.3,269.3,1131.9,272.1z M1191.4,244.3c11.3-10.2,23.1-20.9,34.6-31.3
	C1216.7,225.8,1206.8,238.5,1191.4,244.3L1191.4,244.3z M1251.4,185c-1.2-0.3-2.5-0.4-3.8-0.4l-22.4,2.3c8.8-1.5,17.6-3,26.4-4.5
	C1251.5,183.2,1251.5,184.1,1251.4,185L1251.4,185z M1364.8,144.5c-4.9,4.9-9.8,9.8-14.8,14.7c-0.5-0.5-1-1-1.5-1.6
	C1353.9,153.3,1359.4,148.9,1364.8,144.5c2-2,4-4,6.1-6.1c0.2,0.2,0.4,0.4,0.7,0.6C1369.3,140.9,1367,142.7,1364.8,144.5z
	 M1375.4,134c1-1.3,2.2-2.6,3.4-3.7c8.8-7.9,25.4-15.3,28-12.3c-9,4.5-18.2,9.2-26.8,13.6L1375.4,134z M831.6,991.3
	c6.5-23.9,7.3-48.8,7.8-73.2c-8.2-1.5-16.8-0.9-22.1-4.8c-5.1-3.7-6.7-12.1-9.8-18.5c-0.5,0.2-0.9,0.6-1.2,1
	c-2.8,4.3-5.4,8.7-7.8,13.3c-15.1,31.5-37.7,58.9-65.6,79.9c-14.5,10.9-27.8,22.8-37,38.6c-2.1,3.6-3.9,8.4-3.4,12.3
	c2.6,18.6,5.3,37.3,9.4,55.6c3.8,17,6.8,34.8,15,49.8c8.6,15.9,2.2,31.1,4.3,46.2c-2.2-13.9,1.6-28.9-8.2-41.2
	c-4.7,38.1-9.3,76-13.9,113.9c14.3,5.7,7.8-8.5,13.2-11.5v13.5c11.3-0.6,22.2-1.1,33.8-1.7c-9-13.8-10.2-21-5.7-31.5
	c-2.1,23.5,5.9,30.7,19.1,32c18.8,1.9,25.6-7.4,28.1-26.8c-2.1,2.6-3.8,4.5-5.4,6.5c-0.8-0.5-1.5-0.9-2.3-1.3c2-3.5,3.9-7.1,6-10.6
	c1.5-2.5,3.5-4.8,4.9-7.4c5.2-10.4,2.2-20.7-1.1-30.7c3.5,2,6.8,3.9,10,5.8c1-4.5,2.2-9,3-13.5c0.5-3-0.2-6.4,0.9-9.2
	c6.6-16,8.5-33.5,5.7-50.6c-5.3-31.6-3.9-63-2.6-94.7c0.2-3.7,1.1-7.4,1.6-11.1c0.3,0.1,0.6,0.1,0.8,0.2v39.9
	C816.7,1037.7,825.2,1014.8,831.6,991.3z M717.4,1218.6c1.8,8.1,4.3,18.8,6.4,28.4C717.9,1245.4,714.2,1231.3,717.4,1218.6z
	 M741.6,1199c1-3.2,2.7-6.3,3.3-9.6c0.6-3,0.1-6.3,0.1-9.5c5.5,14.9-10.7,29.9,1.5,44.7C739.6,1219.8,738,1209.8,741.6,1199
	L741.6,1199z M756.2,1240.7c-0.3-3.2-1.7-6.4-3.4-12.4c3.1,3.8,5.5,6.1,7,8.7c1.5,2.7,1.8,5.7,3,9.8
	C758.3,1247.7,756.7,1245.5,756.2,1240.7z M778.6,1112.4c4.7-11.6,9.5-23.2,12.9-31.7C789.1,1089.5,788.8,1102.8,778.6,1112.4
	L778.6,1112.4z M962.3,1058.6c-6.1-5.6-11.9-11.7-17.3-18c-1.8-2.1-3.5-4.3-5.1-6.5c-9.6-13-19.4-25.9-28.2-39.3
	c-1.4-2.1-2.7-4.1-4-6.2c-5.3-8.4-10-17-14.2-26c-1.5-3.4-3-6.8-4.4-10.3c-0.9-2.3-1.7-4.7-2.5-7s-1.5-4.8-2.2-7.2s-1.3-4.9-1.9-7.4
	c-0.1-0.6-0.3-1.2-0.5-1.8c-0.8-2.4-1.8-4.8-2.9-7.1c-0.8-1.8-1.7-3.6-2.4-5.4c-9.4,5.1-17.4,4-25.6-0.8c-2.6-1.5-4.6-1.7-6-0.4
	c-0.3,0.3-0.6,0.7-0.8,1c-0.1,0.2-0.1,0.3-0.2,0.5c-0.1,0.3-0.3,0.7-0.3,1c-0.2,0.9-0.3,1.7-0.4,2.6c-1.3,26.4-2.7,52.8-8.2,78.9
	c-5.8,27.3-2.2,55,2.5,82.3c0.2,0.9,0.3,1.9,0.5,2.8c0.4,2.3,0.8,4.6,1.1,6.9c0.7,4.1,1.3,8.2,1.8,12.3c0.1,0.8,0.2,1.7,0.3,2.5
	c0.6,5.1,0.9,10.3,0.9,15.5c0,2.5-0.1,5-0.2,7.4c-0.1,2.5-0.2,5-0.4,7.5c-0.6,9.9-1.5,19.9-2.3,29.8c-0.2,2.5-0.3,5-0.5,7.5
	c-0.1,2.4-0.3,5-0.3,7.4c-0.5,10.8,0.3,21.6,2.4,32.2c3.2,14.6,8.2,29,13.1,43.2c1,3,4.8,6.7,7.7,7c8.7,0.9,17.7,0.3,27.1,0.3v-11
	c0.3,10.3,6.3,12.1,14.9,11.1c4.6-0.5,9.2-0.5,13.7,0.1c2.5,0.3,4.8,2.2,7.2,3.4l0,0l0.7,0.4c4.3-12.4,9.2-24.5,12.5-37.1
	c2.2-8.1,2.5-16.8,2.8-25.2c0-1.2,0-2.5,0-3.7s-0.2-2.8-0.3-4.2c0-0.1,0-0.3,0-0.3c-0.2-2-0.4-4.1-0.5-6.2c0-0.1,0-0.2,0-0.3
	c-0.3-3-0.2-6.1,0.1-9.1c0.1-0.7,0.2-1.4,0.3-2.1c0.2-1.4,0.3-2.8,0.4-4.2s0.2-2.8,0.3-4.2c0.4-5.3,0.9-10.5,2.6-15.6
	c0.2-0.7,0.5-1.3,0.8-2c0.1-0.3,0.3-0.7,0.4-1c0.3-0.7,0.6-1.3,1-2s0.7-1.3,1.1-1.9s0.8-1.3,1.2-2s0.7-1.4,1-2.1
	c0.5-1.1,0.9-2.1,1.3-3.2c1.2-3.3,2.2-6.8,3.2-10.1c4.7-15.8,9-31.7,13.8-47.5C969.8,1074.3,970.3,1066.1,962.3,1058.6z
	 M898.6,1243.7c-0.7,0.1-1.3,0.2-2,0.3c-0.8,0.2-1.6,0.1-2.4-0.1c-0.1-0.1-0.2-0.1-0.3-0.2l0,0c-0.9-1-1.8-2.1-2.5-3.1l0,0
	c-0.5-0.7-1-1.4-1.5-2.2c-3-4.5-4.5-9.8-4.3-15.2c0.1-1.3,0.2-2.7,0.5-4v-0.1c0.4,1.7,0.8,3.2,1.2,4.7l0,0c0.4,1.4,0.8,2.7,1.2,4
	c1.7,5.3,3.2,8.6,5.1,10.8c0.4,0.5,0.8,1,1.3,1.4c1.6,1.4,3.5,2.6,5.5,3.4C899.8,1243.6,899.2,1243.6,898.6,1243.7z M907.2,1196.5
	c-0.1,0.2-0.1,0.5-0.2,0.7c-0.1,0.3-0.2,0.7-0.4,1c-0.1,0.4-0.3,0.7-0.5,1.1c-1.4,2.7-3.2,5.2-5.3,7.3c-1.4,1.5-3,2.8-4.7,3.9
	c-0.4,0.3-0.9,0.6-1.3,0.8c-0.2,0.1-0.4,0.2-0.7,0.3c-0.6,0.3-1.2,0.5-1.8,0.7c-0.4,0.1-0.7,0.2-1.1,0.2c-2.8,0.2-5.5-0.1-8.2-0.8
	c-5.7-1.7-9.4-5.9-10.6-13c-0.7-4.1-1.3-8.3-2-12.4c-0.8-5.2-1.7-10.4-2.3-15.6c-0.3-2.1-0.5-4.2-0.8-6.3c-0.3-2.1-0.5-4.2-0.7-6.3
	c-0.3-3.1-0.6-6.3-0.8-9.4c-0.4-5.9-0.1-11.9,0.8-17.8c0.5-3.1,1.2-6.2,2.1-9.2c0.3-1,0.6-2,0.9-3c2.8-8.2,6.8-15.9,12.1-22.9
	c0.3-0.4,0.6-0.9,0.9-1.3c0.9-1.3,1.7-2.7,2.5-4.2l0,0c1.5-2.9,2.8-5.9,4-9l1.3-3.1c0.8-2.1,1.7-4.1,2.6-6.1l0,0l0.2,0.1l1.4,0.5
	l0,0c-0.5,1.1-0.9,2.1-1.3,3.2c-0.9,2.1-1.7,4.3-2.5,6.4c-2.1,5.4-4.3,10.7-7.4,15.4c-16.9,25.3-20.3,51.3-7.1,79.2
	c0.3,0.5,0.4,1.1,0.5,1.7c0.2,1.3,0.2,2.6,0,3.8v0.1c-0.9,8.1-3.8,16.2,3,23.5c3.2,3.4,7,5,10.6,3.9c1.1-0.4,2.1-0.9,3-1.7
	c0.3-0.2,0.5-0.4,0.7-0.7c0.6-0.6,1.1-1.1,1.7-1.7c2.8-2.9,5.4-5.8,8.2-8.7c1.1-1.1,2.3-2.2,3.5-3.2
	C907.5,1195,907.4,1195.7,907.2,1196.5L907.2,1196.5z M861.5,1673.4c-2.9-13.3-12.6-18.7-25-22.2c0.8,3.3,1.3,5.7,1.8,8
	c-0.4,0.2-0.9,0.3-1.3,0.5l-8.8-18c2.9,1.2,4.1,1.7,6.9,2.8c-7.1-13.6-13.5-26-20-38.3c0.6-0.3,1.2-0.6,1.8-0.9
	c1.5,1.7,3,3.5,4.5,5.3c-7.5-22.9-18.8-44.3-25.2-67.1c-6.5-23.1-8.1-47.5-11.8-71.4c0.9-0.2,1.7-0.3,2.6-0.4
	c1.7,13.3,3.4,26.6,5.1,40c1-0.1,2-0.3,3-0.4c-1.3-10.9-1.9-22-4-32.7c-1.2-6.6-6.2-12.7-6.7-19.3c-0.8-9.7-1.3-19.4-1.7-29.2
	c-0.6-12.9-1-25.8-1.5-38.7c0.7,0,1.3-0.1,1.9-0.1c0.9,13,1.7,26,2.6,39.1c0,0.3,0,0.5,0,0.8c0.2-0.3,0.3-0.5,0.5-0.7
	c1.7-2.4,2.7-5.1,3.1-7.9c3-23.6,1.2-47-6.3-69.3s-14.4-44.1-8-68.2c-2.3-0.4-3.8-0.7-5.2-1v-14.8h-13.2c-0.4,2.9-0.7,5.4-1.1,7.8
	c-3.7-3-6.7-7.6-10.1-7.9c-10.3-1-20.9-0.3-32.2-0.3c0.8,3.8,1.3,5.8,2,9.2c-4.7-3.5-5.2-12.6-12.5-7.5c1.1,5.4,2.1,10.6,3.1,15.7
	l-2.7,0.5c-0.5-2.4-0.9-4.9-1.6-7.3s-1.8-4.9-3.3-8.9c-14.3,49.7-22,98.1-10.4,145.6c3.8,15.4,9.4,30.4,16.9,44.4
	c-1.2-11.7-2.5-23.4-3.7-35.1c2.5,4.3,3.3,8.9,3.9,13.5c2.2,16.1,4.3,32.2,6.7,48.3c0.7,5.1,2,10.1,4,14.9
	c7.9,17,15.7,34.2,24.7,50.5c7.3,13.2,17.8,25.3,17.8,41c0.1,13.5-3.5,27,0,40.6c0.3,1.2-2,2.9-2.8,4.5c-2,3.8-6.3,10-5.2,11.3
	c5.1,5.9,1.4,12.2,2.3,18.1c0.3,1.7,1.6,3.2,2.3,4.6c2.7-3.1,4.9-5.8,8.7-10.2c-1.5,10.6-0.8,17.4,8,21.1c-2.5-14.1-2-19.2,2-22.7
	c0.6,13.6,4,20.9,12,25.2c-1.3-9.5-2.5-18.5-3.7-27.6l4-1.1c1.3,3.1,3.1,6.2,3.8,9.4c0.8,3.9,0,8.1,0.9,11.9
	c0.8,3.4,2.9,6.4,4.7,10.1c2.7-2.1,4.6-3.5,6.5-5l-2.3-1c0.9-3.8,1.7-7.6,2.8-11.2c1.2-4-3.8-11.1,6.3-11.2c0,8-0.7,15.9,0.3,23.7
	c0.4,3,4.5,7.4,7.1,7.5c4.1,0,8.1-1.8,10.8-4.8c1.5-2-0.2-6.8-1-10.3c-0.9-4.1-2.5-7.9-3.4-12c-0.1-0.3,4.9-2.3,5-2
	c3.1,5.3,10.3,8.7,8.2,16.5c1.7-2.1,3.4-4.1,6.5-8v8.4C848.5,1677.4,855,1675.4,861.5,1673.4z M776.6,1342.1
	c1.7,13.5,3.3,27,4.9,40.6h-2.4c-1.2-13.5-2.4-26.9-3.6-40.4C775.8,1342.2,776.2,1342.2,776.6,1342.1L776.6,1342.1z M715.3,1285.1
	c2.9,16.9,5.7,33.7,8.6,50.6c-0.7,0.1-1.3,0.2-1.9,0.3c-2.8-16.8-5.7-33.7-8.6-50.5C714,1285.3,714.7,1285.2,715.3,1285.1
	L715.3,1285.1z M697.9,1361.1c1.5,14.6,3,29.1,4.5,43.7l-2.2,0.5c-1.5-14.7-3.1-29.3-4.6-44C696.4,1361.3,697.2,1361.2,697.9,1361.1
	L697.9,1361.1z M730,1516.3c1.7-34.7-17.1-63.7-23.3-96.4c-0.3-1.3-0.5-2.6-0.7-4l1.4,4.1c3.8,11.3,7.7,22.7,11.5,34l2.1-0.4
	c-1.3-10.6-2.4-21.1-3.2-31.7c-2-25.9-1.8-52,0.8-77.8c0.8,26.5,0.6,52.6,2.3,78.4c0.2,2.7,0.4,5.4,0.6,8.1
	c2.5,28.6,7.7,56.8,11.7,85.2C732.2,1515.9,731.1,1516.1,730,1516.3L730,1516.3z M755.7,1575.9c-4.5-12.4-9-24.8-13.5-37.2
	c0.5-0.2,1-0.4,1.5-0.6l14.4,37.1L755.7,1575.9z M763.3,1647.5c-6.7-3.5-5.8-10,7.4-29.7C768.2,1627.9,765.8,1637.9,763.3,1647.5
	L763.3,1647.5z M782.5,1623.1v-19l1.1-0.2c0.8,6.3,1.6,12.6,2.4,18.9L782.5,1623.1z M1508.1,331.3c-13.5,1.1-25.2,2-36.8,3
	c0-0.4-0.1-0.8-0.1-1.3c12.2-1.5,24.3-3,36.4-4.4c0-1.1-0.1-2.2-0.1-3.2l-4.1-2.4c5.9-3.1,7.8-13.1,5.1-24.4
	c-0.2-0.9-0.4-1.8-0.7-2.7h-0.8c-24,1.2-47.8,2.5-71.7,3.2c-7.2,0.2-14.6-1.5-21.8-2.6c-6.7-1-13.4-3.2-20.2-3.3
	c-19-0.5-38.2,0.8-57.1-0.4c-25.6-1.6-49.8,2.1-73.2,12.2c-1,0.4-1.3,4.1-0.8,6.1c0.3,1,2.9,1.4,3.2,1.5c-2.3,2.8-5.9,5-5.9,7.3
	c-0.4,13.6,0.6,27.3,0.2,40.9c-0.3,9,5.3,10.5,11.7,11.2c12.5,1.4,25,2.6,37.5,3.4c13.8,0.9,28,3.2,41.6,1.4
	c21.6-2.8,42.9-8.4,64.3-13.1c5.8-1.3,11.1-5.2,16.9-5.7c22.1-1.7,44.2-2.6,66.4-3.6c9.6-0.5,10.6-1.6,8.3-12.3l-30.3,4.2
	c9.6-4,19.3-6.1,28.9-8.8C1506.2,337,1506.8,333.8,1508.1,331.3z M1324.8,332.4c20.6-11.7,42.8-7.1,64.6-7.4
	C1367.8,326.1,1345.8,322.6,1324.8,332.4z M416.8,352.7c-1.1-17-2.6-34-4.3-51c-0.2-2-2.2-4.9-4-5.6c-12.4-4.6-25.1-7.1-38.5-5.7
	c-12.6,1.3-25.3,1.9-38,1.9c-5.1,0-10.3-3.5-15.5-3.6c-23.3-0.3-46.8-1.3-69.5,6.3c-5.1,1.7-11.2,0.5-16.7,1
	c-5.3,0.6-11.6-2.9-14.3,1.9c-9-4.2-18-4.3-26.9-3.5c-3.6,0.3-7.1,0.8-10.6,1.2c0,4.6,0.1,8.5,0,12.5c-0.1,2-0.2,4-0.3,6
	c-0.4,8.5-1,17-0.9,25.5c0.1,3.1,2.7,8.4,4.9,8.8c10.7,2,21.6,2.7,33.3,4v-13.7c0.8-0.6,1.5-1.3,2.3-1.9
	c-0.9,19.6,12.2,17.2,23.7,17.7c3.4,0.1,6.8,0.8,9.9,2.2c22.1,10.2,46,15.8,70.2,16.6c27.3,0.9,54.9-2.8,82.3-5.1
	C416.9,367.1,417.6,365.6,416.8,352.7z M183.6,338.1c1-5.4,14-7.6,22.4-2.8C198.3,336.3,190.8,337.2,183.6,338.1z M821,852.7
	c-13.9,34.5-32.1,66.1-54.2,95.8c-12.7,17.1-28.5,30.7-45.1,43.8c-11.3,8.9-20.5,20.4-30.7,30.8c2.8-6.1,5.6-12.1,8.4-18.1
	c-0.4-0.2-0.7-0.4-1.1-0.6c-2.2,3.3-4.3,6.6-6.8,10.5c-3.8-9.2-5.1-17.3,2.4-25c-1.3,0.8-2.7,1.6-4.2,2.4c-0.6-0.7-1.5-1.3-1.5-2
	c-0.9-14.5-2.5-29-2.5-43.5c0-32.1,1.2-64.2,1.3-96.3c0-6.1,2-7.6,7.2-7.5c21,0.4,41.9,1,62.8,1c19.3,0.1,38.7-0.7,58-0.5
	C819.7,843.7,825.1,842.6,821,852.7z M1240.1,301.8c-15-3.9-30.8-6.8-46.2-6.5c-22.8,0.4-45.7-0.1-67.8,10.1
	c-14.9,6.9-32.1,8.4-47.8,14.7c-20.8,8.3-37.7,30.7-31.2,53.4c17.1-1.8,33.7-2.1,49.7-5.4c16-3.4,31.7-9.8,47.5-14.9
	c0.2,0.3,0.3,0.5,0.4,0.8c-4.7,2.1-9.3,4.2-15.9,7.1c8.4,0.9,14.7,1.1,20.8,2.3c23.4,4.5,46.9,4.2,70.4,2.1c11.5-1,23-1.6,35.4-2.5
	c0.4-10,0.6-21.7,1.6-33.3C1258.3,315,1254.1,305.4,1240.1,301.8z M1150.9,352c-0.1-0.8-0.3-1.6-0.4-2.5c20.7-1.5,41.3-3.1,62-4.6
	c0,0.6,0.1,1.3,0.1,1.9C1192.1,348.5,1171.5,350.3,1150.9,352L1150.9,352z M617.7,369.4c0-8.5,0.3-18,0-27.6
	c-0.7-25.1,1.2-21.8-23.3-25.4c-13.3-1.9-26.7-3.6-36.3-14.7c-1.3-1.5-4-1.8-6.2-2.4c-19.9-5.8-40.4-4.9-60.5-3.1
	c-17.5,1.5-34.7,5.5-50,15.8c-6.2,4.1-13.8,6.3-20.8,9.3c-0.2-0.5-0.4-0.9-0.5-1.4c6.8-3.4,13.7-6.8,22.2-11.1
	c-9.7-2.4-17.2-4.3-27-6.7c1.7,20.6,3.4,40.5,4.9,58.9c46,1.5,89.5,2.8,133,4.2c0,0.9,0,1.8,0,2.7H535c26.2,8.1,52.6,11.8,79.9,5.6
	c-26.3,0.3-50.6-6.9-73.6-19.4C566.2,362.3,590.7,371.8,617.7,369.4z M454.3,340.1c-6.8-4.7-13.5-9.5-20.3-14.2c0.4-0.7,0.7-1.4,1-2
	l21.1,13.3C455.6,338.2,455,339.2,454.3,340.1L454.3,340.1z M536,356c-25.2-3.7-50.4-7.3-75.6-10.9c0.1-0.6,0.1-1.1,0.2-1.7
	c25.3,3.3,50.6,6.6,75.9,9.9C536.3,354.2,536.2,355.1,536,356z M917.2,22.3c-2.2-2.1-4.8-4.2-6-6.8C907,5.6,896.3,3.3,889,1.6
	c-13.6-3-28.4-1-42.7-0.8c-2.6,0.1-5.2,1.9-7.8,2.9c0.3,0.6,0.6,1.3,1,1.9c2.3-0.6,4.7-1.2,9.1-2.4c-4,3.3-6.3,5.4-8.8,7.2
	c-0.6,0.4-1.7,0.2-2.5,0.4c2.4,0.8,4.8,1.6,7.8,2.6c0,0.5-0.1,0.9-0.2,1.4c7.4-2.8,14.1-9.1,23.8-5.4c-8.1,2.4-15.4,4.5-22.9,6.8
	c-0.1-0.2,0.4-0.6,0.3-0.7c-0.3-0.3-0.6-0.5-1-0.7l0,0c-2.7,1.8-5.8,3.2-8,5.3c-0.3,0.2-0.5,0.5-0.7,0.7c-1.8,2.1-2.7,4.9-1.9,9.1
	c0.4,1.9-5.2,5.1-9.3,6.1l8.8-6.2c-5-1.8-8.2-3-12-4.3c3-0.5,5.7-0.9,8.3-1.3c-2.9-12.7-13.8-14.4-44.6-8.5
	c7.3-2.2,14.6-5.7,22.1-6.4c7.9-0.8,15.9,1.2,24.6,2.1c0,0,1.6-1.3,3.1-2.6c-3-2.4-6-6.8-9.2-7c-14.2-0.8-28.5-0.3-43.1-0.3
	c1.4,1,2.5,1.9,2.8,2.1c-4.8,3.3-10.6,5.9-14.5,10.2s-5.7,10.3-8.5,15.5l0.5,0.5c1.7-1.6,3.3-3.2,5.1-4.7c3.3-2.9,6.7-5.7,11.1-9.5
	c-4.1,6.2-8,10.4-9.6,15.3c-0.7,2,3.7,5.6,5.7,8.4c1.7-1.6,3.8-2.8,5.1-4.7c5.3-7.9,16.4-9.6,24.1-4c5.1,3.7,10.5,6.8,17.7,11.4
	c-10,0.7-19.1,1.4-28.7,2.1c1.2,3,2.3,5.9,4.2,10.7c-4.5-5.3-7.5-8.8-10.4-12.3l-1.5,1.4c4.9,8.3,9.7,16.6,14.6,24.9l-1.2,0.7
	c-3.7-5.3-7.5-10.6-11.2-15.9l-1.3,0.8c2.2,4.7,4.5,9.4,6.8,14.1c-0.7,0.5-1.5,1.1-2.2,1.7c-4.3-4.7-8.6-9.3-12.9-13.9
	c-0.9,3.9,7.9,18.8,11.7,19.3c0.3,0,0.9-2.1,1.5-3.3c2.8,2.6,5.3,4.9,8.3,7.7c-20,0.1-26.5,4.8-23.4,15.6c6.8-6.2,14.8-6.5,23.3-5
	c3.9,0.6,8.2,1.4,11.7,0.2c3.1-1,5.4-4.7,8-7.2l4.5,7.6l17.2-7.6c0.8,2.1,1.2,7,3.1,7.6c4.5,1.6,9.6,1.4,14.5,1.5
	c10.3,0.3,20.6,0.5,31,0.5c3.8-0.2,7.5-0.6,11.3-1.2c-5.9-7.9-11-14.8-15.9-21.4c-1.4,2.4-3.5,6-6.7,11.6c1.4-11.3,10.4-20.3,1-30.1
	c2.8,0.5,4.6,0.8,6.4,1.1c0.3-0.8,0.7-1.5,1-2.2c-5.3-2.9-11.6-9.4-15.7-8.2c-10.9,3.1-20.2-4-30.2-1c-0.4-5.2-1.6-9.4-0.7-13.1
	c1.2-4.7,4.6-8.4,11.2-7.7c-1.9,1.7-3.3,2.9-5.3,4.6l6,1c-1.3,1.4-2.9,2.4-3.5,3.9c-0.7,2.5-1.3,5.1-1.6,7.8
	c2.6-0.3,5.3-0.3,7.6-1.2c3.3-1.4,6.4-3.3,9.2-5.6c9.2-7.7,19.5-6.1,26.3,3.7c1.5,2.2,4.8,3.3,8.9,5.9c-2.4-16.6-11.6-21.8-30-19.4
	c8.2-8.1,28-1.9,31.5,9.1c3.1,9.9,9.2,9.1,16.2,8.6c4.7-0.3,9.2-1.1,13.8-1.7c0.5-0.8,1-1.6,1.4-2.4
	C927.5,31.2,922.2,26.8,917.2,22.3z M881.8,13.9c11-4.7,23.8,0.3,28.5,11.3c1.3,2.9,1.9,6.1,1.8,9.3C907.5,20,898,12.9,881.8,13.9
	L881.8,13.9z M167.4,292.9c-7.8-3.9-15-9.3-22.8-13.2c-6.3-3.2-13.1-7-20-7.4c-13.3-0.9-24.9-4.5-34.8-13.5
	c-1.5-1.4-3.9-2.7-5.9-2.7c-14.3,0.3-28.5,1-42.7,1.6c-4.9,0.2-5.2,3.1-2.9,6.3c4.9,6.7,18.9,7.8,23.7,3.7c3.4,1.7,6.1,4.2,8.3,3.9
	c3.1-0.4,5.8-3,6.9-3.6c4.1,2.5,8,6.6,12.1,7c11.2,0.9,22.5-0.1,33.7,0.4c3.8,0.2,7.5,2.6,11.3,3.9c-0.3,0.6-0.6,1.3-1,1.9
	c-3.7-1.4-7.3-2.8-11-4.3c-0.1,0.6-0.3,1.2-0.4,1.8c3,2.5,6,5,9,7.5c-23.6-11.8-46.5-6.3-70.2,0.4c0.6,1.7,0.9,5.7,2.1,6
	c8.5,1.8,17.6,5.2,25.5,3.5c10-2.1,18.4,1.8,26,4.9c3.7,1.5,7.3,5.6,13.6,4.8c-7.7,6.5-10.8,6.4-16.7,0.7c-6.9-6.7-14-7.7-22.8-3.3
	c1.6,1.9,3.1,3.8,5.8,7.1c-15.9,0.7-30.2,1.5-44.6,2s-29.2,7.4-43.1-3.2h55.2c0-0.9,0-1.7,0.1-2.5c-20.1-0.9-40.4-1.7-60.1-2.6v19.2
	l1.4,0.1c0.9-2.9,1.7-5.8,2.5-8.7c1-0.6,2-1.3,3-1.9C4,327.9,15,324.4,20.8,326c3.3,0.9,7.5-1.6,12.4-2.9c2.9,6.9,10,4.8,17.4,3.4
	c3-0.6,6.4,0.7,9.6,1.1c0.1,1,0.2,2,0.3,3c4.1-2,8.1-4.7,12.4-5.7c4.3-1,8.9-0.2,13.3-0.2c0.1,1.2,0.3,2.5,0.4,3.7
	c-18,3.4-35.9,6.8-54.5,10.3c3.5,8.5,9.5,6.5,14.6,6.5c11.3,0,22.5-0.8,33.7-0.7c10.4,0.1,11.6-1.1,8.8-10.8
	c0.7-0.3,1.4-0.5,2.1-0.8c1.2,3.4,2.4,6.7,4.1,11.7c7.9,1.6,17.9,2.4,27,5.9c12.2,4.6,24.1,4.7,36.3,2.5c1.3-0.2,2.6-0.5,3.9-0.8
	c6.8-1.5,11-5.6,10.9-13c0-5.3-0.1-10.6-0.3-15.8c-0.1-6.3-0.1-12.7,0.3-18.9C173.9,298.5,172.5,295.5,167.4,292.9z M113.2,318.2
	c7.9,3.2,16.6,6.7,24.7,9.9c-0.1,0-1.6,0.5-3,1c0,0.5,0,0.9,0,1.4h18.2C141.1,339.9,114.9,330.5,113.2,318.2z M169.9,332.7
	c-0.6,2-1.9,3.7-3.7,4.7c-4,2.5-10.9,2.7-21.4,0.7l23.6-5.1C168.9,332.9,169.4,332.7,169.9,332.7L169.9,332.7z M1653.5,306.4
	c-3.2-0.8-6.8,0-10.3-0.2c-10.4-0.6-20.8-1.2-31.3-1.9c-0.5-8.8,15.5-4.7,12-15.6c-6,4.3-14.4,5.1-17.4,1.1
	c-1.1-1.5-0.2-4.5-0.2-7.9c-0.8-0.5-3.1-1.7-5.7-3.1c3.6-1.8,6.4-3.3,7.7-3.9c6.3,3.7,11.8,6.9,17.4,10.3c2-3.8,3.1-5.9,4.3-8.1
	c10.2,10.8,31.9,10.7,35.8-1.1c-21-2.5-40.3-12.9-62.4-8.6c-9.2,1.9-18.6,2.2-27.9,0.8c-14.5-2.5-25.4,3-36.1,11.1
	c-5.7,4.3-11.5,8.9-17.9,11.5c-10.5,4.3-11.8,5.8-7.8,16.5c1.9-2.4,4-4.9,5.9-7.3l3.1,1.8c-3.2,2.1-5.8,4.9-7.7,8.2
	c-5.8,10.6-0.2,23.1-2.2,34.1c3.7,1.7,6.7,3.1,9.6,4.4c-3.3,6.2,2.8,6.3,5.1,6.1l9.7-0.7c9.3-0.7,18.5-1.5,27.4-3.8
	c5.2-1.3,11.9-5.3,12.9-13.5c0.4-3,5-5.5,1.2-9.2c2.8-2.3,5.6-4.6,8.2-6.7c-0.7,5-0.3,10.8-2.3,15.5s-6.4,8.3-11.5,14.5
	c9-1.5,15.7-2.6,22.8-3.8c2.6,0.4,6.1,1.4,9.4,1.1c13.5-1,27-2,40.4-3.7c3.3-0.4,6.3-3.7,9.5-5.7c-0.5-0.8-1.1-1.6-1.7-2.4
	c-11.9-0.6-23.9-1.4-35.8-1.8c-7.7-0.3-15.9-2.1-21.6,5.7c-0.8,1.1-3.3,1.1-4.4,1.5c2.5-5.1,5.7-9.8,7.2-15
	c1.5-5.3,1.2-11.1,1.7-16.7c1.1,0.1,2.2,0.2,3.2,0.3c-0.3,3.8-0.6,7.7-1,12.2c3,0.4,6.1,1.3,9.1,1c6.2-0.6,12.2-2.1,18.4-2.9
	c5.8-0.8,13,1.1,14.4-8c0.7,2.6,1.4,5.3,2.1,8c2.8-0.6,5.1-1.2,7.5-1.6c5-0.9,11.7-0.4,11.4-7.2
	C1665.4,309.6,1657.8,307.5,1653.5,306.4z M1566.3,270.4c3.6,0.2,6.4-0.5,7.6,0.6c6.7,6.7,14.9,5.1,22.9,5c0.7,0,1.3,0.8,1.8,2.9
	h-38.3c-0.2-0.5-0.3-1-0.5-1.6c3.6-1,7.3-2,11.9-3.3C1569.8,272.8,1568.8,272,1566.3,270.4L1566.3,270.4z M1553.8,327.4
	c-1.5,1.9-5,5.1-5.4,4.7c-2.7-2-4.8-4.9-7.1-7.5c0.5-0.4,1.1-0.8,1.6-1.2c2.3,1.9,4.5,3.8,7.5,6.3c0.4-2.6,0.6-4.4,1.1-7.4
	C1552.6,324.7,1554.2,326.8,1553.8,327.4L1553.8,327.4z M1590.6,301.6c-5.5-0.3-8.7,1.6-10.2,7.8c-2.4,10.2-12.7,17.6-23.4,15.8
	c2.8-2,5.8-3.8,8.3-6c4.1-3.6,8-7.5,12-11.2c-0.6-1.1-1.2-2.2-1.8-3.3c-6.9,0.7-13.8,1.4-20.7,2.1c0.2-1.9,0.4-4.6,0.8-8
	c9,4.6,18.1,2.8,27.5-0.5c8.4-2.9,16.6-1.9,23.7,4.8C1601.4,302.5,1596,302,1590.6,301.6L1590.6,301.6z M908.7,123.9
	c-7.7,16.4-10.8,19.8-18.7,19.5c4.7-5.4,12.4-8.8,10.9-17.9c-1.8,1.1-3,1.8-4.1,2.5c0.9-9.1,1.7-17.7,2.4-26.6
	c2.2,0.8,3.5,1.3,5,1.9c0.8-3.4,1.5-6.3,2.3-9.8c-8.3,1.7-17.2,0.8-17.6,12.7c-0.1,2-2.9,4-4.5,6c-0.3-0.3-0.7-0.7-1.1-1
	c1.4-3.2,2.7-6.5,4.1-9.7c-0.8-0.5-1.5-1-2.3-1.6c-2,2.9-4,5.9-6.3,9.4c-0.4-3.7-0.7-6.7-1-10.4c-2.2,3.2-3.6,5.3-4.9,7.3
	c-1.9-1.6-3.8-3.1-5.7-4.7c-0.5,0.4-1,0.7-1.5,1.2c2,2.5,4,4.9,6.5,8c-3-0.8-5.3-1.5-7.4-2.1c-2.1,2.8-4.1,5.6-5.7,7.8
	c3.4,4.8,6.3,9,9.6,13.6c-3.1,0.9-5.5,1.7-7.9,2.4c0.6-0.7,1.2-1.4,1.8-2.1c-2.7-4.6-5.5-9.1-8.1-13.8c-1.5-2.8-2.3-6-4-8.7
	c-1.5-2.3-3.7-4.2-5.6-6.3c-1.3,2.4-3.3,4.7-3.5,7.3c-0.5,3.6,0.4,7.4,0.6,11.1c-0.8,0-1.5,0-2.3,0c0.5-10.8,1.1-21.6,1.7-33.5
	c-4.1,1.8-6.3,2.8-8.8,3.9c1.4,1.2,2.5,2,4.6,3.8c-3.9,0.3-6.3,0.4-9.3,0.6c0.5,7.8,0.2,15.3,1.6,22.4s-2.3,10.6-8.2,14.1
	c-1-4.6-1.7-9.2-0.3-13.2c2.7-7.4,1-12.2-5.9-11.8c5.5,7-1.9,9.6-4.7,13c-4.8,5.9-11.5,4.3-17.6,2.2c3.8-1.5,7.5-3.1,12-4.9
	L790.6,104c-0.3,0.3-0.6,0.6-1,0.9c0.9,1.9,1.8,3.8,2.7,5.7l-1.9,0.9c-1.3-3.1-2.6-6.1-3.8-9c-3.7-0.4-7.1-0.7-10.5-1.1
	c-0.3,1.4-0.7,2.8-1.4,5.5c-1.5-2.9-2.4-4.7-2.9-5.5c-1.5,4.5-3.4,9.1-4.7,13.9c-0.5,2.4-0.7,4.9-0.4,7.4c0.3,3.1,2.6,7.2,1.4,9
	c-4.8,7,1.2,6.1,4.6,8.1c4.3,2.4,8,5.6,12.9,9.1l12-4.6c-0.3,1.4-0.5,3.2-0.8,4.5c11.5,3,19.4,0,22.8-11.5
	c-0.2,3.4-0.4,6.8-0.7,10.2c0.7,0.2,1.3,0.3,2,0.6c2.1-3.3,4.2-6.6,6.6-10.3c-1.2,7.3,3.3,11.4,8.8,11.7c10.8,0.6,3.2-10,7.3-14.3
	c2.7,4.2,5.2,8.1,7.7,12c0.6-0.3,1.3-0.6,2-0.9v-7.8l20.8,23.4c-1,1.1-1.9,2.2-2.9,3.4c-2.7-1.8-5.8-3.2-7.9-5.5
	c-7.4-8.5-15.3-9.9-25.6-4c3.5,8.9,2.7,10.6-6.2,11.2c3,0.5,6.1,1.5,9.1,1.2c12.9-1.5,22.8,3.9,25.8,16.9
	c-8.3-10.3-17.2-11.5-27.9-9.6c-9.3,1.6-19.2-0.8-26.8,2.6c1.4,2.6,2.6,4.7,3.1,5.6c1.5-0.7,3.1-1.3,4.7-1.8c4-0.9,8.1-1.5,12.2-1.9
	c2.2-0.2,4.5,0.6,6.8,0.9c0.3,2,0.5,4,0.5,4c-9.8,2.6-18.7,5-27.2,7.3c-0.1,0.7-0.2,1.5-0.2,2.2c1.6,15.5,5.4,17.5,19.7,11.1
	c1.8-0.8,4.7-1,6.2,0c11.9,7.7,20.3,2.1,27.9-7c1.9-2.1,3.5-4.6,4.5-7.3c1.1-3.4,1.2-7,1.7-10.6c0.7,0.1,1.3,0.2,1.9,0.3
	c0.5,4.4,0.9,8.8,1.4,13.3c0.5,0.3,1.1,0.5,1.7,0.8c2.7-7.5,5.3-15,8.2-23c0.5,4.3,1,7.7,1.7,12.7c7.5-10.8,11.6-20.6,9.4-33
	c-6.3,1-12.3,1.9-17.7,2.8c-0.5-4.3-0.8-7.5-1.3-12.6c2.4,4.1,3.8,6.5,5.1,8.7c0.9,0.2,1.5,0.5,2,0.4c5.5-1.4,11.3-4.8,16.2-3.7
	c3,0.7,5.3,3.4,7.6,0c2-3,4.2-6.8,4.1-10.2C911.9,132.1,909.7,127.6,908.7,123.9z M857,191.7l-13.1-4.7c-0.3,0.6-0.5,1.1-0.8,1.7
	c-1.4-2.6-2.9-5.3-4.4-8c4.7-0.4,9.4-0.7,14.6-1.1c-0.9,1.5-1.8,3-2.6,4.3c2.7,1.7,5.2,3.3,7.8,5C857.9,189.8,857.4,190.8,857,191.7
	z M952.2,272.6c-2,4.8-7.2,1.3-11.4,1.1c-8.9-0.5-17.9,0.8-26.8,1.5c-12.7,0.9-25.3,2.4-38,2.6c-2.5,0-5.2-5-7.4-7.4
	c0,1.1-0.2,4-0.4,7.9c-1.5-1.1-2.7-2.6-3.7-2.5c-3.8,0.3-7.5,1.1-11.3,1.7c0.6-2.9,1.2-5.8,1.8-8.7c1-5.3,1.9-10.6,2.9-15.8
	c-6.5,0.6-9.3,6.6-10.1,22.2c-13.3,6.3-17.3,3.3-19.3-14.6c-0.8,1-1.4,1.7-2.6,3.1c-0.5-2.4-1-4.4-1.4-6.3c-0.7,0.1-1.4,0.1-2.1,0.1
	c0.6,3.6,0.6,7.4,2,10.8c1.2,3,4,5.4,6.3,8.3c-11.5,1.1-24.2,6.5-26.6-11.7c-1.7,1.2-2.8,1.9-3.3,2.3c-3.3-5.9-6.5-11.6-9.8-17.4
	l-1.9,0.7c-0.4,2.3-0.9,4.6-1.4,7l0,0l-0.2-0.1c-1.1-0.4-2.7-0.7-2.8-1.2c-0.8-6.7-1.3-13.3-1.9-21c-1.2,1.5-1.8,2.4-3.4,4.4v-13.1
	c-1.5,2.5-2,3.4-2.6,4.2c-0.4-0.1-0.7-0.2-1.1-0.2c0.6-2.6,0.3-6.4,1.9-7.5c4.4-3,5.8-11.6,13.4-8.3c3.8,1.6,6.7,5,10.2,7.8
	c-0.7,0.7-1.7,1.8-3.3,3.7c5.6-0.6,10.7,9.5,15.1-1.1c0.2-0.4,4.5-0.2,5.1,0.8c1.7,2.7,2.8,5.8,3.2,9c0.3,2.7-0.7,5.5-1.4,9.9
	c-3.3-3.8-6.1-7-8.9-10.1c-0.3,0.1-0.6,0.3-0.9,0.4c2,4.8,4.1,9.6,6,14.2c4.2,1.4,8.7,2.9,13.1,4.3c-8.6-10.3-4.1-20.1-2.5-30.6
	c7.2,1.5,13.1,13.4,18.6-2c1.7,5,2.7,8.2,4,12.2c1-1.6,1.8-4.1,2.4-4.1c9.3,0.8,8.6,0.4,13.1-5.8c3.3-4.5,8.7-7.5,14.1-12
	c-0.1,13.8-6.4,29.4-11.7,34.3c2.7-1.3,5.4-2.6,8.3-4c0.2,0.2,0.6,0.9,1.3,1.9c1.9-10.3,3.6-19.6,5.4-28.9c0.6,0.1,1.2,0.2,1.8,0.3
	c0,8.7-0.5,17.4,0.2,26c0.6,8.4-3.2,17.7,4.1,24.9c-0.8-4.6-1.6-9.3-2.4-14l2.2-0.4c3.8,5.4,7.6,10.9,11.3,16.4
	c0.9-0.5,1.7-1,2.6-1.5c-2.2-3.2-4.7-6.1-6.4-9.5c-2.3-4.2-3.8-8.8-4.3-13.5c3.5,3.9,6.9,7.8,11.6,13.1c-3.9-7.3-6.8-12.9-10.5-20
	c-0.2,0.6-0.7,2-1.1,3.3c-2.1-6-4.1-12-6.2-18.1c0.8-0.3,1.6-0.6,2.4-0.9c6.5,7.8,13,15.6,19.5,23.3c1-0.6,2.1-1.3,3.1-1.9
	c-0.7-3.6-1.4-7.3-2.1-11c2.9,2.6,5.3,6.2,8.6,7.5c3.6,1.4,8.1,0.7,12.2,1c0,0.7,0,1.4,0.1,2.2c-2.8,0-5.7,0.2-8.5,0
	c-2.7-0.4-5.5-0.9-8.2-1.5l-0.9,2.2c9.3,4.3,18.6,8.6,27.8,12.9c-1.5,5.7-2.5,9.6-3.5,13.6c0.6,0.2,1.2,0.4,1.7,0.6
	c2.1-2.8,4.2-5.6,6.2-8.2c1.2,0.4,2,0.3,2.2,0.7C948.2,265.6,953.1,270.3,952.2,272.6z M1092.1,223.4c-7.2,5.6-14.4,11-21.4,16.7
	c-5.7,4.7-12.7,8.7-16.2,14.8c-6.7,11.5-17.9,8.7-27.4,11.7c-11.6,3.5-22.8-0.5-34.3-0.9c-8.5-0.3-17.2-0.1-25.4,1.6
	c-7.4,1.5-12.7,1.4-16.1-6.1c-0.6-1.3-2.8-1.9-3.9-2.6c20.2-18.2,43.4-21.3,68.1-19.4c0.1-0.8,0.2-1.6,0.3-2.4
	c-5.1-1.3-10.1-2.6-15-3.8C1014,218.8,1072,209.2,1092.1,223.4z M721.9,248.5c-6.3,6.8-12.8,13.8-19.3,20.8c-3-1.5-6-4.4-8.8-4.4
	c-11.8,0.4-23.6,2-35.4,2.7c-9.2,0.5-18.6,0.9-27.7-0.1c-2.8-0.3-5.2-5.1-7.8-8l0.2,0.2c-3.5-5.1-6.4-10.8-10.6-15.2
	c-6.2-6.5-13.2-12.2-20.4-18.6c25-6.5,49.3-9.3,76.3-0.3c-5.8,1.4-9.3,2.6-12.9,3s-7.2,0.1-10.9,1.2
	C672.5,227.8,699.4,229.9,721.9,248.5z M680.8,415.7c-1.1-0.5-2.2-0.9-2.7-1.1c0.4,4.2,0.8,8.7,1.2,13.3c-0.5,0.1-0.9,0.1-1.4,0.2
	c-2.9-4.8-5.8-9.5-9.1-15.1c0.7,3.7,1.2,6.2,1.7,8.8l-2.7,0.8c-3.3-9.9-6.6-19.8-10-29.8c-1.9-5.4-3.8-10.8-5.7-16.3
	c-0.9,0.3-1.8,0.6-2.8,1c0.1,1.3,0.3,2.5,0.4,3.8c-0.8,0.3-1.5,0.6-2.3,0.9c-3-8.8-6-17.6-9-26.5c-0.3,0.1-0.7,0.2-1.1,0.3
	c1.3,6.5,2.5,13.1,3.9,19.8c-21,0.2-20.1-2.1-21.1-20.3c-0.5-9.9-0.1-19.8-0.1-31.7c3.6,3,5.6,4.7,6.5,5.6
	c-1.9-9.5-3.3-20.1-6.1-30.2c-2-7.2-0.3-10.9,8.1-12.6c3.2,7.3,6.4,15,9.7,22.6c11.4,15.7,22.8,31.5,34.3,47.2
	c2.7,10.3,5.5,20.6,8.1,30.7c-7.1-1.3-7.3-1.6-5.8-6.3c-3.3-2.5-6.3-4.2-8.3-6.7c-10.8-12.9-21.2-26-31.9-39c-1-1.2-2.4-2.1-5.1-1.9
	c16.9,21.1,33.8,42.3,50.7,63.5c-0.6,0.5-1.1,1-1.7,1.5c-2.4-2.1-4.7-4.2-7-6.2c-0.3,0.2-0.5,0.3-0.8,0.5c2.8,3.6,5.7,7.3,10,12.8
	c-3.9-0.8-5.2-1.1-7.5-1.6c3.3,4,5.9,7.3,8.7,10.5L680.8,415.7z M1134.4,294.4c-3.3,2.5-5.3,5.2-7.8,5.9c-10,2.9-20.6,4.1-30.1,8.1
	c-12.9,5.5-25.1,12.7-37.4,19.6c-3.6,2-6.3,5.3-9.5,8.1l-3.3-1c0.9-21.9,1.9-44,2.8-66.1C1079.9,268.6,1107.6,276.8,1134.4,294.4z
	 M935.1,93.4c4-8.7,1.2-16.9-8-20.1c9.4,9.2,9.5,13.7,0.7,23.9c-5.6,6.5-5.2,10.9,2.8,17.1c-1.5-3.3-2.8-5-3.1-7.1s0.3-4.2,0.7-8
	c4.5,11.7,7.6,13.1,18,9.6c8.2-2.7,15.1,1.3,15.6,8c-4.8-1-9.8-2.8-14.8-2.9c-2.1-0.1-4.3,3.1-6.5,4.8l-0.6,0.6
	c-4.6,4.7-10.8,6-15.5,2.4c-3.1-2.4-4.3-8.2-4.7-12.7c-0.3-4.6,0.4-9.1,2-13.4c3.3-9.7,2.2-12.9-6.9-16.5c-7.4-2.8-9.1-6.5-4.6-12.7
	c5.6-7.7,6.2-15,0.8-24.1h20.2c-1.8,6.6-9.6,13.1-1.1,21.2c-3.2,0.3-5.4,0.5-7.7,0.8c0,0.5,0,1.1-0.1,1.6c3.5,0.4,7.3,0.1,10.4,1.4
	c4.5,1.8,9.8,3.8,12.3,7.4c3.1,4.5,0.4,9.3-3.7,13.6c-2.3,2.5-4,8.2-2.8,10.9c2.3,4.5,7,3.3,11.9,1.7c4.6-1.5,10.4-1.1,15.1,0.4
	c1.9,0.6,2.2,6.3,3.2,9.7l-2.3,1.1c-2.8-1.7-5.4-4.2-8.3-4.9c-4.2-1-8.7-0.5-13.1-0.8c-3.9-0.3-7.8-0.7-11.7-1
	C934.1,101.5,933.5,96.9,935.1,93.4z M737.1,104.5c-1.2-0.6-2.4-1.1-3.8-1.3c-1.1,13.2-4.8,17.4-14.5,17.5c-2.9,0-6.9,0.6-8.4,2.5
	c-1.3,1.6,0.3,5.4,1,10.5c-7-5.6-12.8-10.1-18-14.2c1.8,7.2,4.1,16.5,6.3,25.2c-4.8-3.3-8.2-6.4-12.3-8c-1.4-0.6-5.1,2.2-6.3,4.2
	c-0.8,1.2,0.7,5,2.2,5.9c2.7,1.7,6.2,2.1,9.4,3.2c9.1,3,8.8,3,8.6-6.9c-0.1-3.2,2.1-6.4,3.3-9.6c0.6,4.5-0.7,8.2,0,11.4
	c1.8,7.6-0.3,11.6-8.3,12c-0.3,0-0.5,0.9-1.1,2c1.8-0.1,3.1-0.2,4-0.3c-0.3,3.4-0.8,6.7-1.3,11.3c2.8-4.2,4.7-7,6.6-9.7
	c0.5,0.3,0.9,0.6,1.4,1c-0.3,3.9-0.6,7.8-0.9,11.7c0.5,0,1,0,1.4-0.1c1.7-3.3,3.3-6.8,4.9-10.1c0.6,0.3,1.2,0.5,1.7,0.8
	c-0.3,2.9-0.5,5.8-0.9,9.7c8.3-6.5,8.7-9.7,3.3-17c-1.2-1.6-2.8-2.9-4-4.5c-4.9-6.7-3.5-12.8,3.9-17.1c-0.3,2.6-1.2,5.3-0.6,7.7
	c2.3,9,5.2,18,7.8,26.9c0.8-0.2,1.5-0.3,2.3-0.5c0.9-2.8,1.8-5.6,2.8-8.8c-0.3-0.2-0.6-0.4-0.9-0.6c-0.4-0.2-0.7-0.4-1.1-0.5
	s-0.8-0.4-1.1-0.5c-0.7-0.3-1.5-0.7-2.2-1.1c-1.3-0.9-2.1-2.1-1.1-4c0.1-0.2,0.2-0.5,0.3-0.7c0.5-0.7,1-1.3,1.7-1.9l0,0
	c-6.9-7.8-6.6-9.4,1-14.3c5,1.8,9.1,4.7,12.2,3.9c3.5-0.9,7-4.7,8.7-8.1C748.6,125.7,743,108.5,737.1,104.5z M731.4,131.3
	c-5.4-0.4-11.4-3.5-15.7,2.6c-1.2-9.2,9-7.3,12.6-12c2.3-3,6.2-4.6,10.8-7.8c-2.9,4.7-5.4,9-8.2,13.7c5.1,3.4,7.9,0.4,9.7-5.3
	C741.6,129.9,739.4,131.9,731.4,131.3z M829.8,162.7c0.3,1.4,0.7,2.6,1,3.9c-5.3,1.4-11.3,1.9-15.8,4.6c-4.9,2.9-8.5,8-14.3,13.8
	c1.3-7.1,2.4-13,3.5-19.4c-13.7,6.3-13.1,18-12.2,32.6c-2.7-5.3-4.3-8.4-6-11.7l-2.5,3.5c-8.9-11-6.1-23.7-7.5-38
	c4.8,5.8,8.1,9.6,12.5,14.8c1.2-13.5,13.1-18.8,27.3-13.7c-3.8,2.4-7.2,4.6-9.6,6.1c7.2-0.3,15.5,0.8,22.8-1.5
	c6.1-1.9,7.6-0.8,8.6,5.3C834.7,163,832.2,162.9,829.8,162.7z M80.4,303c-15,2.6-17,1.9-22.9-6c-5.6,2-10.3,5-15,4.8
	s-11.7,0-11.3-8.6c-4.6,7.9-11.4,10.1-22,7.2c-4.9-1.4-10.1-2.9-9-8.2c10.5-2.3,19.8-4.6,29.4-6.3c3.8-0.7,7.9-0.3,11.9-0.1
	c4.7,0.1,9.5,0.5,15.2,0.8C58,300,71.7,297.9,80.4,303z M1028,365c-3.1,5-6.1,10.1-9.2,15.2c-1.2,2.5-2.8,4.9-3.3,7.5
	c-1.7,7.6-2.8,15.3-4.3,23.2l-4.6-1.9c-0.4,3.1-0.8,5.9-1.2,8.7l-2.8,0.4c1-11.1-12.6-17.4-7.8-29.8c2.7-6.9,6.5-11.9,14-14.8
	c5.3-2,9.5-6.9,14.4-10.1C1024.9,362.2,1028.3,358.5,1028,365z M980.8,230.5c-5.5,0.7-11,0.9-16.4,3.1l24.6-1.3
	c0.1,0.8,0.2,1.6,0.3,2.5c-16.4,1.7-32.7,3.5-49,5.2c0,0.5,0.1,1.1,0.2,1.6c5.5-0.3,11-0.5,16.4-0.8c0,0.4,0.1,0.8,0.2,1.3L941,245
	l6.7,1.8c-5.3-0.3-11,7.2-15.5-0.1c2.1-4.1,4.1-7.9,6.8-13.1h20c-4.5-3-13.7,3.2-12.6-10.3l61.5-4.9c0.1,0.8,0.2,1.7,0.3,2.5
	c-11.5,1.2-23.1,2.4-34.5,3.6c0,0.3,0,0.6,0.1,1h22.6c0.2,0.7,0.4,1.4,0.6,2.1C991.5,228.5,986.2,229.8,980.8,230.5z M1629.2,30.2
	c0.8,10.7-12.8,17.9-23.7,14.2c-3.7,4-6.6,9.9-9.5,9.8c-6.9-0.1-10,4.8-14.7,7.6c-3.4,2-6.9,3.9-11,6.2c-1.5-4-2.6-6.9-3.2-8.7
	C1583.9,40.7,1604.8,31.5,1629.2,30.2z M616,274v37.1c-14.3-4.4-26-11.8-34.3-25.5C593,281.7,603.9,278.1,616,274z M123.8,38.9
	c-9.9,5.3-19.6,3-19.8-5.6c-6.6,4.7-11.3,1.8-16.6-2.7c-4.4-3.8-10.6-5.5-15.8-8.4c-2.7-1.5-5.7-3.1-7.5-5.4
	c-1.8-2.4-2.4-5.9-3.6-8.9c3,0.1,6.3-0.6,8.8,0.4c13.8,5.8,27.6,11.6,40.8,18.4C115.5,29.5,119.4,34.8,123.8,38.9z M1088.4,1048.7
	c-1.9-3.3-2.9-5.3-4.3-7.8c-0.6,2.3-1.1,4.1-1.6,5.8h-0.5c-9.3-19.3-2.8-40.4-6.6-60.4c-1.3-6.7-2.7-13.3-3.3-20.1
	C1082.9,992,1095.9,1017.3,1088.4,1048.7z M1608.4,73.9c-9.5,6-20.3,10-28.2,18.7c-1.8,2-4.7,3-7.1,4.5
	c-3.2-12.8,6.2-18.5,14.5-24.8c-0.6-0.6-1.1-1.2-1.8-1.8l-14.3,8.8c1.9-7.9,16.8-16.7,27.8-16.6l-11,7.6c0.3,0.6,0.6,1.2,1,1.8
	l24.6-11.3C1618.5,67.9,1612.8,71.1,1608.4,73.9z M909.9,63c-2.5,4.3-4.6,8.7-8,15.2c0.5-5.6,0.8-9.3,1.2-13c-0.8,0-1.5-0.1-2.2-0.1
	c-0.3,5.7-0.6,11.3-0.9,16.7c-8.8-1.8-11.9-11.9-5.1-25.3c-2.4,1.6-3.8,2.5-5.3,3.4c1.2-7.8,1.2-7.8-7.9-17.3h17.7
	c-1,2.7-1.9,5-2.7,7.4c0.4,0.3,0.9,0.6,1.3,0.9c2.3-2.8,4.7-5.6,7-8.4C913.8,48.5,915.1,54.3,909.9,63z M1675.9,298.2
	c-2.4,2.1-6,4.3-9.1,4.3c-12.9-0.1-25.8-1.1-39.3-1.8c1.3-4.7,2.5-8.7,3.6-12.8c14.6,1.2,29.1,2.3,43.5,3.8
	C1675.4,291.7,1676.8,297.4,1675.9,298.2z M806.4,277.4c-14.9,0-28.1,0.4-41.2-0.1c-8.5-0.4-6.2-7.4-6.4-12.6c3-2.5,5.9-5,8.8-7.5
	c2.3,1.9,5.1,3.5,6.8,5.9c3.3,4.5,5.9,9.5,8.8,14.3l3.3-1c0.4-6,0.8-12.1,1.2-18.1l0,0l0,0c0.7,0.6,1.3,1.3,1.9,2
	c1.5,1.6,2.9,3.1,4.4,4.6C798,268.7,802,272.8,806.4,277.4z M782.6,69.7c-0.3,0.4-0.6,0.8-0.9,1.1c-1.4-0.9-2.8-1.7-2.8-1.7
	c-7,5.8-13.3,11-20.4,16.8c-4-0.9-9.4-2.1-14.7-3.3c-0.2,0.5-0.4,1.1-0.5,1.6c3.8,1.8,7.7,3.7,11.6,5.5c-6,2.2-12,4.5-17.7,6.6
	c0.8-1.5,2.4-4.7,5-9.8c-5.5,0.7-10.2,1.2-14.6,1.7c1.9-6.3,6.6-13.3,13.7-21c5.9,1.3,13.5,2.9,21.2,4.5c-0.1,0.5-0.2,1-0.3,1.5
	c-6.3-1.1-12.7-2.1-19-3.2c-0.3,0.8-0.5,1.6-0.7,2.5c6.7,2,14.1,6.9,19.8,5.3c5.5-1.5,9.3-9.4,14.5-15.3
	C778.7,64.9,780.7,67.3,782.6,69.7z M970.9,96.6c0.8,2.9,1.6,6,2.5,9c-5.1-13.9-18.9-7-28-11.6c0.5-2.3,1.2-4.6,2-6.8
	c5.2-11.6,3.3-17-8-22.3c-5.7-2.7-6.9-5.9-5.2-12.8c6,7.3,10.8,16.7,23.1,11.9c1.2-0.5,4.6,1.1,4.8,2.2c0.4,2.5,0.4,6.1-1.1,7.8
	c-4.3,4.9-4.7,9.4-1.6,14.9c-10.4-2.5,2.1-14.2-6.6-17.1c0,3.2-0.2,6.7,0.1,10.2c0.3,2.9,0.3,6.8,2,8.2s5.7,0.4,8.6,0.4
	c3.2-0.1,6.5-0.8,9.5-0.2c1,0.2,1.4,3.7,2.1,5.7C973.9,96.2,972.5,96.4,970.9,96.6z M615.3,317.4c-17.6-5.2-35.2-10.4-52.8-15.6
	c0-1.5,0-3,0-4.5c4.8-2.6,9.7-5.4,14.7-7.7c1.1-0.5,3.8,0.2,4.5,1.2c7.7,12.3,20.6,17.4,32.7,23.5
	C615,314.6,615.4,315.4,615.3,317.4z M942.4,186.6c-1.3,4.7-2.5,8.9-4,14.2c6.9,7.2,11.8,10.8,4.3,20.4c0.6-9.4-2.1-15.8-10.8-19.1
	c-3.5-1.3-3.5-5,0.7-7.8c6.8-4.6,7.2-9.5,1.3-15.3c-6.4-6.4-3.7-10.3,2.7-13.8c0.3,0.3,0.6,0.5,0.9,0.8c-0.1,6.5,3,10,9,12.9
	c3.1,1.5,5.1,6.9,5.7,10.9c0.4,2.3-2.9,5.2-5.5,9.3C944.5,193.1,943.5,189.8,942.4,186.6z M1624.3,0.7c-5.3,14-19.5,14-27.4,22.1
	c-8.8,8.9-21,6.2-32.3,7.1c7.4-3,15.1-5.5,22.2-9.1c5.7-2.8,11-6.4,15.7-10.7C1608.5,4.4,1615.1,1.8,1624.3,0.7z M1040.8,351.8
	c-7.3,18.4-14.7,36.7-22.1,55.1l-2.9-0.8c0.4-4.2,0.7-8.3,1.2-12.5c0.5-4.5,1.2-9,1.9-13.5c3.1-5.1,6.2-10.1,9.2-15.2l10.4-14.4
	C1039.2,351,1040,351.4,1040.8,351.8z M745.2,197.9c5.1,10.6,4.9,9.9-5.5,13.7c-3.9,1.4-6.2,7.1-9,10.5c-1-4.3-0.5-9.4,6-12.9
	c7.6-4,8.3-7.8,1.4-13c-5.6-4.2-4.5-8.1-2.3-13.3c1-2.4,0.4-5.4,0.6-8.7c5.4,2.9,10.1,5.3,16.5,8.7
	C742.7,185.7,741.2,189.5,745.2,197.9z M709.8,76.8c1.3,9.5-3.3,13.1-12.4,11.3c-2.2-0.4-4.5-0.3-7-2.2c4.2-0.3,8.5-0.7,14.4-1.1
	c-12.5-5.5-14.7-4.9-21.2,4.6c-0.7-0.5-1.3-1-1.9-1.6c2.9-3.4,5.3-8.2,9-9.8s9.1-0.4,14.6-0.4c-3.5-9.5-2-18.3,10.6-21.9
	C709.6,61.6,708.6,68.5,709.8,76.8z M963.2,151.2c-4.7-13.9-7.3-25.8-21.8-27.9c-0.6-0.1-0.8-2.6-1.2-3.9l0.6-0.6
	c1-0.4,2.1-0.6,3.2-0.8c3.6-0.1,8-1.3,10.7,0.2c2,1.2,2,5.9,3.3,10.6c2.9,2.3,8.2,5.4,11.1,9.9C970.2,140.4,966,145.7,963.2,151.2z
	 M756.6,139.2c-2.9,0.9-5.8,1.7-8.9,2.6c-0.7,9.9-10.8,17.4-20.6,14.3c-0.4-0.2-0.8-0.5-1.1-0.8c-0.5-0.7-1-1.5-1.3-2.3
	c-0.1-0.3-0.2-0.6-0.4-0.9c-0.2-0.5-0.4-1-0.7-1.5c2.6,0.8,5.3,1.6,7.9,2.4c-3.6-4.3-11.5-4.3-8.5-13.3c8.2,6.8,15.8,6.3,23.5-0.9
	c2-1.9,6.3-1.3,9.5-1.8C756.3,137.8,756.4,138.5,756.6,139.2z M861.1,1688c-5.6,2.6-12.2,3.6-18.4,4.2c-5.1,0.5-7.7-3-7.3-8.3
	c6.7,1.9,23.3-3.7,27.4-9.2C869,1679.9,867.1,1685.3,861.1,1688z M1146.2,366.3c-18,7.7-34.9,8.4-53.1,6.4
	C1110.5,368.6,1126.4,361.2,1146.2,366.3z M756.2,58.1c-11.2,8.4-26.6,6.2-40.5,13.6c4.8-9.7,11.1-12.1,17.3-11.2
	c1.2-6.7,2.3-13.2,3.4-19.7c0.4-0.1,0.7-0.2,1.1-0.4v21.9l16.9-8.3C755,55.3,755.6,56.7,756.2,58.1z M987.3,133.7
	c-4.9-0.7-10.9-1.5-17.2-2.4l1.3,2l-11.8-8.3c4.3-2.5,7-4,9.7-5.6c0.3,2.2,0.6,4.5,1.1,9.5c2.6-3.8,4.4-6.5,6.8-10.1
	c3.4,1.4,7.9,3.4,12,5.2C988.5,127.7,987.9,130.5,987.3,133.7z M954,141.9c0.4,11.9-6.5,19.1-16.6,24c-0.3-0.3-0.6-0.5-0.9-0.8
	c2.1-7.8,4.1-15.6,6.2-23.3c5.3,4.4,2.5,10-1.3,16.2c7.9-4.3,8.7-7.3,5.8-14.7c-0.9-2.4-0.6-5.2-0.6-7.8c0-0.2,3.2-1,3.6-0.5
	C951.8,137.1,953.9,139.5,954,141.9z M930.3,191.6c-1.9,3.1-4.1,6-7.1,10.4c0.2-4,0.3-6.9,0.5-11.3c-2.4,3.4-4.1,5.9-5.9,8.3
	c-0.7-0.1-1.4-0.2-2.2-0.3c0.5-3.2-0.1-8,1.7-9.3c6.2-4.5,5.6-9.2,1.9-14.9l2.1-0.9c1.6,2.4,3.2,4.9,3.6,5.4
	c3.9,2.4,7.5,3.4,8.3,5.5C933.9,186.1,931.6,189.3,930.3,191.6z M707.5,95.1c-3.3,5.1-6.6,10.1-10.2,15.7c-8.2-4.9-8.4-7.9-2.4-15
	c-2.8,1.5-5.6,3.1-8.3,4.6C688.5,90.9,688.6,90.9,707.5,95.1z M919,205.6c-3.5-1-9.7-1.8-9.8-3c-0.5-6.2,0.7-12.6,1.2-18.8
	c-0.7,0.4-2.5,1.5-4.4,2.6c-0.4-0.3-0.7-0.7-1.1-1c2.4-3.1,4.8-6.2,7.5-9.5c4.8,1.3,8.5,3.4,4.7,8.7
	C909.8,194.7,910,197.1,919,205.6z M362.8,1550.9c0,1,0,2,0,3c-3.3,1-6.8,3.2-9.9,2.7c-6-1-10.1-4.7-9.3-15.4
	C351.1,1545,357,1547.9,362.8,1550.9z M1405.5,1506.2c-1.9,3.4-4.7,6.8-8.1,8.5c-0.8,0.4-2.9-1.6-5-3.6c-0.2-0.2-0.3-0.3-0.5-0.5
	c-0.7-0.6-1.3-1.2-1.9-1.7c1.9-1.9,3.5-4.1,5.6-5.6c2.3-1.7,5-2.7,7.6-4C1404.1,1501.7,1406.3,1504.7,1405.5,1506.2z M324.1,1509.8
	c-6.2,4.8-3.9,17-15.6,16.8C309.8,1512.1,313,1508.4,324.1,1509.8z M932.9,231.9c-0.6,0.3-1.2,0.6-1.7,0.9c-1.8-1.6-3.6-3.2-5.5-4.8
	c-0.8-4.8-1.9-10.4-9.6-12.7c-0.9-0.3-1.4-3.2-1.4-4.8c0-0.8,1.8-2.1,2.8-2.2c7.2-0.3,12.5,9,9.7,14.4
	C929.5,226.6,931.2,229.2,932.9,231.9z M755.5,156.2c-1.3,7.5-17,5.7-11.3,18.6c-1.2-0.4-2.5-0.9-3.7-1.3V163
	c-2.2,2.9-3.7,4.9-5.5,7.3c-1.8-1.3-3.7-2.7-5.6-4.1c0.1-0.9,0.2-1.8,0.3-2.7C738.2,161.1,746.7,158.7,755.5,156.2z M766.3,19.2
	c-2.1,2.5-3.7,6.2-6.4,7.4c-7.6,3.4-15.7,5.9-23.2,8.6c0.5-4.6,2.8-7.1,11.3-10.5c5.5-2.1,11-4.2,16.4-6.3
	C765.1,18.7,765.7,18.9,766.3,19.2z M761.8,53.8c-4.7-1.1-9.2-2.7-13.8-2.9c-2.1-0.1-4.3,2.8-6.7,4.5c0-7.6,3.8-11.5,11.5-11.7
	C760.8,43.5,762.5,48.1,761.8,53.8z M973.2,176.9c-1,0.5-1.9,1-2.9,1.5c-0.8-2-1.2-4.5-2.5-6c-1.9-2.1-5.5-5.4-6.8-4.8
	c-7.3,3.1-7.9-2.6-10.3-6.6c2-1.5,3.8-2.9,5.7-4.3c1,3.1,2,6,3,8.9l1.5-0.7v-6.8c0.7-0.2,1.4-0.4,2.1-0.5
	C966.3,164,969.7,170.4,973.2,176.9z M924.8,172.7c-4.3-5.6,0.4-16.8,9.1-22.7C938.9,161.5,926.8,164.5,924.8,172.7z M718,115.6
	c-6,0.5-11.9,2-19.1,3.3c0.5-1.2,0.7-4.7,2.6-6.1c2.3-1.7,6.6-3.1,8.8-2.1c7.2,3.3,13,3.6,17.7-7.1C728.5,113.9,724,115.1,718,115.6
	z M769.5,197.1c-2.7,5-10.3,8.9-2.6,15.7c0.2,0.2-1.5,2.6-2.7,4.6c-5.3-11.9-4.3-14,5.5-28.2C769.6,191.9,770.6,195,769.5,197.1z
	 M715.5,421.7c-10.6,1.3-18.9-6.9-21.5-22.5c4.3,5.5,7,9.7,10.4,13.2C707.6,415.7,711.6,418.4,715.5,421.7z M886.9,39.3h-23.7
	C873.9,30.6,880.6,30.6,886.9,39.3z M963.9,180.6c-0.6,0.4-1.2,0.9-1.7,1.4c-15.2-11.7-15.2-11.7-14.7-18.4c3,2.8,6.2,5.4,9.1,8.4
	C959.2,174.7,961.5,177.7,963.9,180.6z M748,109.7c-7.4-6.2-6.2-14.8,2-17.9c0.9-0.4,1.8-0.7,2.7-1.1s1.5-0.7,2.3-1l0.1-0.1
	c0.1,0,0.1,0,0.2-0.1l-0.2,0.2c2,0.4,4.1,0.8,6.2,1.3C750.1,92.7,745.8,98.6,748,109.7z M809,39.3L809,39.3
	c-1.4-0.3-2.8-0.7-4.3-1.1c-2.5-0.8-5.2-1.2-7.8-1.2c-3.9,0.2-7.6,2.3-12.4,3.8c0.3-0.8,0.7-1.5,1.1-2.2c0.4-0.7,0.8-1.3,1.2-1.9
	c4.1-5.7,10.1-6.7,15.8-3.3c1.2,0.7,2.3,1.5,3.3,2.4c0.5,0.5,1.1,1,1.6,1.6S808.4,38.6,809,39.3L809,39.3z M915.4,87.1
	c1.2,3.9,2.3,7.6,3.4,11.3c-0.6,0-1.2-0.1-1.8-0.1c-1.8-2.4-3.4-5.1-5.5-7.2c-2-1.9-4.6-3.2-8.1-5.6c16.4-1.3,16.4-1.3,18.7,5.7
	c-1.7-1.1-2.6-1.7-3.6-2.3S916.5,87.7,915.4,87.1z M335.8,1550.8c-2.8-4-5.7-7-6.7-10.5c-0.5-1.5,2.8-4.2,4.4-6.3
	c0.6,1.7,1,4.4,2,4.7C344.8,1541.1,339.3,1545.1,335.8,1550.8z M752,243.2c-8.7-3.7-16.8-7.1-24.9-10.5
	C737.2,231.5,746.5,232.1,752,243.2z M723,94.4c-0.9,4.6-0.7,9.9-2.5,10.8c-3.5,1.8-8.3,1-14.5,1.5C712.5,102,716.8,98.9,723,94.4z
	 M981.3,166.3c-2.2-0.7-4.4-1.3-6.5-1.9c0.9,3,1.8,6.1,2.7,9.3c-10.5-11.8-10.8-12.1-8.2-18.2c0.2,4.5,3.2,5,7.2,5.1c2,0,4,1.9,6,3
	C982.1,164.5,981.7,165.4,981.3,166.3z M785.1,48.6c-0.4,0.7-0.8,1.4-1.2,2c-2.1-1-4.2-2.1-6.3-3.1c-1.7,4.7-3.5,9.5-5.3,14.3
	l-1.8-0.6c0.9-6,1.7-12,2.9-20.2C777.5,43.7,781.3,46.1,785.1,48.6z M763.6,30c-2.1,8.1-5.2,9.3-18.2,5.5l17.7-6L763.6,30z
	 M939.1,131.7H924c0.2,0.5,1,2.1,1.8,3.8c-0.5,0.3-1,0.6-1.5,0.9c-1.3-2.3-2.6-4.6-3.9-6.8c2.4-0.8,4.8-2.2,7.3-2.2
	c3.8,0.1,7.7,1.2,11.5,1.9C939.3,130.1,939.2,130.9,939.1,131.7z M748.7,213.9l-10.1,13.6c-1-4.4-2.8-8.4-1.9-9.2
	c3.2-2.7,7.3-4.3,11.1-6.3L748.7,213.9z M738.3,200.6c-0.1,1-0.2,1.9-0.3,2.9c-2.4,0.7-4.8,1.4-8.7,2.5c1.7-2.5,2.4-3.6,3.7-5.3
	c-6.7,0.6-13.3,4.1-16.3-4L738.3,200.6z M802.7,199.2c-2-0.5-5.5-0.6-5.7-1.5c-1.4-5.6-2-11.3-3-17.8c3.5,5.8,6.4,10.3,8.9,15
	C803.5,196,802.8,197.7,802.7,199.2z M727,70.1c-1,6-2.1,12-3.2,18c-0.8-0.1-1.5-0.2-2.3-0.3c0.4-3.8,0.8-7.7,1.5-13.7
	c-2.6,4.5-4.2,7.3-5.7,10c-0.7-0.4-1.3-0.8-1.9-1.2c3-4.7,6-9.4,9-14.1C725.3,69.3,726.1,69.7,727,70.1z M981.7,418.8
	c2.3-5.5,4.5-10.8,7.1-16.8C991.7,414.5,990.1,418.3,981.7,418.8z M646.4,273.3l-16.6,7.9c-0.6-2.5-1.2-5-1.8-7.9H646.4z M906.3,428
	c-0.3,2-0.6,4-0.9,6.1c-5.8-2.4-11.4-5.3-17.3-7c-3.5-1.1-7.5-0.4-11.3-0.5c0-0.2,0-0.3,0-0.5c0-0.5,0-1.1-0.1-1.7h0.5
	c9.3,0,18.5-0.1,27.7,0.1C905.4,424.4,905.8,426.7,906.3,428z M853.6,1263.7h-20.4c1.5-13.6,3-26.9,4.5-40.2
	c0.9-0.2,1.7-0.3,2.5-0.5C844.5,1236.3,848.9,1249.5,853.6,1263.7z M1097.9,1662.9c-7.9,1.3-15.8,2.7-23.7,4
	c0.3-0.8,0.6-1.5,0.9-2.3c-2.8-1.5-5.7-4-8.6-4.3c-24.8-2.4-48.9-6.6-70.3-20.7c-10.7-7.2-21.9-13.5-33.6-19
	c-14.2-6.5-20.5-18.2-24.5-32.1c-1.2-4.4-2-9-4.1-13c-10.4-19.7-8-41.3-8.5-62.1c-0.7-23.9,2.8-47.8,2.6-71.6
	c0-4.4-0.1-8.8-0.3-13.2c-0.7-19.8-2.3-39.7-3.7-59.5c-1.7-24.1-4.4-48.2-5.6-72.3c-0.3-6.7,3.5-13.6,5.2-20.4
	c0.7-2.9,1.1-5.9,1.6-8.9c4.3-12.4,9.2-24.5,12.5-37.1c2.2-8.1,2.5-16.8,2.8-25.2c0-1.2,0-2.5,0-3.7s-0.2-2.8-0.3-4.2
	c0-0.1,0-0.3,0-0.3c-0.2-2.1-0.4-4.1-0.5-6.2c0-0.1,0-0.2,0-0.3c-0.3-3-0.2-6.1,0.2-9.1c0.1-0.7,0.2-1.4,0.3-2.1
	c0.2-1.4,0.3-2.8,0.4-4.2s0.2-2.8,0.3-4.2c0.4-5.3,0.9-10.5,2.6-15.6c0.2-0.7,0.5-1.3,0.8-2c0.1-0.3,0.3-0.7,0.4-1
	c0.3-0.7,0.6-1.3,1-2s0.7-1.3,1.1-1.9s0.8-1.3,1.2-2s0.7-1.4,1-2.1c0.5-1.1,0.9-2.1,1.3-3.2c1.2-3.3,2.2-6.8,3.2-10.1
	c4.7-15.8,9-31.7,13.8-47.5c2.8-9.2,3.3-17.4-4.8-24.9c-6.1-5.6-11.9-11.7-17.3-18c-1.8-2.1-3.5-4.3-5.1-6.5
	c-9.6-13-19.4-25.9-28.2-39.3c-1.4-2.1-2.7-4.1-4-6.2c-5.3-8.4-10-17-14.2-26c-1.5-3.4-3-6.8-4.4-10.3c-0.9-2.3-1.7-4.7-2.5-7
	s-1.5-4.8-2.2-7.2s-1.3-4.9-1.9-7.4c-0.1-0.6-0.3-1.2-0.5-1.8c-0.8-2.4-1.8-4.8-2.9-7.1c-0.8-1.8-1.7-3.6-2.4-5.4
	c-9.4,5.1-17.4,4-25.6-0.8c-2.6-1.5-4.6-1.7-6-0.4c-0.3,0.3-0.6,0.7-0.8,1c-0.1,0.2-0.1,0.3-0.2,0.5c-0.1,0.3-0.3,0.7-0.3,1
	c-0.2,0.9-0.3,1.7-0.4,2.6c-1.3,26.4-2.7,52.8-8.2,78.9c-5.8,27.3-2.2,55,2.5,82.4c0.2,0.9,0.3,1.9,0.5,2.8c0.4,2.3,0.8,4.6,1.1,6.9
	c0.7,4.1,1.3,8.2,1.8,12.3c0.1,0.8,0.2,1.7,0.3,2.4c0.6,5.1,0.9,10.3,0.9,15.5c0,2.5-0.1,5-0.2,7.5c-0.1,2.4-0.2,5-0.4,7.4
	c-0.6,9.9-1.5,19.9-2.3,29.8c-0.2,2.5-0.3,5-0.5,7.4c-0.1,2.5-0.3,5-0.3,7.5c-0.5,10.8,0.3,21.6,2.4,32.2c3.2,14.6,8.2,29,13.1,43.2
	c1,3,4.8,6.7,7.7,7c8.7,0.9,17.7,0.3,27.1,0.3v-11c0.3,10.3,6.3,12.1,14.9,11.1c4.6-0.5,9.2-0.5,13.7,0.1c2.5,0.3,4.8,2.2,7.2,3.4
	h-30c4.3,11.1,8.1,21,12.1,31.4c-1.7-1.5-4.7-3-5.9-5.4c-3.5-7.1-6.1-14.7-9.4-21.8c-1.1-1.8-2.9-3.1-5-3.4
	c-7.1-0.4-14.3-0.5-21.5-0.1c-1.9,0.1-3.6,2.4-5.5,3.8c-5-4.5-10.3-5.2-28.9-3.1c-3,17.5-7.2,35.3-9,53.4c-2.2,22.9-4,46-3.3,68.9
	c0.4,15,4.9,28.9,11.5,42c4.2,8.4,9,16.5,14.3,24.2c1.4,2.2,2.5,4.5,4.8,8.6l-7.6-3c2.6,22.5,3.7,44.6,8,66
	c4.2,20.3,12.2,39.7,17.7,59.8c3.6,13.7,6.3,27.7,8.2,41.8c0.6,4.3-1.3,9.5-3.3,13.7c-5.1,10.1-5.3,20.1-1.1,30.4
	c1.1,2.4,1.7,5.1,1.9,7.7c16.8,9.8,34.1-0.1,51.6-1.2l-7.3-4.7c1.1-0.6,1.5-1.1,1.9-1.1c18.8,0.6,37.7,1,56.4,2
	c4.5,0.2,8.8,3.2,13.3,3.7c13.9,1.5,27.5,8.2,41.8,3c2.7-1,4.8-3.5,7.1-5.4c10.3,7.9,15,7.6,19.3-1.3c7.7,7.1,23.8,8.6,33.6,3.1
	C1098.1,1676,1099.6,1671.8,1097.9,1662.9z M898.6,1243.7l-2,0.3c-0.8,0.2-1.6,0.1-2.4-0.1c-0.1-0.1-0.2-0.1-0.3-0.2
	c-0.9-1-1.7-2-2.6-3.1l0,0c-0.5-0.7-1-1.4-1.5-2.2c-3-4.5-4.5-9.8-4.3-15.2c0.1-1.3,0.2-2.7,0.5-4l0,0c0.4,1.7,0.8,3.2,1.2,4.6l0,0
	c0.4,1.4,0.8,2.7,1.2,4c1.7,5.3,3.2,8.6,5.1,10.8c0.4,0.5,0.8,1,1.3,1.4c1.6,1.4,3.5,2.6,5.5,3.4
	C899.8,1243.6,899.2,1243.6,898.6,1243.7z M907.2,1196.5L907.2,1196.5c0,0.2-0.1,0.5-0.2,0.7c-0.1,0.3-0.2,0.7-0.4,1
	c-0.1,0.4-0.3,0.7-0.5,1.1c-0.9,1.9-2.1,3.7-3.5,5.3c-1.9,2.3-4.1,4.3-6.5,6c-0.4,0.3-0.9,0.6-1.3,0.8c-0.2,0.1-0.4,0.2-0.7,0.3
	c-0.6,0.3-1.2,0.5-1.8,0.7c-0.4,0.1-0.7,0.2-1.1,0.2c-2.8,0.2-5.5-0.1-8.2-0.8c-5.7-1.7-9.4-5.9-10.6-13c-0.7-4.1-1.3-8.3-2-12.4
	c-0.8-5.2-1.6-10.4-2.3-15.6c-0.3-2.1-0.5-4.2-0.8-6.3c-0.3-2.1-0.5-4.2-0.7-6.3c-0.3-3.1-0.6-6.3-0.8-9.4
	c-0.4-5.9-0.1-11.9,0.8-17.8c0.5-3.1,1.2-6.2,2.1-9.2c0.3-1,0.6-2,0.9-3c2.8-8.2,6.9-15.9,12.1-22.8c0.3-0.4,0.6-0.9,0.9-1.3
	c0.9-1.3,1.7-2.7,2.5-4.2l0,0c1.5-2.9,2.8-5.9,4-9l1.3-3.1c0.7-1.7,1.4-3.4,2.1-5.1c0.2-0.3,0.3-0.7,0.4-1l0.2,0.1
	c0.5,0.2,0.9,0.4,1.4,0.6c-0.5,1.1-0.9,2.1-1.3,3.2c-0.9,2.1-1.7,4.3-2.5,6.4c-2.1,5.4-4.3,10.7-7.4,15.4
	c-16.9,25.3-20.3,51.3-7.1,79.2c0.3,0.5,0.4,1.1,0.5,1.7c0.2,1.3,0.2,2.6,0,3.8l0,0c-0.9,8.1-3.8,16.2,3,23.5
	c3.2,3.5,7,5.1,10.6,3.9c1.1-0.4,2.1-0.9,3-1.7c0.3-0.2,0.5-0.4,0.7-0.7l0,0l1.7-1.7c2.8-2.9,5.4-5.8,8.2-8.7
	c1.1-1.1,2.3-2.2,3.5-3.2l0,0C907.5,1195,907.4,1195.7,907.2,1196.5L907.2,1196.5z M891,1332.4c2.3,11.7,4.6,23.4,6.9,35.1
	c-0.6,0.1-1.3,0.3-1.9,0.4c-2.4-11.7-4.7-23.4-7.1-35.1L891,1332.4z M870.8,1288.7c6.3,13.1,12.7,26.2,19,39.3l-1.9,0.9
	c-6.3-13.1-12.7-26.2-19-39.3C869.5,1289.3,870.2,1289,870.8,1288.7z M856.4,1415.5c2.4,6.6,4.2,11.5,6.3,17.4
	c0.2,0.5,0.4,1.1,0.6,1.6c-2.3-0.7-3.5-1-5.1-1.4c1,3.8,2,7.4,3,11c-3.5-2.7-4.7-3.6-5-11.1C856,1429.1,856.2,1423.7,856.4,1415.5z
	 M854.8,1442.8c0.8,6.7,2.6,13.4,2.3,20c-1,30.8,3.6,60.8,11.9,90.3c0.3,1.4,0.5,2.7,0.6,4.1C858,1535.9,848.8,1470.1,854.8,1442.8
	L854.8,1442.8z M884.1,1635.3c-2.7-13.9-4.7-27.9-7-41.8c1.1-0.2,2.2-0.3,3.3-0.5c3.3,17,1.6,35.4,14.7,50.4
	C887.9,1644,885,1640,884.1,1635.3z M883.4,1546.3l-2.5-0.4c4.4-25.5,8.8-51.1,13.2-76.6c0.8,0.1,1.6,0.3,2.4,0.4
	C892.1,1495.2,887.8,1520.7,883.4,1546.3L883.4,1546.3z M898,1464.7h-1.9v-76c0.6,0,1.3,0,1.9,0V1464.7z M905.1,1595.9
	c1.5,8.3,3,16.5,4.5,24.8c-0.7,0.2-1.3,0.4-2,0.6c-1.6-8.2-3.3-16.5-4.9-24.8L905.1,1595.9z M903.1,1656.8
	c2.3-9.7,4.2-17.7,6.3-26.6C913.7,1638.7,911.2,1653.3,903.1,1656.8L903.1,1656.8z"/>
</svg>
