<svg id="Layer_1" data-name="Layer 1" xmlns="http://www.w3.org/2000/svg" viewBox="0 0 1830.76 521.29"><title>paper</title><path d="M1819.74,0V517.52s-95,18.27-109.63-25.58-62.12-54.81-171.75-87.7c0,0-190,7.31-226.56-40.19-60.94-66.45,18-23.59-67.37-51.66-46.93-15.43-58-20.32-84.86-25.07-32.18-5.7-143.76,69.42-158.38,55.21s-204.63,3.24-204.63,3.24-215.6-7.3-233.87,0-149.83,47.51-171.75,58.47-62.12,29.24-95,53-51.16,5.48-65.78,0-80.39,34.71-80.39,34.71L-11,422.51V0Z" transform="translate(11.02 0)"/></svg>